G04 #@! TF.GenerationSoftware,KiCad,Pcbnew,7.0.5*
G04 #@! TF.CreationDate,2023-06-10T07:12:36+09:00*
G04 #@! TF.ProjectId,game-boy-pico-link-board,67616d65-2d62-46f7-992d-7069636f2d6c,rev?*
G04 #@! TF.SameCoordinates,Original*
G04 #@! TF.FileFunction,Legend,Bot*
G04 #@! TF.FilePolarity,Positive*
%FSLAX46Y46*%
G04 Gerber Fmt 4.6, Leading zero omitted, Abs format (unit mm)*
G04 Created by KiCad (PCBNEW 7.0.5) date 2023-06-10 07:12:36*
%MOMM*%
%LPD*%
G01*
G04 APERTURE LIST*
%ADD10C,0.300000*%
%ADD11C,0.150000*%
%ADD12C,0.250000*%
%ADD13R,1.700000X1.700000*%
%ADD14C,1.700000*%
%ADD15O,1.700000X1.700000*%
%ADD16O,1.800000X1.800000*%
%ADD17O,1.500000X1.500000*%
%ADD18R,8.000000X2.000000*%
%ADD19R,5.000000X1.000000*%
G04 APERTURE END LIST*
D10*
X79904510Y-101767171D02*
X79904510Y-100552885D01*
X79904510Y-100552885D02*
X79975939Y-100410028D01*
X79975939Y-100410028D02*
X80047368Y-100338600D01*
X80047368Y-100338600D02*
X80190225Y-100267171D01*
X80190225Y-100267171D02*
X80475939Y-100267171D01*
X80475939Y-100267171D02*
X80618796Y-100338600D01*
X80618796Y-100338600D02*
X80690225Y-100410028D01*
X80690225Y-100410028D02*
X80761653Y-100552885D01*
X80761653Y-100552885D02*
X80761653Y-101767171D01*
X81404511Y-100338600D02*
X81618797Y-100267171D01*
X81618797Y-100267171D02*
X81975939Y-100267171D01*
X81975939Y-100267171D02*
X82118797Y-100338600D01*
X82118797Y-100338600D02*
X82190225Y-100410028D01*
X82190225Y-100410028D02*
X82261654Y-100552885D01*
X82261654Y-100552885D02*
X82261654Y-100695742D01*
X82261654Y-100695742D02*
X82190225Y-100838600D01*
X82190225Y-100838600D02*
X82118797Y-100910028D01*
X82118797Y-100910028D02*
X81975939Y-100981457D01*
X81975939Y-100981457D02*
X81690225Y-101052885D01*
X81690225Y-101052885D02*
X81547368Y-101124314D01*
X81547368Y-101124314D02*
X81475939Y-101195742D01*
X81475939Y-101195742D02*
X81404511Y-101338600D01*
X81404511Y-101338600D02*
X81404511Y-101481457D01*
X81404511Y-101481457D02*
X81475939Y-101624314D01*
X81475939Y-101624314D02*
X81547368Y-101695742D01*
X81547368Y-101695742D02*
X81690225Y-101767171D01*
X81690225Y-101767171D02*
X82047368Y-101767171D01*
X82047368Y-101767171D02*
X82261654Y-101695742D01*
X83404510Y-101052885D02*
X83618796Y-100981457D01*
X83618796Y-100981457D02*
X83690225Y-100910028D01*
X83690225Y-100910028D02*
X83761653Y-100767171D01*
X83761653Y-100767171D02*
X83761653Y-100552885D01*
X83761653Y-100552885D02*
X83690225Y-100410028D01*
X83690225Y-100410028D02*
X83618796Y-100338600D01*
X83618796Y-100338600D02*
X83475939Y-100267171D01*
X83475939Y-100267171D02*
X82904510Y-100267171D01*
X82904510Y-100267171D02*
X82904510Y-101767171D01*
X82904510Y-101767171D02*
X83404510Y-101767171D01*
X83404510Y-101767171D02*
X83547368Y-101695742D01*
X83547368Y-101695742D02*
X83618796Y-101624314D01*
X83618796Y-101624314D02*
X83690225Y-101481457D01*
X83690225Y-101481457D02*
X83690225Y-101338600D01*
X83690225Y-101338600D02*
X83618796Y-101195742D01*
X83618796Y-101195742D02*
X83547368Y-101124314D01*
X83547368Y-101124314D02*
X83404510Y-101052885D01*
X83404510Y-101052885D02*
X82904510Y-101052885D01*
X85333082Y-101767171D02*
X86190225Y-101767171D01*
X85761653Y-100267171D02*
X85761653Y-101767171D01*
X86975939Y-101767171D02*
X87261653Y-101767171D01*
X87261653Y-101767171D02*
X87404510Y-101695742D01*
X87404510Y-101695742D02*
X87547367Y-101552885D01*
X87547367Y-101552885D02*
X87618796Y-101267171D01*
X87618796Y-101267171D02*
X87618796Y-100767171D01*
X87618796Y-100767171D02*
X87547367Y-100481457D01*
X87547367Y-100481457D02*
X87404510Y-100338600D01*
X87404510Y-100338600D02*
X87261653Y-100267171D01*
X87261653Y-100267171D02*
X86975939Y-100267171D01*
X86975939Y-100267171D02*
X86833082Y-100338600D01*
X86833082Y-100338600D02*
X86690224Y-100481457D01*
X86690224Y-100481457D02*
X86618796Y-100767171D01*
X86618796Y-100767171D02*
X86618796Y-101267171D01*
X86618796Y-101267171D02*
X86690224Y-101552885D01*
X86690224Y-101552885D02*
X86833082Y-101695742D01*
X86833082Y-101695742D02*
X86975939Y-101767171D01*
X90190225Y-101695742D02*
X90047368Y-101767171D01*
X90047368Y-101767171D02*
X89833082Y-101767171D01*
X89833082Y-101767171D02*
X89618796Y-101695742D01*
X89618796Y-101695742D02*
X89475939Y-101552885D01*
X89475939Y-101552885D02*
X89404510Y-101410028D01*
X89404510Y-101410028D02*
X89333082Y-101124314D01*
X89333082Y-101124314D02*
X89333082Y-100910028D01*
X89333082Y-100910028D02*
X89404510Y-100624314D01*
X89404510Y-100624314D02*
X89475939Y-100481457D01*
X89475939Y-100481457D02*
X89618796Y-100338600D01*
X89618796Y-100338600D02*
X89833082Y-100267171D01*
X89833082Y-100267171D02*
X89975939Y-100267171D01*
X89975939Y-100267171D02*
X90190225Y-100338600D01*
X90190225Y-100338600D02*
X90261653Y-100410028D01*
X90261653Y-100410028D02*
X90261653Y-100910028D01*
X90261653Y-100910028D02*
X89975939Y-100910028D01*
X90833082Y-100695742D02*
X91547368Y-100695742D01*
X90690225Y-100267171D02*
X91190225Y-101767171D01*
X91190225Y-101767171D02*
X91690225Y-100267171D01*
X92190224Y-100267171D02*
X92190224Y-101767171D01*
X92190224Y-101767171D02*
X92690224Y-100695742D01*
X92690224Y-100695742D02*
X93190224Y-101767171D01*
X93190224Y-101767171D02*
X93190224Y-100267171D01*
X93904510Y-101052885D02*
X94404510Y-101052885D01*
X94618796Y-100267171D02*
X93904510Y-100267171D01*
X93904510Y-100267171D02*
X93904510Y-101767171D01*
X93904510Y-101767171D02*
X94618796Y-101767171D01*
X95761653Y-101052885D02*
X95975939Y-100981457D01*
X95975939Y-100981457D02*
X96047368Y-100910028D01*
X96047368Y-100910028D02*
X96118796Y-100767171D01*
X96118796Y-100767171D02*
X96118796Y-100552885D01*
X96118796Y-100552885D02*
X96047368Y-100410028D01*
X96047368Y-100410028D02*
X95975939Y-100338600D01*
X95975939Y-100338600D02*
X95833082Y-100267171D01*
X95833082Y-100267171D02*
X95261653Y-100267171D01*
X95261653Y-100267171D02*
X95261653Y-101767171D01*
X95261653Y-101767171D02*
X95761653Y-101767171D01*
X95761653Y-101767171D02*
X95904511Y-101695742D01*
X95904511Y-101695742D02*
X95975939Y-101624314D01*
X95975939Y-101624314D02*
X96047368Y-101481457D01*
X96047368Y-101481457D02*
X96047368Y-101338600D01*
X96047368Y-101338600D02*
X95975939Y-101195742D01*
X95975939Y-101195742D02*
X95904511Y-101124314D01*
X95904511Y-101124314D02*
X95761653Y-101052885D01*
X95761653Y-101052885D02*
X95261653Y-101052885D01*
X97047368Y-101767171D02*
X97333082Y-101767171D01*
X97333082Y-101767171D02*
X97475939Y-101695742D01*
X97475939Y-101695742D02*
X97618796Y-101552885D01*
X97618796Y-101552885D02*
X97690225Y-101267171D01*
X97690225Y-101267171D02*
X97690225Y-100767171D01*
X97690225Y-100767171D02*
X97618796Y-100481457D01*
X97618796Y-100481457D02*
X97475939Y-100338600D01*
X97475939Y-100338600D02*
X97333082Y-100267171D01*
X97333082Y-100267171D02*
X97047368Y-100267171D01*
X97047368Y-100267171D02*
X96904511Y-100338600D01*
X96904511Y-100338600D02*
X96761653Y-100481457D01*
X96761653Y-100481457D02*
X96690225Y-100767171D01*
X96690225Y-100767171D02*
X96690225Y-101267171D01*
X96690225Y-101267171D02*
X96761653Y-101552885D01*
X96761653Y-101552885D02*
X96904511Y-101695742D01*
X96904511Y-101695742D02*
X97047368Y-101767171D01*
X98618797Y-100981457D02*
X98618797Y-100267171D01*
X98118797Y-101767171D02*
X98618797Y-100981457D01*
X98618797Y-100981457D02*
X99118797Y-101767171D01*
X101475939Y-100267171D02*
X100761653Y-100267171D01*
X100761653Y-100267171D02*
X100761653Y-101767171D01*
X101975939Y-100267171D02*
X101975939Y-101767171D01*
X102690225Y-100267171D02*
X102690225Y-101767171D01*
X102690225Y-101767171D02*
X103547368Y-100267171D01*
X103547368Y-100267171D02*
X103547368Y-101767171D01*
X104261654Y-100267171D02*
X104261654Y-101767171D01*
X105118797Y-100267171D02*
X104475940Y-101124314D01*
X105118797Y-101767171D02*
X104261654Y-100910028D01*
X107761654Y-100410028D02*
X107690226Y-100338600D01*
X107690226Y-100338600D02*
X107475940Y-100267171D01*
X107475940Y-100267171D02*
X107333083Y-100267171D01*
X107333083Y-100267171D02*
X107118797Y-100338600D01*
X107118797Y-100338600D02*
X106975940Y-100481457D01*
X106975940Y-100481457D02*
X106904511Y-100624314D01*
X106904511Y-100624314D02*
X106833083Y-100910028D01*
X106833083Y-100910028D02*
X106833083Y-101124314D01*
X106833083Y-101124314D02*
X106904511Y-101410028D01*
X106904511Y-101410028D02*
X106975940Y-101552885D01*
X106975940Y-101552885D02*
X107118797Y-101695742D01*
X107118797Y-101695742D02*
X107333083Y-101767171D01*
X107333083Y-101767171D02*
X107475940Y-101767171D01*
X107475940Y-101767171D02*
X107690226Y-101695742D01*
X107690226Y-101695742D02*
X107761654Y-101624314D01*
X108333083Y-100695742D02*
X109047369Y-100695742D01*
X108190226Y-100267171D02*
X108690226Y-101767171D01*
X108690226Y-101767171D02*
X109190226Y-100267171D01*
X110190225Y-101052885D02*
X110404511Y-100981457D01*
X110404511Y-100981457D02*
X110475940Y-100910028D01*
X110475940Y-100910028D02*
X110547368Y-100767171D01*
X110547368Y-100767171D02*
X110547368Y-100552885D01*
X110547368Y-100552885D02*
X110475940Y-100410028D01*
X110475940Y-100410028D02*
X110404511Y-100338600D01*
X110404511Y-100338600D02*
X110261654Y-100267171D01*
X110261654Y-100267171D02*
X109690225Y-100267171D01*
X109690225Y-100267171D02*
X109690225Y-101767171D01*
X109690225Y-101767171D02*
X110190225Y-101767171D01*
X110190225Y-101767171D02*
X110333083Y-101695742D01*
X110333083Y-101695742D02*
X110404511Y-101624314D01*
X110404511Y-101624314D02*
X110475940Y-101481457D01*
X110475940Y-101481457D02*
X110475940Y-101338600D01*
X110475940Y-101338600D02*
X110404511Y-101195742D01*
X110404511Y-101195742D02*
X110333083Y-101124314D01*
X110333083Y-101124314D02*
X110190225Y-101052885D01*
X110190225Y-101052885D02*
X109690225Y-101052885D01*
X111904511Y-100267171D02*
X111190225Y-100267171D01*
X111190225Y-100267171D02*
X111190225Y-101767171D01*
X112404511Y-101052885D02*
X112904511Y-101052885D01*
X113118797Y-100267171D02*
X112404511Y-100267171D01*
X112404511Y-100267171D02*
X112404511Y-101767171D01*
X112404511Y-101767171D02*
X113118797Y-101767171D01*
X114833083Y-100695742D02*
X115547369Y-100695742D01*
X114690226Y-100267171D02*
X115190226Y-101767171D01*
X115190226Y-101767171D02*
X115690226Y-100267171D01*
X116190225Y-100267171D02*
X116190225Y-101767171D01*
X116190225Y-101767171D02*
X116547368Y-101767171D01*
X116547368Y-101767171D02*
X116761654Y-101695742D01*
X116761654Y-101695742D02*
X116904511Y-101552885D01*
X116904511Y-101552885D02*
X116975940Y-101410028D01*
X116975940Y-101410028D02*
X117047368Y-101124314D01*
X117047368Y-101124314D02*
X117047368Y-100910028D01*
X117047368Y-100910028D02*
X116975940Y-100624314D01*
X116975940Y-100624314D02*
X116904511Y-100481457D01*
X116904511Y-100481457D02*
X116761654Y-100338600D01*
X116761654Y-100338600D02*
X116547368Y-100267171D01*
X116547368Y-100267171D02*
X116190225Y-100267171D01*
X117618797Y-100695742D02*
X118333083Y-100695742D01*
X117475940Y-100267171D02*
X117975940Y-101767171D01*
X117975940Y-101767171D02*
X118475940Y-100267171D01*
X118975939Y-100267171D02*
X118975939Y-101767171D01*
X118975939Y-101767171D02*
X119547368Y-101767171D01*
X119547368Y-101767171D02*
X119690225Y-101695742D01*
X119690225Y-101695742D02*
X119761654Y-101624314D01*
X119761654Y-101624314D02*
X119833082Y-101481457D01*
X119833082Y-101481457D02*
X119833082Y-101267171D01*
X119833082Y-101267171D02*
X119761654Y-101124314D01*
X119761654Y-101124314D02*
X119690225Y-101052885D01*
X119690225Y-101052885D02*
X119547368Y-100981457D01*
X119547368Y-100981457D02*
X118975939Y-100981457D01*
X120261654Y-101767171D02*
X121118797Y-101767171D01*
X120690225Y-100267171D02*
X120690225Y-101767171D01*
X121618796Y-101052885D02*
X122118796Y-101052885D01*
X122333082Y-100267171D02*
X121618796Y-100267171D01*
X121618796Y-100267171D02*
X121618796Y-101767171D01*
X121618796Y-101767171D02*
X122333082Y-101767171D01*
X123833082Y-100267171D02*
X123333082Y-100981457D01*
X122975939Y-100267171D02*
X122975939Y-101767171D01*
X122975939Y-101767171D02*
X123547368Y-101767171D01*
X123547368Y-101767171D02*
X123690225Y-101695742D01*
X123690225Y-101695742D02*
X123761654Y-101624314D01*
X123761654Y-101624314D02*
X123833082Y-101481457D01*
X123833082Y-101481457D02*
X123833082Y-101267171D01*
X123833082Y-101267171D02*
X123761654Y-101124314D01*
X123761654Y-101124314D02*
X123690225Y-101052885D01*
X123690225Y-101052885D02*
X123547368Y-100981457D01*
X123547368Y-100981457D02*
X122975939Y-100981457D01*
D11*
X125669922Y-103630180D02*
X126003255Y-102630180D01*
X126003255Y-102630180D02*
X126336588Y-103630180D01*
X127241350Y-102725419D02*
X127193731Y-102677800D01*
X127193731Y-102677800D02*
X127050874Y-102630180D01*
X127050874Y-102630180D02*
X126955636Y-102630180D01*
X126955636Y-102630180D02*
X126812779Y-102677800D01*
X126812779Y-102677800D02*
X126717541Y-102773038D01*
X126717541Y-102773038D02*
X126669922Y-102868276D01*
X126669922Y-102868276D02*
X126622303Y-103058752D01*
X126622303Y-103058752D02*
X126622303Y-103201609D01*
X126622303Y-103201609D02*
X126669922Y-103392085D01*
X126669922Y-103392085D02*
X126717541Y-103487323D01*
X126717541Y-103487323D02*
X126812779Y-103582561D01*
X126812779Y-103582561D02*
X126955636Y-103630180D01*
X126955636Y-103630180D02*
X127050874Y-103630180D01*
X127050874Y-103630180D02*
X127193731Y-103582561D01*
X127193731Y-103582561D02*
X127241350Y-103534942D01*
X128241350Y-102725419D02*
X128193731Y-102677800D01*
X128193731Y-102677800D02*
X128050874Y-102630180D01*
X128050874Y-102630180D02*
X127955636Y-102630180D01*
X127955636Y-102630180D02*
X127812779Y-102677800D01*
X127812779Y-102677800D02*
X127717541Y-102773038D01*
X127717541Y-102773038D02*
X127669922Y-102868276D01*
X127669922Y-102868276D02*
X127622303Y-103058752D01*
X127622303Y-103058752D02*
X127622303Y-103201609D01*
X127622303Y-103201609D02*
X127669922Y-103392085D01*
X127669922Y-103392085D02*
X127717541Y-103487323D01*
X127717541Y-103487323D02*
X127812779Y-103582561D01*
X127812779Y-103582561D02*
X127955636Y-103630180D01*
X127955636Y-103630180D02*
X128050874Y-103630180D01*
X128050874Y-103630180D02*
X128193731Y-103582561D01*
X128193731Y-103582561D02*
X128241350Y-103534942D01*
X131607160Y-102677800D02*
X131750017Y-102630180D01*
X131750017Y-102630180D02*
X131988112Y-102630180D01*
X131988112Y-102630180D02*
X132083350Y-102677800D01*
X132083350Y-102677800D02*
X132130969Y-102725419D01*
X132130969Y-102725419D02*
X132178588Y-102820657D01*
X132178588Y-102820657D02*
X132178588Y-102915895D01*
X132178588Y-102915895D02*
X132130969Y-103011133D01*
X132130969Y-103011133D02*
X132083350Y-103058752D01*
X132083350Y-103058752D02*
X131988112Y-103106371D01*
X131988112Y-103106371D02*
X131797636Y-103153990D01*
X131797636Y-103153990D02*
X131702398Y-103201609D01*
X131702398Y-103201609D02*
X131654779Y-103249228D01*
X131654779Y-103249228D02*
X131607160Y-103344466D01*
X131607160Y-103344466D02*
X131607160Y-103439704D01*
X131607160Y-103439704D02*
X131654779Y-103534942D01*
X131654779Y-103534942D02*
X131702398Y-103582561D01*
X131702398Y-103582561D02*
X131797636Y-103630180D01*
X131797636Y-103630180D02*
X132035731Y-103630180D01*
X132035731Y-103630180D02*
X132178588Y-103582561D01*
X132607160Y-102630180D02*
X132607160Y-103630180D01*
D12*
X113614762Y-96422047D02*
X113852857Y-95755380D01*
X113852857Y-95755380D02*
X114090952Y-96422047D01*
X114852857Y-95803000D02*
X114757619Y-95755380D01*
X114757619Y-95755380D02*
X114567143Y-95755380D01*
X114567143Y-95755380D02*
X114471905Y-95803000D01*
X114471905Y-95803000D02*
X114424286Y-95898238D01*
X114424286Y-95898238D02*
X114424286Y-96279190D01*
X114424286Y-96279190D02*
X114471905Y-96374428D01*
X114471905Y-96374428D02*
X114567143Y-96422047D01*
X114567143Y-96422047D02*
X114757619Y-96422047D01*
X114757619Y-96422047D02*
X114852857Y-96374428D01*
X114852857Y-96374428D02*
X114900476Y-96279190D01*
X114900476Y-96279190D02*
X114900476Y-96183952D01*
X114900476Y-96183952D02*
X114424286Y-96088714D01*
X115329048Y-95755380D02*
X115329048Y-96422047D01*
X115329048Y-96231571D02*
X115376667Y-96326809D01*
X115376667Y-96326809D02*
X115424286Y-96374428D01*
X115424286Y-96374428D02*
X115519524Y-96422047D01*
X115519524Y-96422047D02*
X115614762Y-96422047D01*
X115900477Y-95803000D02*
X115995715Y-95755380D01*
X115995715Y-95755380D02*
X116186191Y-95755380D01*
X116186191Y-95755380D02*
X116281429Y-95803000D01*
X116281429Y-95803000D02*
X116329048Y-95898238D01*
X116329048Y-95898238D02*
X116329048Y-95945857D01*
X116329048Y-95945857D02*
X116281429Y-96041095D01*
X116281429Y-96041095D02*
X116186191Y-96088714D01*
X116186191Y-96088714D02*
X116043334Y-96088714D01*
X116043334Y-96088714D02*
X115948096Y-96136333D01*
X115948096Y-96136333D02*
X115900477Y-96231571D01*
X115900477Y-96231571D02*
X115900477Y-96279190D01*
X115900477Y-96279190D02*
X115948096Y-96374428D01*
X115948096Y-96374428D02*
X116043334Y-96422047D01*
X116043334Y-96422047D02*
X116186191Y-96422047D01*
X116186191Y-96422047D02*
X116281429Y-96374428D01*
X116757620Y-95755380D02*
X116757620Y-96422047D01*
X116757620Y-96755380D02*
X116710001Y-96707761D01*
X116710001Y-96707761D02*
X116757620Y-96660142D01*
X116757620Y-96660142D02*
X116805239Y-96707761D01*
X116805239Y-96707761D02*
X116757620Y-96755380D01*
X116757620Y-96755380D02*
X116757620Y-96660142D01*
X117376667Y-95755380D02*
X117281429Y-95803000D01*
X117281429Y-95803000D02*
X117233810Y-95850619D01*
X117233810Y-95850619D02*
X117186191Y-95945857D01*
X117186191Y-95945857D02*
X117186191Y-96231571D01*
X117186191Y-96231571D02*
X117233810Y-96326809D01*
X117233810Y-96326809D02*
X117281429Y-96374428D01*
X117281429Y-96374428D02*
X117376667Y-96422047D01*
X117376667Y-96422047D02*
X117519524Y-96422047D01*
X117519524Y-96422047D02*
X117614762Y-96374428D01*
X117614762Y-96374428D02*
X117662381Y-96326809D01*
X117662381Y-96326809D02*
X117710000Y-96231571D01*
X117710000Y-96231571D02*
X117710000Y-95945857D01*
X117710000Y-95945857D02*
X117662381Y-95850619D01*
X117662381Y-95850619D02*
X117614762Y-95803000D01*
X117614762Y-95803000D02*
X117519524Y-95755380D01*
X117519524Y-95755380D02*
X117376667Y-95755380D01*
X118138572Y-96422047D02*
X118138572Y-95755380D01*
X118138572Y-96326809D02*
X118186191Y-96374428D01*
X118186191Y-96374428D02*
X118281429Y-96422047D01*
X118281429Y-96422047D02*
X118424286Y-96422047D01*
X118424286Y-96422047D02*
X118519524Y-96374428D01*
X118519524Y-96374428D02*
X118567143Y-96279190D01*
X118567143Y-96279190D02*
X118567143Y-95755380D01*
X120329048Y-95755380D02*
X119757620Y-95755380D01*
X120043334Y-95755380D02*
X120043334Y-96755380D01*
X120043334Y-96755380D02*
X119948096Y-96612523D01*
X119948096Y-96612523D02*
X119852858Y-96517285D01*
X119852858Y-96517285D02*
X119757620Y-96469666D01*
X120757620Y-95850619D02*
X120805239Y-95803000D01*
X120805239Y-95803000D02*
X120757620Y-95755380D01*
X120757620Y-95755380D02*
X120710001Y-95803000D01*
X120710001Y-95803000D02*
X120757620Y-95850619D01*
X120757620Y-95850619D02*
X120757620Y-95755380D01*
X121662381Y-96755380D02*
X121471905Y-96755380D01*
X121471905Y-96755380D02*
X121376667Y-96707761D01*
X121376667Y-96707761D02*
X121329048Y-96660142D01*
X121329048Y-96660142D02*
X121233810Y-96517285D01*
X121233810Y-96517285D02*
X121186191Y-96326809D01*
X121186191Y-96326809D02*
X121186191Y-95945857D01*
X121186191Y-95945857D02*
X121233810Y-95850619D01*
X121233810Y-95850619D02*
X121281429Y-95803000D01*
X121281429Y-95803000D02*
X121376667Y-95755380D01*
X121376667Y-95755380D02*
X121567143Y-95755380D01*
X121567143Y-95755380D02*
X121662381Y-95803000D01*
X121662381Y-95803000D02*
X121710000Y-95850619D01*
X121710000Y-95850619D02*
X121757619Y-95945857D01*
X121757619Y-95945857D02*
X121757619Y-96183952D01*
X121757619Y-96183952D02*
X121710000Y-96279190D01*
X121710000Y-96279190D02*
X121662381Y-96326809D01*
X121662381Y-96326809D02*
X121567143Y-96374428D01*
X121567143Y-96374428D02*
X121376667Y-96374428D01*
X121376667Y-96374428D02*
X121281429Y-96326809D01*
X121281429Y-96326809D02*
X121233810Y-96279190D01*
X121233810Y-96279190D02*
X121186191Y-96183952D01*
X115995714Y-95050142D02*
X116043333Y-95097761D01*
X116043333Y-95097761D02*
X116138571Y-95145380D01*
X116138571Y-95145380D02*
X116376666Y-95145380D01*
X116376666Y-95145380D02*
X116471904Y-95097761D01*
X116471904Y-95097761D02*
X116519523Y-95050142D01*
X116519523Y-95050142D02*
X116567142Y-94954904D01*
X116567142Y-94954904D02*
X116567142Y-94859666D01*
X116567142Y-94859666D02*
X116519523Y-94716809D01*
X116519523Y-94716809D02*
X115948095Y-94145380D01*
X115948095Y-94145380D02*
X116567142Y-94145380D01*
X117186190Y-95145380D02*
X117281428Y-95145380D01*
X117281428Y-95145380D02*
X117376666Y-95097761D01*
X117376666Y-95097761D02*
X117424285Y-95050142D01*
X117424285Y-95050142D02*
X117471904Y-94954904D01*
X117471904Y-94954904D02*
X117519523Y-94764428D01*
X117519523Y-94764428D02*
X117519523Y-94526333D01*
X117519523Y-94526333D02*
X117471904Y-94335857D01*
X117471904Y-94335857D02*
X117424285Y-94240619D01*
X117424285Y-94240619D02*
X117376666Y-94193000D01*
X117376666Y-94193000D02*
X117281428Y-94145380D01*
X117281428Y-94145380D02*
X117186190Y-94145380D01*
X117186190Y-94145380D02*
X117090952Y-94193000D01*
X117090952Y-94193000D02*
X117043333Y-94240619D01*
X117043333Y-94240619D02*
X116995714Y-94335857D01*
X116995714Y-94335857D02*
X116948095Y-94526333D01*
X116948095Y-94526333D02*
X116948095Y-94764428D01*
X116948095Y-94764428D02*
X116995714Y-94954904D01*
X116995714Y-94954904D02*
X117043333Y-95050142D01*
X117043333Y-95050142D02*
X117090952Y-95097761D01*
X117090952Y-95097761D02*
X117186190Y-95145380D01*
X117900476Y-95050142D02*
X117948095Y-95097761D01*
X117948095Y-95097761D02*
X118043333Y-95145380D01*
X118043333Y-95145380D02*
X118281428Y-95145380D01*
X118281428Y-95145380D02*
X118376666Y-95097761D01*
X118376666Y-95097761D02*
X118424285Y-95050142D01*
X118424285Y-95050142D02*
X118471904Y-94954904D01*
X118471904Y-94954904D02*
X118471904Y-94859666D01*
X118471904Y-94859666D02*
X118424285Y-94716809D01*
X118424285Y-94716809D02*
X117852857Y-94145380D01*
X117852857Y-94145380D02*
X118471904Y-94145380D01*
X118805238Y-95145380D02*
X119424285Y-95145380D01*
X119424285Y-95145380D02*
X119090952Y-94764428D01*
X119090952Y-94764428D02*
X119233809Y-94764428D01*
X119233809Y-94764428D02*
X119329047Y-94716809D01*
X119329047Y-94716809D02*
X119376666Y-94669190D01*
X119376666Y-94669190D02*
X119424285Y-94573952D01*
X119424285Y-94573952D02*
X119424285Y-94335857D01*
X119424285Y-94335857D02*
X119376666Y-94240619D01*
X119376666Y-94240619D02*
X119329047Y-94193000D01*
X119329047Y-94193000D02*
X119233809Y-94145380D01*
X119233809Y-94145380D02*
X118948095Y-94145380D01*
X118948095Y-94145380D02*
X118852857Y-94193000D01*
X118852857Y-94193000D02*
X118805238Y-94240619D01*
D11*
X128813160Y-102677800D02*
X128956017Y-102630180D01*
X128956017Y-102630180D02*
X129194112Y-102630180D01*
X129194112Y-102630180D02*
X129289350Y-102677800D01*
X129289350Y-102677800D02*
X129336969Y-102725419D01*
X129336969Y-102725419D02*
X129384588Y-102820657D01*
X129384588Y-102820657D02*
X129384588Y-102915895D01*
X129384588Y-102915895D02*
X129336969Y-103011133D01*
X129336969Y-103011133D02*
X129289350Y-103058752D01*
X129289350Y-103058752D02*
X129194112Y-103106371D01*
X129194112Y-103106371D02*
X129003636Y-103153990D01*
X129003636Y-103153990D02*
X128908398Y-103201609D01*
X128908398Y-103201609D02*
X128860779Y-103249228D01*
X128860779Y-103249228D02*
X128813160Y-103344466D01*
X128813160Y-103344466D02*
X128813160Y-103439704D01*
X128813160Y-103439704D02*
X128860779Y-103534942D01*
X128860779Y-103534942D02*
X128908398Y-103582561D01*
X128908398Y-103582561D02*
X129003636Y-103630180D01*
X129003636Y-103630180D02*
X129241731Y-103630180D01*
X129241731Y-103630180D02*
X129384588Y-103582561D01*
X130003636Y-103630180D02*
X130194112Y-103630180D01*
X130194112Y-103630180D02*
X130289350Y-103582561D01*
X130289350Y-103582561D02*
X130384588Y-103487323D01*
X130384588Y-103487323D02*
X130432207Y-103296847D01*
X130432207Y-103296847D02*
X130432207Y-102963514D01*
X130432207Y-102963514D02*
X130384588Y-102773038D01*
X130384588Y-102773038D02*
X130289350Y-102677800D01*
X130289350Y-102677800D02*
X130194112Y-102630180D01*
X130194112Y-102630180D02*
X130003636Y-102630180D01*
X130003636Y-102630180D02*
X129908398Y-102677800D01*
X129908398Y-102677800D02*
X129813160Y-102773038D01*
X129813160Y-102773038D02*
X129765541Y-102963514D01*
X129765541Y-102963514D02*
X129765541Y-103296847D01*
X129765541Y-103296847D02*
X129813160Y-103487323D01*
X129813160Y-103487323D02*
X129908398Y-103582561D01*
X129908398Y-103582561D02*
X130003636Y-103630180D01*
D12*
X97336377Y-98619761D02*
X97241139Y-98667380D01*
X97241139Y-98667380D02*
X97098282Y-98667380D01*
X97098282Y-98667380D02*
X96955425Y-98619761D01*
X96955425Y-98619761D02*
X96860187Y-98524523D01*
X96860187Y-98524523D02*
X96812568Y-98429285D01*
X96812568Y-98429285D02*
X96764949Y-98238809D01*
X96764949Y-98238809D02*
X96764949Y-98095952D01*
X96764949Y-98095952D02*
X96812568Y-97905476D01*
X96812568Y-97905476D02*
X96860187Y-97810238D01*
X96860187Y-97810238D02*
X96955425Y-97715000D01*
X96955425Y-97715000D02*
X97098282Y-97667380D01*
X97098282Y-97667380D02*
X97193520Y-97667380D01*
X97193520Y-97667380D02*
X97336377Y-97715000D01*
X97336377Y-97715000D02*
X97383996Y-97762619D01*
X97383996Y-97762619D02*
X97383996Y-98095952D01*
X97383996Y-98095952D02*
X97193520Y-98095952D01*
X97812568Y-97667380D02*
X97812568Y-98667380D01*
X97812568Y-98667380D02*
X98193520Y-98667380D01*
X98193520Y-98667380D02*
X98288758Y-98619761D01*
X98288758Y-98619761D02*
X98336377Y-98572142D01*
X98336377Y-98572142D02*
X98383996Y-98476904D01*
X98383996Y-98476904D02*
X98383996Y-98334047D01*
X98383996Y-98334047D02*
X98336377Y-98238809D01*
X98336377Y-98238809D02*
X98288758Y-98191190D01*
X98288758Y-98191190D02*
X98193520Y-98143571D01*
X98193520Y-98143571D02*
X97812568Y-98143571D01*
X99003044Y-98667380D02*
X99098282Y-98667380D01*
X99098282Y-98667380D02*
X99193520Y-98619761D01*
X99193520Y-98619761D02*
X99241139Y-98572142D01*
X99241139Y-98572142D02*
X99288758Y-98476904D01*
X99288758Y-98476904D02*
X99336377Y-98286428D01*
X99336377Y-98286428D02*
X99336377Y-98048333D01*
X99336377Y-98048333D02*
X99288758Y-97857857D01*
X99288758Y-97857857D02*
X99241139Y-97762619D01*
X99241139Y-97762619D02*
X99193520Y-97715000D01*
X99193520Y-97715000D02*
X99098282Y-97667380D01*
X99098282Y-97667380D02*
X99003044Y-97667380D01*
X99003044Y-97667380D02*
X98907806Y-97715000D01*
X98907806Y-97715000D02*
X98860187Y-97762619D01*
X98860187Y-97762619D02*
X98812568Y-97857857D01*
X98812568Y-97857857D02*
X98764949Y-98048333D01*
X98764949Y-98048333D02*
X98764949Y-98286428D01*
X98764949Y-98286428D02*
X98812568Y-98476904D01*
X98812568Y-98476904D02*
X98860187Y-98572142D01*
X98860187Y-98572142D02*
X98907806Y-98619761D01*
X98907806Y-98619761D02*
X99003044Y-98667380D01*
X101288759Y-98334047D02*
X100526854Y-98048333D01*
X100526854Y-98048333D02*
X101288759Y-97762619D01*
X101764949Y-98048333D02*
X102526854Y-98048333D01*
X103003044Y-98334047D02*
X103764949Y-98048333D01*
X103764949Y-98048333D02*
X103003044Y-97762619D01*
X104955425Y-97715000D02*
X105098282Y-97667380D01*
X105098282Y-97667380D02*
X105336377Y-97667380D01*
X105336377Y-97667380D02*
X105431615Y-97715000D01*
X105431615Y-97715000D02*
X105479234Y-97762619D01*
X105479234Y-97762619D02*
X105526853Y-97857857D01*
X105526853Y-97857857D02*
X105526853Y-97953095D01*
X105526853Y-97953095D02*
X105479234Y-98048333D01*
X105479234Y-98048333D02*
X105431615Y-98095952D01*
X105431615Y-98095952D02*
X105336377Y-98143571D01*
X105336377Y-98143571D02*
X105145901Y-98191190D01*
X105145901Y-98191190D02*
X105050663Y-98238809D01*
X105050663Y-98238809D02*
X105003044Y-98286428D01*
X105003044Y-98286428D02*
X104955425Y-98381666D01*
X104955425Y-98381666D02*
X104955425Y-98476904D01*
X104955425Y-98476904D02*
X105003044Y-98572142D01*
X105003044Y-98572142D02*
X105050663Y-98619761D01*
X105050663Y-98619761D02*
X105145901Y-98667380D01*
X105145901Y-98667380D02*
X105383996Y-98667380D01*
X105383996Y-98667380D02*
X105526853Y-98619761D01*
X106526853Y-97762619D02*
X106479234Y-97715000D01*
X106479234Y-97715000D02*
X106336377Y-97667380D01*
X106336377Y-97667380D02*
X106241139Y-97667380D01*
X106241139Y-97667380D02*
X106098282Y-97715000D01*
X106098282Y-97715000D02*
X106003044Y-97810238D01*
X106003044Y-97810238D02*
X105955425Y-97905476D01*
X105955425Y-97905476D02*
X105907806Y-98095952D01*
X105907806Y-98095952D02*
X105907806Y-98238809D01*
X105907806Y-98238809D02*
X105955425Y-98429285D01*
X105955425Y-98429285D02*
X106003044Y-98524523D01*
X106003044Y-98524523D02*
X106098282Y-98619761D01*
X106098282Y-98619761D02*
X106241139Y-98667380D01*
X106241139Y-98667380D02*
X106336377Y-98667380D01*
X106336377Y-98667380D02*
X106479234Y-98619761D01*
X106479234Y-98619761D02*
X106526853Y-98572142D01*
X97336377Y-97009761D02*
X97241139Y-97057380D01*
X97241139Y-97057380D02*
X97098282Y-97057380D01*
X97098282Y-97057380D02*
X96955425Y-97009761D01*
X96955425Y-97009761D02*
X96860187Y-96914523D01*
X96860187Y-96914523D02*
X96812568Y-96819285D01*
X96812568Y-96819285D02*
X96764949Y-96628809D01*
X96764949Y-96628809D02*
X96764949Y-96485952D01*
X96764949Y-96485952D02*
X96812568Y-96295476D01*
X96812568Y-96295476D02*
X96860187Y-96200238D01*
X96860187Y-96200238D02*
X96955425Y-96105000D01*
X96955425Y-96105000D02*
X97098282Y-96057380D01*
X97098282Y-96057380D02*
X97193520Y-96057380D01*
X97193520Y-96057380D02*
X97336377Y-96105000D01*
X97336377Y-96105000D02*
X97383996Y-96152619D01*
X97383996Y-96152619D02*
X97383996Y-96485952D01*
X97383996Y-96485952D02*
X97193520Y-96485952D01*
X97812568Y-96057380D02*
X97812568Y-97057380D01*
X97812568Y-97057380D02*
X98193520Y-97057380D01*
X98193520Y-97057380D02*
X98288758Y-97009761D01*
X98288758Y-97009761D02*
X98336377Y-96962142D01*
X98336377Y-96962142D02*
X98383996Y-96866904D01*
X98383996Y-96866904D02*
X98383996Y-96724047D01*
X98383996Y-96724047D02*
X98336377Y-96628809D01*
X98336377Y-96628809D02*
X98288758Y-96581190D01*
X98288758Y-96581190D02*
X98193520Y-96533571D01*
X98193520Y-96533571D02*
X97812568Y-96533571D01*
X99336377Y-96057380D02*
X98764949Y-96057380D01*
X99050663Y-96057380D02*
X99050663Y-97057380D01*
X99050663Y-97057380D02*
X98955425Y-96914523D01*
X98955425Y-96914523D02*
X98860187Y-96819285D01*
X98860187Y-96819285D02*
X98764949Y-96771666D01*
X101288759Y-96724047D02*
X100526854Y-96438333D01*
X100526854Y-96438333D02*
X101288759Y-96152619D01*
X101764949Y-96438333D02*
X102526854Y-96438333D01*
X103003044Y-96724047D02*
X103764949Y-96438333D01*
X103764949Y-96438333D02*
X103003044Y-96152619D01*
X104955425Y-96105000D02*
X105098282Y-96057380D01*
X105098282Y-96057380D02*
X105336377Y-96057380D01*
X105336377Y-96057380D02*
X105431615Y-96105000D01*
X105431615Y-96105000D02*
X105479234Y-96152619D01*
X105479234Y-96152619D02*
X105526853Y-96247857D01*
X105526853Y-96247857D02*
X105526853Y-96343095D01*
X105526853Y-96343095D02*
X105479234Y-96438333D01*
X105479234Y-96438333D02*
X105431615Y-96485952D01*
X105431615Y-96485952D02*
X105336377Y-96533571D01*
X105336377Y-96533571D02*
X105145901Y-96581190D01*
X105145901Y-96581190D02*
X105050663Y-96628809D01*
X105050663Y-96628809D02*
X105003044Y-96676428D01*
X105003044Y-96676428D02*
X104955425Y-96771666D01*
X104955425Y-96771666D02*
X104955425Y-96866904D01*
X104955425Y-96866904D02*
X105003044Y-96962142D01*
X105003044Y-96962142D02*
X105050663Y-97009761D01*
X105050663Y-97009761D02*
X105145901Y-97057380D01*
X105145901Y-97057380D02*
X105383996Y-97057380D01*
X105383996Y-97057380D02*
X105526853Y-97009761D01*
X105955425Y-96057380D02*
X105955425Y-97057380D01*
X97336377Y-95399761D02*
X97241139Y-95447380D01*
X97241139Y-95447380D02*
X97098282Y-95447380D01*
X97098282Y-95447380D02*
X96955425Y-95399761D01*
X96955425Y-95399761D02*
X96860187Y-95304523D01*
X96860187Y-95304523D02*
X96812568Y-95209285D01*
X96812568Y-95209285D02*
X96764949Y-95018809D01*
X96764949Y-95018809D02*
X96764949Y-94875952D01*
X96764949Y-94875952D02*
X96812568Y-94685476D01*
X96812568Y-94685476D02*
X96860187Y-94590238D01*
X96860187Y-94590238D02*
X96955425Y-94495000D01*
X96955425Y-94495000D02*
X97098282Y-94447380D01*
X97098282Y-94447380D02*
X97193520Y-94447380D01*
X97193520Y-94447380D02*
X97336377Y-94495000D01*
X97336377Y-94495000D02*
X97383996Y-94542619D01*
X97383996Y-94542619D02*
X97383996Y-94875952D01*
X97383996Y-94875952D02*
X97193520Y-94875952D01*
X97812568Y-94447380D02*
X97812568Y-95447380D01*
X97812568Y-95447380D02*
X98193520Y-95447380D01*
X98193520Y-95447380D02*
X98288758Y-95399761D01*
X98288758Y-95399761D02*
X98336377Y-95352142D01*
X98336377Y-95352142D02*
X98383996Y-95256904D01*
X98383996Y-95256904D02*
X98383996Y-95114047D01*
X98383996Y-95114047D02*
X98336377Y-95018809D01*
X98336377Y-95018809D02*
X98288758Y-94971190D01*
X98288758Y-94971190D02*
X98193520Y-94923571D01*
X98193520Y-94923571D02*
X97812568Y-94923571D01*
X98764949Y-95352142D02*
X98812568Y-95399761D01*
X98812568Y-95399761D02*
X98907806Y-95447380D01*
X98907806Y-95447380D02*
X99145901Y-95447380D01*
X99145901Y-95447380D02*
X99241139Y-95399761D01*
X99241139Y-95399761D02*
X99288758Y-95352142D01*
X99288758Y-95352142D02*
X99336377Y-95256904D01*
X99336377Y-95256904D02*
X99336377Y-95161666D01*
X99336377Y-95161666D02*
X99288758Y-95018809D01*
X99288758Y-95018809D02*
X98717330Y-94447380D01*
X98717330Y-94447380D02*
X99336377Y-94447380D01*
X101288759Y-95114047D02*
X100526854Y-94828333D01*
X100526854Y-94828333D02*
X101288759Y-94542619D01*
X101764949Y-94828333D02*
X102526854Y-94828333D01*
X103003044Y-95114047D02*
X103764949Y-94828333D01*
X103764949Y-94828333D02*
X103003044Y-94542619D01*
X104955425Y-94495000D02*
X105098282Y-94447380D01*
X105098282Y-94447380D02*
X105336377Y-94447380D01*
X105336377Y-94447380D02*
X105431615Y-94495000D01*
X105431615Y-94495000D02*
X105479234Y-94542619D01*
X105479234Y-94542619D02*
X105526853Y-94637857D01*
X105526853Y-94637857D02*
X105526853Y-94733095D01*
X105526853Y-94733095D02*
X105479234Y-94828333D01*
X105479234Y-94828333D02*
X105431615Y-94875952D01*
X105431615Y-94875952D02*
X105336377Y-94923571D01*
X105336377Y-94923571D02*
X105145901Y-94971190D01*
X105145901Y-94971190D02*
X105050663Y-95018809D01*
X105050663Y-95018809D02*
X105003044Y-95066428D01*
X105003044Y-95066428D02*
X104955425Y-95161666D01*
X104955425Y-95161666D02*
X104955425Y-95256904D01*
X104955425Y-95256904D02*
X105003044Y-95352142D01*
X105003044Y-95352142D02*
X105050663Y-95399761D01*
X105050663Y-95399761D02*
X105145901Y-95447380D01*
X105145901Y-95447380D02*
X105383996Y-95447380D01*
X105383996Y-95447380D02*
X105526853Y-95399761D01*
X106145901Y-95447380D02*
X106336377Y-95447380D01*
X106336377Y-95447380D02*
X106431615Y-95399761D01*
X106431615Y-95399761D02*
X106526853Y-95304523D01*
X106526853Y-95304523D02*
X106574472Y-95114047D01*
X106574472Y-95114047D02*
X106574472Y-94780714D01*
X106574472Y-94780714D02*
X106526853Y-94590238D01*
X106526853Y-94590238D02*
X106431615Y-94495000D01*
X106431615Y-94495000D02*
X106336377Y-94447380D01*
X106336377Y-94447380D02*
X106145901Y-94447380D01*
X106145901Y-94447380D02*
X106050663Y-94495000D01*
X106050663Y-94495000D02*
X105955425Y-94590238D01*
X105955425Y-94590238D02*
X105907806Y-94780714D01*
X105907806Y-94780714D02*
X105907806Y-95114047D01*
X105907806Y-95114047D02*
X105955425Y-95304523D01*
X105955425Y-95304523D02*
X106050663Y-95399761D01*
X106050663Y-95399761D02*
X106145901Y-95447380D01*
X97336377Y-93789761D02*
X97241139Y-93837380D01*
X97241139Y-93837380D02*
X97098282Y-93837380D01*
X97098282Y-93837380D02*
X96955425Y-93789761D01*
X96955425Y-93789761D02*
X96860187Y-93694523D01*
X96860187Y-93694523D02*
X96812568Y-93599285D01*
X96812568Y-93599285D02*
X96764949Y-93408809D01*
X96764949Y-93408809D02*
X96764949Y-93265952D01*
X96764949Y-93265952D02*
X96812568Y-93075476D01*
X96812568Y-93075476D02*
X96860187Y-92980238D01*
X96860187Y-92980238D02*
X96955425Y-92885000D01*
X96955425Y-92885000D02*
X97098282Y-92837380D01*
X97098282Y-92837380D02*
X97193520Y-92837380D01*
X97193520Y-92837380D02*
X97336377Y-92885000D01*
X97336377Y-92885000D02*
X97383996Y-92932619D01*
X97383996Y-92932619D02*
X97383996Y-93265952D01*
X97383996Y-93265952D02*
X97193520Y-93265952D01*
X97812568Y-92837380D02*
X97812568Y-93837380D01*
X97812568Y-93837380D02*
X98193520Y-93837380D01*
X98193520Y-93837380D02*
X98288758Y-93789761D01*
X98288758Y-93789761D02*
X98336377Y-93742142D01*
X98336377Y-93742142D02*
X98383996Y-93646904D01*
X98383996Y-93646904D02*
X98383996Y-93504047D01*
X98383996Y-93504047D02*
X98336377Y-93408809D01*
X98336377Y-93408809D02*
X98288758Y-93361190D01*
X98288758Y-93361190D02*
X98193520Y-93313571D01*
X98193520Y-93313571D02*
X97812568Y-93313571D01*
X98717330Y-93837380D02*
X99336377Y-93837380D01*
X99336377Y-93837380D02*
X99003044Y-93456428D01*
X99003044Y-93456428D02*
X99145901Y-93456428D01*
X99145901Y-93456428D02*
X99241139Y-93408809D01*
X99241139Y-93408809D02*
X99288758Y-93361190D01*
X99288758Y-93361190D02*
X99336377Y-93265952D01*
X99336377Y-93265952D02*
X99336377Y-93027857D01*
X99336377Y-93027857D02*
X99288758Y-92932619D01*
X99288758Y-92932619D02*
X99241139Y-92885000D01*
X99241139Y-92885000D02*
X99145901Y-92837380D01*
X99145901Y-92837380D02*
X98860187Y-92837380D01*
X98860187Y-92837380D02*
X98764949Y-92885000D01*
X98764949Y-92885000D02*
X98717330Y-92932619D01*
X101288759Y-93504047D02*
X100526854Y-93218333D01*
X100526854Y-93218333D02*
X101288759Y-92932619D01*
X101764949Y-93218333D02*
X102526854Y-93218333D01*
X103003044Y-93504047D02*
X103764949Y-93218333D01*
X103764949Y-93218333D02*
X103003044Y-92932619D01*
X104955425Y-92885000D02*
X105098282Y-92837380D01*
X105098282Y-92837380D02*
X105336377Y-92837380D01*
X105336377Y-92837380D02*
X105431615Y-92885000D01*
X105431615Y-92885000D02*
X105479234Y-92932619D01*
X105479234Y-92932619D02*
X105526853Y-93027857D01*
X105526853Y-93027857D02*
X105526853Y-93123095D01*
X105526853Y-93123095D02*
X105479234Y-93218333D01*
X105479234Y-93218333D02*
X105431615Y-93265952D01*
X105431615Y-93265952D02*
X105336377Y-93313571D01*
X105336377Y-93313571D02*
X105145901Y-93361190D01*
X105145901Y-93361190D02*
X105050663Y-93408809D01*
X105050663Y-93408809D02*
X105003044Y-93456428D01*
X105003044Y-93456428D02*
X104955425Y-93551666D01*
X104955425Y-93551666D02*
X104955425Y-93646904D01*
X104955425Y-93646904D02*
X105003044Y-93742142D01*
X105003044Y-93742142D02*
X105050663Y-93789761D01*
X105050663Y-93789761D02*
X105145901Y-93837380D01*
X105145901Y-93837380D02*
X105383996Y-93837380D01*
X105383996Y-93837380D02*
X105526853Y-93789761D01*
X105955425Y-92837380D02*
X105955425Y-93837380D01*
X105955425Y-93837380D02*
X106193520Y-93837380D01*
X106193520Y-93837380D02*
X106336377Y-93789761D01*
X106336377Y-93789761D02*
X106431615Y-93694523D01*
X106431615Y-93694523D02*
X106479234Y-93599285D01*
X106479234Y-93599285D02*
X106526853Y-93408809D01*
X106526853Y-93408809D02*
X106526853Y-93265952D01*
X106526853Y-93265952D02*
X106479234Y-93075476D01*
X106479234Y-93075476D02*
X106431615Y-92980238D01*
X106431615Y-92980238D02*
X106336377Y-92885000D01*
X106336377Y-92885000D02*
X106193520Y-92837380D01*
X106193520Y-92837380D02*
X105955425Y-92837380D01*
D11*
X133893160Y-102677800D02*
X134036017Y-102630180D01*
X134036017Y-102630180D02*
X134274112Y-102630180D01*
X134274112Y-102630180D02*
X134369350Y-102677800D01*
X134369350Y-102677800D02*
X134416969Y-102725419D01*
X134416969Y-102725419D02*
X134464588Y-102820657D01*
X134464588Y-102820657D02*
X134464588Y-102915895D01*
X134464588Y-102915895D02*
X134416969Y-103011133D01*
X134416969Y-103011133D02*
X134369350Y-103058752D01*
X134369350Y-103058752D02*
X134274112Y-103106371D01*
X134274112Y-103106371D02*
X134083636Y-103153990D01*
X134083636Y-103153990D02*
X133988398Y-103201609D01*
X133988398Y-103201609D02*
X133940779Y-103249228D01*
X133940779Y-103249228D02*
X133893160Y-103344466D01*
X133893160Y-103344466D02*
X133893160Y-103439704D01*
X133893160Y-103439704D02*
X133940779Y-103534942D01*
X133940779Y-103534942D02*
X133988398Y-103582561D01*
X133988398Y-103582561D02*
X134083636Y-103630180D01*
X134083636Y-103630180D02*
X134321731Y-103630180D01*
X134321731Y-103630180D02*
X134464588Y-103582561D01*
X134893160Y-102630180D02*
X134893160Y-103630180D01*
X134893160Y-103630180D02*
X135131255Y-103630180D01*
X135131255Y-103630180D02*
X135274112Y-103582561D01*
X135274112Y-103582561D02*
X135369350Y-103487323D01*
X135369350Y-103487323D02*
X135416969Y-103392085D01*
X135416969Y-103392085D02*
X135464588Y-103201609D01*
X135464588Y-103201609D02*
X135464588Y-103058752D01*
X135464588Y-103058752D02*
X135416969Y-102868276D01*
X135416969Y-102868276D02*
X135369350Y-102773038D01*
X135369350Y-102773038D02*
X135274112Y-102677800D01*
X135274112Y-102677800D02*
X135131255Y-102630180D01*
X135131255Y-102630180D02*
X134893160Y-102630180D01*
D10*
X94497368Y-89853171D02*
X94497368Y-90638885D01*
X94497368Y-90638885D02*
X94425939Y-90781742D01*
X94425939Y-90781742D02*
X94283082Y-90853171D01*
X94283082Y-90853171D02*
X93997368Y-90853171D01*
X93997368Y-90853171D02*
X93854510Y-90781742D01*
X94497368Y-89924600D02*
X94354510Y-89853171D01*
X94354510Y-89853171D02*
X93997368Y-89853171D01*
X93997368Y-89853171D02*
X93854510Y-89924600D01*
X93854510Y-89924600D02*
X93783082Y-90067457D01*
X93783082Y-90067457D02*
X93783082Y-90210314D01*
X93783082Y-90210314D02*
X93854510Y-90353171D01*
X93854510Y-90353171D02*
X93997368Y-90424600D01*
X93997368Y-90424600D02*
X94354510Y-90424600D01*
X94354510Y-90424600D02*
X94497368Y-90496028D01*
X95854511Y-90853171D02*
X95854511Y-89638885D01*
X95854511Y-89638885D02*
X95783082Y-89496028D01*
X95783082Y-89496028D02*
X95711653Y-89424600D01*
X95711653Y-89424600D02*
X95568796Y-89353171D01*
X95568796Y-89353171D02*
X95354511Y-89353171D01*
X95354511Y-89353171D02*
X95211653Y-89424600D01*
X95854511Y-89924600D02*
X95711653Y-89853171D01*
X95711653Y-89853171D02*
X95425939Y-89853171D01*
X95425939Y-89853171D02*
X95283082Y-89924600D01*
X95283082Y-89924600D02*
X95211653Y-89996028D01*
X95211653Y-89996028D02*
X95140225Y-90138885D01*
X95140225Y-90138885D02*
X95140225Y-90567457D01*
X95140225Y-90567457D02*
X95211653Y-90710314D01*
X95211653Y-90710314D02*
X95283082Y-90781742D01*
X95283082Y-90781742D02*
X95425939Y-90853171D01*
X95425939Y-90853171D02*
X95711653Y-90853171D01*
X95711653Y-90853171D02*
X95854511Y-90781742D01*
X96354511Y-90853171D02*
X96925939Y-90853171D01*
X96568796Y-91353171D02*
X96568796Y-90067457D01*
X96568796Y-90067457D02*
X96640225Y-89924600D01*
X96640225Y-89924600D02*
X96783082Y-89853171D01*
X96783082Y-89853171D02*
X96925939Y-89853171D01*
X97425939Y-89853171D02*
X97425939Y-91353171D01*
X97425939Y-90781742D02*
X97568797Y-90853171D01*
X97568797Y-90853171D02*
X97854511Y-90853171D01*
X97854511Y-90853171D02*
X97997368Y-90781742D01*
X97997368Y-90781742D02*
X98068797Y-90710314D01*
X98068797Y-90710314D02*
X98140225Y-90567457D01*
X98140225Y-90567457D02*
X98140225Y-90138885D01*
X98140225Y-90138885D02*
X98068797Y-89996028D01*
X98068797Y-89996028D02*
X97997368Y-89924600D01*
X97997368Y-89924600D02*
X97854511Y-89853171D01*
X97854511Y-89853171D02*
X97568797Y-89853171D01*
X97568797Y-89853171D02*
X97425939Y-89924600D01*
X99425940Y-89853171D02*
X99425940Y-90638885D01*
X99425940Y-90638885D02*
X99354511Y-90781742D01*
X99354511Y-90781742D02*
X99211654Y-90853171D01*
X99211654Y-90853171D02*
X98925940Y-90853171D01*
X98925940Y-90853171D02*
X98783082Y-90781742D01*
X99425940Y-89924600D02*
X99283082Y-89853171D01*
X99283082Y-89853171D02*
X98925940Y-89853171D01*
X98925940Y-89853171D02*
X98783082Y-89924600D01*
X98783082Y-89924600D02*
X98711654Y-90067457D01*
X98711654Y-90067457D02*
X98711654Y-90210314D01*
X98711654Y-90210314D02*
X98783082Y-90353171D01*
X98783082Y-90353171D02*
X98925940Y-90424600D01*
X98925940Y-90424600D02*
X99283082Y-90424600D01*
X99283082Y-90424600D02*
X99425940Y-90496028D01*
X100068797Y-89924600D02*
X100211654Y-89853171D01*
X100211654Y-89853171D02*
X100497368Y-89853171D01*
X100497368Y-89853171D02*
X100640225Y-89924600D01*
X100640225Y-89924600D02*
X100711654Y-90067457D01*
X100711654Y-90067457D02*
X100711654Y-90138885D01*
X100711654Y-90138885D02*
X100640225Y-90281742D01*
X100640225Y-90281742D02*
X100497368Y-90353171D01*
X100497368Y-90353171D02*
X100283083Y-90353171D01*
X100283083Y-90353171D02*
X100140225Y-90424600D01*
X100140225Y-90424600D02*
X100068797Y-90567457D01*
X100068797Y-90567457D02*
X100068797Y-90638885D01*
X100068797Y-90638885D02*
X100140225Y-90781742D01*
X100140225Y-90781742D02*
X100283083Y-90853171D01*
X100283083Y-90853171D02*
X100497368Y-90853171D01*
X100497368Y-90853171D02*
X100640225Y-90781742D01*
X101354511Y-89853171D02*
X101354511Y-91353171D01*
X101497369Y-90424600D02*
X101925940Y-89853171D01*
X101925940Y-90853171D02*
X101354511Y-90281742D01*
X103211655Y-89853171D02*
X103211655Y-90638885D01*
X103211655Y-90638885D02*
X103140226Y-90781742D01*
X103140226Y-90781742D02*
X102997369Y-90853171D01*
X102997369Y-90853171D02*
X102711655Y-90853171D01*
X102711655Y-90853171D02*
X102568797Y-90781742D01*
X103211655Y-89924600D02*
X103068797Y-89853171D01*
X103068797Y-89853171D02*
X102711655Y-89853171D01*
X102711655Y-89853171D02*
X102568797Y-89924600D01*
X102568797Y-89924600D02*
X102497369Y-90067457D01*
X102497369Y-90067457D02*
X102497369Y-90210314D01*
X102497369Y-90210314D02*
X102568797Y-90353171D01*
X102568797Y-90353171D02*
X102711655Y-90424600D01*
X102711655Y-90424600D02*
X103068797Y-90424600D01*
X103068797Y-90424600D02*
X103211655Y-90496028D01*
X103925940Y-89853171D02*
X103925940Y-90853171D01*
X103925940Y-90567457D02*
X103997369Y-90710314D01*
X103997369Y-90710314D02*
X104068798Y-90781742D01*
X104068798Y-90781742D02*
X104211655Y-90853171D01*
X104211655Y-90853171D02*
X104354512Y-90853171D01*
X105497369Y-89853171D02*
X105497369Y-90638885D01*
X105497369Y-90638885D02*
X105425940Y-90781742D01*
X105425940Y-90781742D02*
X105283083Y-90853171D01*
X105283083Y-90853171D02*
X104997369Y-90853171D01*
X104997369Y-90853171D02*
X104854511Y-90781742D01*
X105497369Y-89924600D02*
X105354511Y-89853171D01*
X105354511Y-89853171D02*
X104997369Y-89853171D01*
X104997369Y-89853171D02*
X104854511Y-89924600D01*
X104854511Y-89924600D02*
X104783083Y-90067457D01*
X104783083Y-90067457D02*
X104783083Y-90210314D01*
X104783083Y-90210314D02*
X104854511Y-90353171D01*
X104854511Y-90353171D02*
X104997369Y-90424600D01*
X104997369Y-90424600D02*
X105354511Y-90424600D01*
X105354511Y-90424600D02*
X105497369Y-90496028D01*
X106211654Y-89996028D02*
X106283083Y-89924600D01*
X106283083Y-89924600D02*
X106211654Y-89853171D01*
X106211654Y-89853171D02*
X106140226Y-89924600D01*
X106140226Y-89924600D02*
X106211654Y-89996028D01*
X106211654Y-89996028D02*
X106211654Y-89853171D01*
X107568798Y-89924600D02*
X107425940Y-89853171D01*
X107425940Y-89853171D02*
X107140226Y-89853171D01*
X107140226Y-89853171D02*
X106997369Y-89924600D01*
X106997369Y-89924600D02*
X106925940Y-89996028D01*
X106925940Y-89996028D02*
X106854512Y-90138885D01*
X106854512Y-90138885D02*
X106854512Y-90567457D01*
X106854512Y-90567457D02*
X106925940Y-90710314D01*
X106925940Y-90710314D02*
X106997369Y-90781742D01*
X106997369Y-90781742D02*
X107140226Y-90853171D01*
X107140226Y-90853171D02*
X107425940Y-90853171D01*
X107425940Y-90853171D02*
X107568798Y-90781742D01*
X108425940Y-89853171D02*
X108283083Y-89924600D01*
X108283083Y-89924600D02*
X108211654Y-89996028D01*
X108211654Y-89996028D02*
X108140226Y-90138885D01*
X108140226Y-90138885D02*
X108140226Y-90567457D01*
X108140226Y-90567457D02*
X108211654Y-90710314D01*
X108211654Y-90710314D02*
X108283083Y-90781742D01*
X108283083Y-90781742D02*
X108425940Y-90853171D01*
X108425940Y-90853171D02*
X108640226Y-90853171D01*
X108640226Y-90853171D02*
X108783083Y-90781742D01*
X108783083Y-90781742D02*
X108854512Y-90710314D01*
X108854512Y-90710314D02*
X108925940Y-90567457D01*
X108925940Y-90567457D02*
X108925940Y-90138885D01*
X108925940Y-90138885D02*
X108854512Y-89996028D01*
X108854512Y-89996028D02*
X108783083Y-89924600D01*
X108783083Y-89924600D02*
X108640226Y-89853171D01*
X108640226Y-89853171D02*
X108425940Y-89853171D01*
X109568797Y-89853171D02*
X109568797Y-90853171D01*
X109568797Y-90710314D02*
X109640226Y-90781742D01*
X109640226Y-90781742D02*
X109783083Y-90853171D01*
X109783083Y-90853171D02*
X109997369Y-90853171D01*
X109997369Y-90853171D02*
X110140226Y-90781742D01*
X110140226Y-90781742D02*
X110211655Y-90638885D01*
X110211655Y-90638885D02*
X110211655Y-89853171D01*
X110211655Y-90638885D02*
X110283083Y-90781742D01*
X110283083Y-90781742D02*
X110425940Y-90853171D01*
X110425940Y-90853171D02*
X110640226Y-90853171D01*
X110640226Y-90853171D02*
X110783083Y-90781742D01*
X110783083Y-90781742D02*
X110854512Y-90638885D01*
X110854512Y-90638885D02*
X110854512Y-89853171D01*
D11*
X139036588Y-103582561D02*
X138941350Y-103630180D01*
X138941350Y-103630180D02*
X138798493Y-103630180D01*
X138798493Y-103630180D02*
X138655636Y-103582561D01*
X138655636Y-103582561D02*
X138560398Y-103487323D01*
X138560398Y-103487323D02*
X138512779Y-103392085D01*
X138512779Y-103392085D02*
X138465160Y-103201609D01*
X138465160Y-103201609D02*
X138465160Y-103058752D01*
X138465160Y-103058752D02*
X138512779Y-102868276D01*
X138512779Y-102868276D02*
X138560398Y-102773038D01*
X138560398Y-102773038D02*
X138655636Y-102677800D01*
X138655636Y-102677800D02*
X138798493Y-102630180D01*
X138798493Y-102630180D02*
X138893731Y-102630180D01*
X138893731Y-102630180D02*
X139036588Y-102677800D01*
X139036588Y-102677800D02*
X139084207Y-102725419D01*
X139084207Y-102725419D02*
X139084207Y-103058752D01*
X139084207Y-103058752D02*
X138893731Y-103058752D01*
X139512779Y-102630180D02*
X139512779Y-103630180D01*
X139512779Y-103630180D02*
X140084207Y-102630180D01*
X140084207Y-102630180D02*
X140084207Y-103630180D01*
X140560398Y-102630180D02*
X140560398Y-103630180D01*
X140560398Y-103630180D02*
X140798493Y-103630180D01*
X140798493Y-103630180D02*
X140941350Y-103582561D01*
X140941350Y-103582561D02*
X141036588Y-103487323D01*
X141036588Y-103487323D02*
X141084207Y-103392085D01*
X141084207Y-103392085D02*
X141131826Y-103201609D01*
X141131826Y-103201609D02*
X141131826Y-103058752D01*
X141131826Y-103058752D02*
X141084207Y-102868276D01*
X141084207Y-102868276D02*
X141036588Y-102773038D01*
X141036588Y-102773038D02*
X140941350Y-102677800D01*
X140941350Y-102677800D02*
X140798493Y-102630180D01*
X140798493Y-102630180D02*
X140560398Y-102630180D01*
X136433160Y-102677800D02*
X136576017Y-102630180D01*
X136576017Y-102630180D02*
X136814112Y-102630180D01*
X136814112Y-102630180D02*
X136909350Y-102677800D01*
X136909350Y-102677800D02*
X136956969Y-102725419D01*
X136956969Y-102725419D02*
X137004588Y-102820657D01*
X137004588Y-102820657D02*
X137004588Y-102915895D01*
X137004588Y-102915895D02*
X136956969Y-103011133D01*
X136956969Y-103011133D02*
X136909350Y-103058752D01*
X136909350Y-103058752D02*
X136814112Y-103106371D01*
X136814112Y-103106371D02*
X136623636Y-103153990D01*
X136623636Y-103153990D02*
X136528398Y-103201609D01*
X136528398Y-103201609D02*
X136480779Y-103249228D01*
X136480779Y-103249228D02*
X136433160Y-103344466D01*
X136433160Y-103344466D02*
X136433160Y-103439704D01*
X136433160Y-103439704D02*
X136480779Y-103534942D01*
X136480779Y-103534942D02*
X136528398Y-103582561D01*
X136528398Y-103582561D02*
X136623636Y-103630180D01*
X136623636Y-103630180D02*
X136861731Y-103630180D01*
X136861731Y-103630180D02*
X137004588Y-103582561D01*
X138004588Y-102725419D02*
X137956969Y-102677800D01*
X137956969Y-102677800D02*
X137814112Y-102630180D01*
X137814112Y-102630180D02*
X137718874Y-102630180D01*
X137718874Y-102630180D02*
X137576017Y-102677800D01*
X137576017Y-102677800D02*
X137480779Y-102773038D01*
X137480779Y-102773038D02*
X137433160Y-102868276D01*
X137433160Y-102868276D02*
X137385541Y-103058752D01*
X137385541Y-103058752D02*
X137385541Y-103201609D01*
X137385541Y-103201609D02*
X137433160Y-103392085D01*
X137433160Y-103392085D02*
X137480779Y-103487323D01*
X137480779Y-103487323D02*
X137576017Y-103582561D01*
X137576017Y-103582561D02*
X137718874Y-103630180D01*
X137718874Y-103630180D02*
X137814112Y-103630180D01*
X137814112Y-103630180D02*
X137956969Y-103582561D01*
X137956969Y-103582561D02*
X138004588Y-103534942D01*
%LPC*%
D13*
X139670000Y-90298000D03*
D14*
X137130000Y-90298000D03*
X134590000Y-90298000D03*
X132050000Y-90298000D03*
X129510000Y-90298000D03*
X126970000Y-90298000D03*
X139670000Y-100458000D03*
X137130000Y-100458000D03*
X134590000Y-100458000D03*
X132050000Y-100458000D03*
X129510000Y-100458000D03*
X126970000Y-100458000D03*
D13*
X135890000Y-85852000D03*
D15*
X133350000Y-85852000D03*
X130810000Y-85852000D03*
D13*
X127000000Y-105664000D03*
D15*
X129540000Y-105664000D03*
X132080000Y-105664000D03*
X134620000Y-105664000D03*
X137160000Y-105664000D03*
X139700000Y-105664000D03*
D16*
X73030000Y-98610000D03*
D17*
X76060000Y-98310000D03*
X76060000Y-93460000D03*
D16*
X73030000Y-93160000D03*
D15*
X72900000Y-104775000D03*
X75440000Y-104775000D03*
D13*
X77980000Y-104775000D03*
D15*
X80520000Y-104775000D03*
X83060000Y-104775000D03*
X85600000Y-104775000D03*
X88140000Y-104775000D03*
D13*
X90680000Y-104775000D03*
D15*
X93220000Y-104775000D03*
X95760000Y-104775000D03*
X98300000Y-104775000D03*
X100840000Y-104775000D03*
D13*
X103380000Y-104775000D03*
D15*
X105920000Y-104775000D03*
X108460000Y-104775000D03*
X111000000Y-104775000D03*
X113540000Y-104775000D03*
D13*
X116080000Y-104775000D03*
D15*
X118620000Y-104775000D03*
X121160000Y-104775000D03*
X121160000Y-86995000D03*
X118620000Y-86995000D03*
D13*
X116080000Y-86995000D03*
D15*
X113540000Y-86995000D03*
X111000000Y-86995000D03*
X108460000Y-86995000D03*
X105920000Y-86995000D03*
D13*
X103380000Y-86995000D03*
D15*
X100840000Y-86995000D03*
X98300000Y-86995000D03*
X95760000Y-86995000D03*
X93220000Y-86995000D03*
D13*
X90680000Y-86995000D03*
D15*
X88140000Y-86995000D03*
X85600000Y-86995000D03*
X83060000Y-86995000D03*
X80520000Y-86995000D03*
D13*
X77980000Y-86995000D03*
D15*
X75440000Y-86995000D03*
X72900000Y-86995000D03*
D18*
X150510000Y-100175000D03*
X150510000Y-102775000D03*
X150510000Y-105275000D03*
D19*
X148960000Y-85775000D03*
X148960000Y-87775000D03*
X148960000Y-89775000D03*
%LPD*%
M02*
