G04 #@! TF.GenerationSoftware,KiCad,Pcbnew,7.0.2*
G04 #@! TF.CreationDate,2023-05-28T06:01:11+09:00*
G04 #@! TF.ProjectId,game-boy-pico-link-board,67616d65-2d62-46f7-992d-7069636f2d6c,rev?*
G04 #@! TF.SameCoordinates,Original*
G04 #@! TF.FileFunction,Copper,L2,Bot*
G04 #@! TF.FilePolarity,Positive*
%FSLAX46Y46*%
G04 Gerber Fmt 4.6, Leading zero omitted, Abs format (unit mm)*
G04 Created by KiCad (PCBNEW 7.0.2) date 2023-05-28 06:01:11*
%MOMM*%
%LPD*%
G01*
G04 APERTURE LIST*
G04 #@! TA.AperFunction,ComponentPad*
%ADD10R,1.700000X1.700000*%
G04 #@! TD*
G04 #@! TA.AperFunction,ComponentPad*
%ADD11C,1.700000*%
G04 #@! TD*
G04 #@! TA.AperFunction,ComponentPad*
%ADD12O,1.700000X1.700000*%
G04 #@! TD*
G04 #@! TA.AperFunction,ConnectorPad*
%ADD13R,8.000000X2.000000*%
G04 #@! TD*
G04 #@! TA.AperFunction,ConnectorPad*
%ADD14R,5.000000X1.000000*%
G04 #@! TD*
G04 #@! TA.AperFunction,ViaPad*
%ADD15C,0.800000*%
G04 #@! TD*
G04 #@! TA.AperFunction,Conductor*
%ADD16C,0.500000*%
G04 #@! TD*
G04 APERTURE END LIST*
D10*
X129030000Y-88265000D03*
D11*
X129030000Y-90805000D03*
X129030000Y-93345000D03*
X129030000Y-95885000D03*
X129030000Y-98425000D03*
X129030000Y-100965000D03*
X139190000Y-88265000D03*
X139190000Y-90805000D03*
X139190000Y-93345000D03*
X139190000Y-95885000D03*
X139190000Y-98425000D03*
X139190000Y-100965000D03*
D10*
X144780000Y-95155000D03*
D12*
X144780000Y-97695000D03*
X144780000Y-100235000D03*
D10*
X128905000Y-107950000D03*
D12*
X131445000Y-107950000D03*
X133985000Y-107950000D03*
X136525000Y-107950000D03*
X139065000Y-107950000D03*
X141605000Y-107950000D03*
X74930000Y-106680000D03*
X77470000Y-106680000D03*
D10*
X80010000Y-106680000D03*
D12*
X82550000Y-106680000D03*
X85090000Y-106680000D03*
X87630000Y-106680000D03*
X90170000Y-106680000D03*
D10*
X92710000Y-106680000D03*
D12*
X95250000Y-106680000D03*
X97790000Y-106680000D03*
X100330000Y-106680000D03*
X102870000Y-106680000D03*
D10*
X105410000Y-106680000D03*
D12*
X107950000Y-106680000D03*
X110490000Y-106680000D03*
X113030000Y-106680000D03*
X115570000Y-106680000D03*
D10*
X118110000Y-106680000D03*
D12*
X120650000Y-106680000D03*
X123190000Y-106680000D03*
X123190000Y-88900000D03*
X120650000Y-88900000D03*
D10*
X118110000Y-88900000D03*
D12*
X115570000Y-88900000D03*
X113030000Y-88900000D03*
X110490000Y-88900000D03*
X107950000Y-88900000D03*
D10*
X105410000Y-88900000D03*
D12*
X102870000Y-88900000D03*
X100330000Y-88900000D03*
X97790000Y-88900000D03*
X95250000Y-88900000D03*
D10*
X92710000Y-88900000D03*
D12*
X90170000Y-88900000D03*
X87630000Y-88900000D03*
X85090000Y-88900000D03*
X82550000Y-88900000D03*
D10*
X80010000Y-88900000D03*
D12*
X77470000Y-88900000D03*
X74930000Y-88900000D03*
D13*
X153490000Y-102080000D03*
X153490000Y-104680000D03*
X153490000Y-107180000D03*
D14*
X151990000Y-87680000D03*
X151990000Y-89680000D03*
X151990000Y-91680000D03*
D15*
X142748000Y-86360000D03*
X134561200Y-98425000D03*
X135733200Y-94261800D03*
X143129000Y-105294000D03*
X142746600Y-98934950D03*
X141697100Y-97916300D03*
X131916400Y-93319850D03*
X141732000Y-92583000D03*
D16*
X144748000Y-104680000D02*
X153490000Y-104680000D01*
X144134000Y-105294000D02*
X144748000Y-104680000D01*
X143129000Y-105294000D02*
X142124000Y-105294000D01*
X139190000Y-102360000D02*
X139190000Y-100965000D01*
X143129000Y-105294000D02*
X144134000Y-105294000D01*
X142124000Y-105294000D02*
X139190000Y-102360000D01*
X131916400Y-92746600D02*
X131916400Y-93319850D01*
X140588100Y-86740100D02*
X137922900Y-86740100D01*
X141732000Y-87884000D02*
X140588100Y-86740100D01*
X141732000Y-92583000D02*
X141732000Y-87884000D01*
X137922900Y-86740100D02*
X131916400Y-92746600D01*
X141224000Y-96901800D02*
X140645200Y-97480600D01*
X140645200Y-97480600D02*
X140645200Y-98425000D01*
X141224000Y-94734000D02*
X141224000Y-96901800D01*
X148278000Y-87680000D02*
X141224000Y-94734000D01*
X151990000Y-87680000D02*
X148278000Y-87680000D01*
X130810000Y-104543100D02*
X128905000Y-106448100D01*
X142748000Y-86360000D02*
X142228100Y-85840100D01*
X130810000Y-91948000D02*
X130810000Y-104543100D01*
X142228100Y-85840100D02*
X136917900Y-85840100D01*
X136917900Y-85840100D02*
X130810000Y-91948000D01*
X128905000Y-106448100D02*
X128905000Y-107950000D01*
X143357800Y-102717800D02*
X148200300Y-102717800D01*
X148838100Y-102080000D02*
X153490000Y-102080000D01*
X134561200Y-98425000D02*
X134561200Y-103331900D01*
X131445000Y-106448100D02*
X131445000Y-107950000D01*
X140645200Y-100005200D02*
X143357800Y-102717800D01*
X148200300Y-102717800D02*
X148838100Y-102080000D01*
X140645200Y-98425000D02*
X140645200Y-100005200D01*
X134561200Y-103331900D02*
X131445000Y-106448100D01*
X139190000Y-98425000D02*
X140645200Y-98425000D01*
X135733200Y-104666800D02*
X135733200Y-94261800D01*
X133985000Y-106415000D02*
X135733200Y-104666800D01*
X133985000Y-107950000D02*
X133985000Y-106415000D01*
X142746600Y-98934950D02*
X142748000Y-98933550D01*
X142748000Y-98933550D02*
X142748000Y-94486300D01*
X142748000Y-94486300D02*
X147554300Y-89680000D01*
X147554300Y-89680000D02*
X151990000Y-89680000D01*
X136785100Y-104527100D02*
X136785100Y-90669900D01*
X139065000Y-106807000D02*
X136785100Y-104527100D01*
X136785100Y-90669900D02*
X139190000Y-88265000D01*
X139065000Y-107950000D02*
X139065000Y-106807000D01*
X137687000Y-97388000D02*
X139190000Y-95885000D01*
X141605000Y-107950000D02*
X142811500Y-107950000D01*
X137687000Y-102743900D02*
X137687000Y-97388000D01*
X143819100Y-101782100D02*
X141697100Y-99660100D01*
X147634200Y-91680000D02*
X146679800Y-92634400D01*
X141605000Y-107950000D02*
X141605000Y-106661900D01*
X145867900Y-101782100D02*
X143819100Y-101782100D01*
X142811500Y-107950000D02*
X143573500Y-107188000D01*
X153482000Y-107188000D02*
X153490000Y-107180000D01*
X146679800Y-100970200D02*
X145867900Y-101782100D01*
X146679800Y-92634400D02*
X146679800Y-100970200D01*
X143573500Y-107188000D02*
X153482000Y-107188000D01*
X151990000Y-91680000D02*
X147634200Y-91680000D01*
X141697100Y-99660100D02*
X141697100Y-97916300D01*
X141605000Y-106661900D02*
X137687000Y-102743900D01*
X85090000Y-88900000D02*
X85090000Y-91440000D01*
X86995000Y-93345000D02*
X129030000Y-93345000D01*
X85090000Y-91440000D02*
X86995000Y-93345000D01*
X105410000Y-87373800D02*
X92072800Y-87373800D01*
X119253000Y-95885000D02*
X118110000Y-97028000D01*
X80010000Y-105178100D02*
X92224100Y-105178100D01*
X92072800Y-87373800D02*
X80520200Y-87373800D01*
X80010000Y-88900000D02*
X80010000Y-105178100D01*
X92710000Y-105178100D02*
X92710000Y-106680000D01*
X105410000Y-105791000D02*
X105410000Y-106680000D01*
X80010000Y-87884000D02*
X80010000Y-88900000D01*
X92224100Y-105178100D02*
X105410000Y-105178100D01*
X105410000Y-105178100D02*
X105410000Y-105791000D01*
X118110000Y-88900000D02*
X118110000Y-87884000D01*
X92710000Y-88900000D02*
X92710000Y-87373800D01*
X118110000Y-105178100D02*
X105410000Y-105178100D01*
X80010000Y-106680000D02*
X80010000Y-105178100D01*
X118110000Y-97028000D02*
X118110000Y-105178100D01*
X92710000Y-87373800D02*
X92072800Y-87373800D01*
X118110000Y-87884000D02*
X117599800Y-87373800D01*
X80520200Y-87373800D02*
X80010000Y-87884000D01*
X105410000Y-88900000D02*
X105410000Y-87373800D01*
X118110000Y-106680000D02*
X118110000Y-105178100D01*
X129030000Y-95885000D02*
X119253000Y-95885000D01*
X117599800Y-87373800D02*
X105410000Y-87373800D01*
M02*
