G04 #@! TF.GenerationSoftware,KiCad,Pcbnew,7.0.2*
G04 #@! TF.CreationDate,2023-05-28T06:01:11+09:00*
G04 #@! TF.ProjectId,game-boy-pico-link-board,67616d65-2d62-46f7-992d-7069636f2d6c,rev?*
G04 #@! TF.SameCoordinates,Original*
G04 #@! TF.FileFunction,Legend,Bot*
G04 #@! TF.FilePolarity,Positive*
%FSLAX46Y46*%
G04 Gerber Fmt 4.6, Leading zero omitted, Abs format (unit mm)*
G04 Created by KiCad (PCBNEW 7.0.2) date 2023-05-28 06:01:11*
%MOMM*%
%LPD*%
G01*
G04 APERTURE LIST*
%ADD10C,0.300000*%
%ADD11C,0.250000*%
%ADD12R,1.700000X1.700000*%
%ADD13C,1.700000*%
%ADD14O,1.700000X1.700000*%
%ADD15O,1.800000X1.800000*%
%ADD16O,1.500000X1.500000*%
%ADD17R,8.000000X2.000000*%
%ADD18R,5.000000X1.000000*%
G04 APERTURE END LIST*
D10*
X81737142Y-103483571D02*
X81737142Y-102269285D01*
X81737142Y-102269285D02*
X81808571Y-102126428D01*
X81808571Y-102126428D02*
X81880000Y-102055000D01*
X81880000Y-102055000D02*
X82022857Y-101983571D01*
X82022857Y-101983571D02*
X82308571Y-101983571D01*
X82308571Y-101983571D02*
X82451428Y-102055000D01*
X82451428Y-102055000D02*
X82522857Y-102126428D01*
X82522857Y-102126428D02*
X82594285Y-102269285D01*
X82594285Y-102269285D02*
X82594285Y-103483571D01*
X83237143Y-102055000D02*
X83451429Y-101983571D01*
X83451429Y-101983571D02*
X83808571Y-101983571D01*
X83808571Y-101983571D02*
X83951429Y-102055000D01*
X83951429Y-102055000D02*
X84022857Y-102126428D01*
X84022857Y-102126428D02*
X84094286Y-102269285D01*
X84094286Y-102269285D02*
X84094286Y-102412142D01*
X84094286Y-102412142D02*
X84022857Y-102555000D01*
X84022857Y-102555000D02*
X83951429Y-102626428D01*
X83951429Y-102626428D02*
X83808571Y-102697857D01*
X83808571Y-102697857D02*
X83522857Y-102769285D01*
X83522857Y-102769285D02*
X83380000Y-102840714D01*
X83380000Y-102840714D02*
X83308571Y-102912142D01*
X83308571Y-102912142D02*
X83237143Y-103055000D01*
X83237143Y-103055000D02*
X83237143Y-103197857D01*
X83237143Y-103197857D02*
X83308571Y-103340714D01*
X83308571Y-103340714D02*
X83380000Y-103412142D01*
X83380000Y-103412142D02*
X83522857Y-103483571D01*
X83522857Y-103483571D02*
X83880000Y-103483571D01*
X83880000Y-103483571D02*
X84094286Y-103412142D01*
X85237142Y-102769285D02*
X85451428Y-102697857D01*
X85451428Y-102697857D02*
X85522857Y-102626428D01*
X85522857Y-102626428D02*
X85594285Y-102483571D01*
X85594285Y-102483571D02*
X85594285Y-102269285D01*
X85594285Y-102269285D02*
X85522857Y-102126428D01*
X85522857Y-102126428D02*
X85451428Y-102055000D01*
X85451428Y-102055000D02*
X85308571Y-101983571D01*
X85308571Y-101983571D02*
X84737142Y-101983571D01*
X84737142Y-101983571D02*
X84737142Y-103483571D01*
X84737142Y-103483571D02*
X85237142Y-103483571D01*
X85237142Y-103483571D02*
X85380000Y-103412142D01*
X85380000Y-103412142D02*
X85451428Y-103340714D01*
X85451428Y-103340714D02*
X85522857Y-103197857D01*
X85522857Y-103197857D02*
X85522857Y-103055000D01*
X85522857Y-103055000D02*
X85451428Y-102912142D01*
X85451428Y-102912142D02*
X85380000Y-102840714D01*
X85380000Y-102840714D02*
X85237142Y-102769285D01*
X85237142Y-102769285D02*
X84737142Y-102769285D01*
X87165714Y-103483571D02*
X88022857Y-103483571D01*
X87594285Y-101983571D02*
X87594285Y-103483571D01*
X88808571Y-103483571D02*
X89094285Y-103483571D01*
X89094285Y-103483571D02*
X89237142Y-103412142D01*
X89237142Y-103412142D02*
X89379999Y-103269285D01*
X89379999Y-103269285D02*
X89451428Y-102983571D01*
X89451428Y-102983571D02*
X89451428Y-102483571D01*
X89451428Y-102483571D02*
X89379999Y-102197857D01*
X89379999Y-102197857D02*
X89237142Y-102055000D01*
X89237142Y-102055000D02*
X89094285Y-101983571D01*
X89094285Y-101983571D02*
X88808571Y-101983571D01*
X88808571Y-101983571D02*
X88665714Y-102055000D01*
X88665714Y-102055000D02*
X88522856Y-102197857D01*
X88522856Y-102197857D02*
X88451428Y-102483571D01*
X88451428Y-102483571D02*
X88451428Y-102983571D01*
X88451428Y-102983571D02*
X88522856Y-103269285D01*
X88522856Y-103269285D02*
X88665714Y-103412142D01*
X88665714Y-103412142D02*
X88808571Y-103483571D01*
X92022857Y-103412142D02*
X91880000Y-103483571D01*
X91880000Y-103483571D02*
X91665714Y-103483571D01*
X91665714Y-103483571D02*
X91451428Y-103412142D01*
X91451428Y-103412142D02*
X91308571Y-103269285D01*
X91308571Y-103269285D02*
X91237142Y-103126428D01*
X91237142Y-103126428D02*
X91165714Y-102840714D01*
X91165714Y-102840714D02*
X91165714Y-102626428D01*
X91165714Y-102626428D02*
X91237142Y-102340714D01*
X91237142Y-102340714D02*
X91308571Y-102197857D01*
X91308571Y-102197857D02*
X91451428Y-102055000D01*
X91451428Y-102055000D02*
X91665714Y-101983571D01*
X91665714Y-101983571D02*
X91808571Y-101983571D01*
X91808571Y-101983571D02*
X92022857Y-102055000D01*
X92022857Y-102055000D02*
X92094285Y-102126428D01*
X92094285Y-102126428D02*
X92094285Y-102626428D01*
X92094285Y-102626428D02*
X91808571Y-102626428D01*
X92665714Y-102412142D02*
X93380000Y-102412142D01*
X92522857Y-101983571D02*
X93022857Y-103483571D01*
X93022857Y-103483571D02*
X93522857Y-101983571D01*
X94022856Y-101983571D02*
X94022856Y-103483571D01*
X94022856Y-103483571D02*
X94522856Y-102412142D01*
X94522856Y-102412142D02*
X95022856Y-103483571D01*
X95022856Y-103483571D02*
X95022856Y-101983571D01*
X95737142Y-102769285D02*
X96237142Y-102769285D01*
X96451428Y-101983571D02*
X95737142Y-101983571D01*
X95737142Y-101983571D02*
X95737142Y-103483571D01*
X95737142Y-103483571D02*
X96451428Y-103483571D01*
X97594285Y-102769285D02*
X97808571Y-102697857D01*
X97808571Y-102697857D02*
X97880000Y-102626428D01*
X97880000Y-102626428D02*
X97951428Y-102483571D01*
X97951428Y-102483571D02*
X97951428Y-102269285D01*
X97951428Y-102269285D02*
X97880000Y-102126428D01*
X97880000Y-102126428D02*
X97808571Y-102055000D01*
X97808571Y-102055000D02*
X97665714Y-101983571D01*
X97665714Y-101983571D02*
X97094285Y-101983571D01*
X97094285Y-101983571D02*
X97094285Y-103483571D01*
X97094285Y-103483571D02*
X97594285Y-103483571D01*
X97594285Y-103483571D02*
X97737143Y-103412142D01*
X97737143Y-103412142D02*
X97808571Y-103340714D01*
X97808571Y-103340714D02*
X97880000Y-103197857D01*
X97880000Y-103197857D02*
X97880000Y-103055000D01*
X97880000Y-103055000D02*
X97808571Y-102912142D01*
X97808571Y-102912142D02*
X97737143Y-102840714D01*
X97737143Y-102840714D02*
X97594285Y-102769285D01*
X97594285Y-102769285D02*
X97094285Y-102769285D01*
X98880000Y-103483571D02*
X99165714Y-103483571D01*
X99165714Y-103483571D02*
X99308571Y-103412142D01*
X99308571Y-103412142D02*
X99451428Y-103269285D01*
X99451428Y-103269285D02*
X99522857Y-102983571D01*
X99522857Y-102983571D02*
X99522857Y-102483571D01*
X99522857Y-102483571D02*
X99451428Y-102197857D01*
X99451428Y-102197857D02*
X99308571Y-102055000D01*
X99308571Y-102055000D02*
X99165714Y-101983571D01*
X99165714Y-101983571D02*
X98880000Y-101983571D01*
X98880000Y-101983571D02*
X98737143Y-102055000D01*
X98737143Y-102055000D02*
X98594285Y-102197857D01*
X98594285Y-102197857D02*
X98522857Y-102483571D01*
X98522857Y-102483571D02*
X98522857Y-102983571D01*
X98522857Y-102983571D02*
X98594285Y-103269285D01*
X98594285Y-103269285D02*
X98737143Y-103412142D01*
X98737143Y-103412142D02*
X98880000Y-103483571D01*
X100451429Y-102697857D02*
X100451429Y-101983571D01*
X99951429Y-103483571D02*
X100451429Y-102697857D01*
X100451429Y-102697857D02*
X100951429Y-103483571D01*
X103308571Y-101983571D02*
X102594285Y-101983571D01*
X102594285Y-101983571D02*
X102594285Y-103483571D01*
X103808571Y-101983571D02*
X103808571Y-103483571D01*
X104522857Y-101983571D02*
X104522857Y-103483571D01*
X104522857Y-103483571D02*
X105380000Y-101983571D01*
X105380000Y-101983571D02*
X105380000Y-103483571D01*
X106094286Y-101983571D02*
X106094286Y-103483571D01*
X106951429Y-101983571D02*
X106308572Y-102840714D01*
X106951429Y-103483571D02*
X106094286Y-102626428D01*
X109594286Y-102126428D02*
X109522858Y-102055000D01*
X109522858Y-102055000D02*
X109308572Y-101983571D01*
X109308572Y-101983571D02*
X109165715Y-101983571D01*
X109165715Y-101983571D02*
X108951429Y-102055000D01*
X108951429Y-102055000D02*
X108808572Y-102197857D01*
X108808572Y-102197857D02*
X108737143Y-102340714D01*
X108737143Y-102340714D02*
X108665715Y-102626428D01*
X108665715Y-102626428D02*
X108665715Y-102840714D01*
X108665715Y-102840714D02*
X108737143Y-103126428D01*
X108737143Y-103126428D02*
X108808572Y-103269285D01*
X108808572Y-103269285D02*
X108951429Y-103412142D01*
X108951429Y-103412142D02*
X109165715Y-103483571D01*
X109165715Y-103483571D02*
X109308572Y-103483571D01*
X109308572Y-103483571D02*
X109522858Y-103412142D01*
X109522858Y-103412142D02*
X109594286Y-103340714D01*
X110165715Y-102412142D02*
X110880001Y-102412142D01*
X110022858Y-101983571D02*
X110522858Y-103483571D01*
X110522858Y-103483571D02*
X111022858Y-101983571D01*
X112022857Y-102769285D02*
X112237143Y-102697857D01*
X112237143Y-102697857D02*
X112308572Y-102626428D01*
X112308572Y-102626428D02*
X112380000Y-102483571D01*
X112380000Y-102483571D02*
X112380000Y-102269285D01*
X112380000Y-102269285D02*
X112308572Y-102126428D01*
X112308572Y-102126428D02*
X112237143Y-102055000D01*
X112237143Y-102055000D02*
X112094286Y-101983571D01*
X112094286Y-101983571D02*
X111522857Y-101983571D01*
X111522857Y-101983571D02*
X111522857Y-103483571D01*
X111522857Y-103483571D02*
X112022857Y-103483571D01*
X112022857Y-103483571D02*
X112165715Y-103412142D01*
X112165715Y-103412142D02*
X112237143Y-103340714D01*
X112237143Y-103340714D02*
X112308572Y-103197857D01*
X112308572Y-103197857D02*
X112308572Y-103055000D01*
X112308572Y-103055000D02*
X112237143Y-102912142D01*
X112237143Y-102912142D02*
X112165715Y-102840714D01*
X112165715Y-102840714D02*
X112022857Y-102769285D01*
X112022857Y-102769285D02*
X111522857Y-102769285D01*
X113737143Y-101983571D02*
X113022857Y-101983571D01*
X113022857Y-101983571D02*
X113022857Y-103483571D01*
X114237143Y-102769285D02*
X114737143Y-102769285D01*
X114951429Y-101983571D02*
X114237143Y-101983571D01*
X114237143Y-101983571D02*
X114237143Y-103483571D01*
X114237143Y-103483571D02*
X114951429Y-103483571D01*
X116665715Y-102412142D02*
X117380001Y-102412142D01*
X116522858Y-101983571D02*
X117022858Y-103483571D01*
X117022858Y-103483571D02*
X117522858Y-101983571D01*
X118022857Y-101983571D02*
X118022857Y-103483571D01*
X118022857Y-103483571D02*
X118380000Y-103483571D01*
X118380000Y-103483571D02*
X118594286Y-103412142D01*
X118594286Y-103412142D02*
X118737143Y-103269285D01*
X118737143Y-103269285D02*
X118808572Y-103126428D01*
X118808572Y-103126428D02*
X118880000Y-102840714D01*
X118880000Y-102840714D02*
X118880000Y-102626428D01*
X118880000Y-102626428D02*
X118808572Y-102340714D01*
X118808572Y-102340714D02*
X118737143Y-102197857D01*
X118737143Y-102197857D02*
X118594286Y-102055000D01*
X118594286Y-102055000D02*
X118380000Y-101983571D01*
X118380000Y-101983571D02*
X118022857Y-101983571D01*
X119451429Y-102412142D02*
X120165715Y-102412142D01*
X119308572Y-101983571D02*
X119808572Y-103483571D01*
X119808572Y-103483571D02*
X120308572Y-101983571D01*
X120808571Y-101983571D02*
X120808571Y-103483571D01*
X120808571Y-103483571D02*
X121380000Y-103483571D01*
X121380000Y-103483571D02*
X121522857Y-103412142D01*
X121522857Y-103412142D02*
X121594286Y-103340714D01*
X121594286Y-103340714D02*
X121665714Y-103197857D01*
X121665714Y-103197857D02*
X121665714Y-102983571D01*
X121665714Y-102983571D02*
X121594286Y-102840714D01*
X121594286Y-102840714D02*
X121522857Y-102769285D01*
X121522857Y-102769285D02*
X121380000Y-102697857D01*
X121380000Y-102697857D02*
X120808571Y-102697857D01*
X122094286Y-103483571D02*
X122951429Y-103483571D01*
X122522857Y-101983571D02*
X122522857Y-103483571D01*
X123451428Y-102769285D02*
X123951428Y-102769285D01*
X124165714Y-101983571D02*
X123451428Y-101983571D01*
X123451428Y-101983571D02*
X123451428Y-103483571D01*
X123451428Y-103483571D02*
X124165714Y-103483571D01*
X125665714Y-101983571D02*
X125165714Y-102697857D01*
X124808571Y-101983571D02*
X124808571Y-103483571D01*
X124808571Y-103483571D02*
X125380000Y-103483571D01*
X125380000Y-103483571D02*
X125522857Y-103412142D01*
X125522857Y-103412142D02*
X125594286Y-103340714D01*
X125594286Y-103340714D02*
X125665714Y-103197857D01*
X125665714Y-103197857D02*
X125665714Y-102983571D01*
X125665714Y-102983571D02*
X125594286Y-102840714D01*
X125594286Y-102840714D02*
X125522857Y-102769285D01*
X125522857Y-102769285D02*
X125380000Y-102697857D01*
X125380000Y-102697857D02*
X124808571Y-102697857D01*
D11*
X99201904Y-99894761D02*
X99106666Y-99942380D01*
X99106666Y-99942380D02*
X98963809Y-99942380D01*
X98963809Y-99942380D02*
X98820952Y-99894761D01*
X98820952Y-99894761D02*
X98725714Y-99799523D01*
X98725714Y-99799523D02*
X98678095Y-99704285D01*
X98678095Y-99704285D02*
X98630476Y-99513809D01*
X98630476Y-99513809D02*
X98630476Y-99370952D01*
X98630476Y-99370952D02*
X98678095Y-99180476D01*
X98678095Y-99180476D02*
X98725714Y-99085238D01*
X98725714Y-99085238D02*
X98820952Y-98990000D01*
X98820952Y-98990000D02*
X98963809Y-98942380D01*
X98963809Y-98942380D02*
X99059047Y-98942380D01*
X99059047Y-98942380D02*
X99201904Y-98990000D01*
X99201904Y-98990000D02*
X99249523Y-99037619D01*
X99249523Y-99037619D02*
X99249523Y-99370952D01*
X99249523Y-99370952D02*
X99059047Y-99370952D01*
X99678095Y-98942380D02*
X99678095Y-99942380D01*
X99678095Y-99942380D02*
X100059047Y-99942380D01*
X100059047Y-99942380D02*
X100154285Y-99894761D01*
X100154285Y-99894761D02*
X100201904Y-99847142D01*
X100201904Y-99847142D02*
X100249523Y-99751904D01*
X100249523Y-99751904D02*
X100249523Y-99609047D01*
X100249523Y-99609047D02*
X100201904Y-99513809D01*
X100201904Y-99513809D02*
X100154285Y-99466190D01*
X100154285Y-99466190D02*
X100059047Y-99418571D01*
X100059047Y-99418571D02*
X99678095Y-99418571D01*
X100868571Y-99942380D02*
X100963809Y-99942380D01*
X100963809Y-99942380D02*
X101059047Y-99894761D01*
X101059047Y-99894761D02*
X101106666Y-99847142D01*
X101106666Y-99847142D02*
X101154285Y-99751904D01*
X101154285Y-99751904D02*
X101201904Y-99561428D01*
X101201904Y-99561428D02*
X101201904Y-99323333D01*
X101201904Y-99323333D02*
X101154285Y-99132857D01*
X101154285Y-99132857D02*
X101106666Y-99037619D01*
X101106666Y-99037619D02*
X101059047Y-98990000D01*
X101059047Y-98990000D02*
X100963809Y-98942380D01*
X100963809Y-98942380D02*
X100868571Y-98942380D01*
X100868571Y-98942380D02*
X100773333Y-98990000D01*
X100773333Y-98990000D02*
X100725714Y-99037619D01*
X100725714Y-99037619D02*
X100678095Y-99132857D01*
X100678095Y-99132857D02*
X100630476Y-99323333D01*
X100630476Y-99323333D02*
X100630476Y-99561428D01*
X100630476Y-99561428D02*
X100678095Y-99751904D01*
X100678095Y-99751904D02*
X100725714Y-99847142D01*
X100725714Y-99847142D02*
X100773333Y-99894761D01*
X100773333Y-99894761D02*
X100868571Y-99942380D01*
X103154286Y-99609047D02*
X102392381Y-99323333D01*
X102392381Y-99323333D02*
X103154286Y-99037619D01*
X103630476Y-99323333D02*
X104392381Y-99323333D01*
X104868571Y-99609047D02*
X105630476Y-99323333D01*
X105630476Y-99323333D02*
X104868571Y-99037619D01*
X106820952Y-98990000D02*
X106963809Y-98942380D01*
X106963809Y-98942380D02*
X107201904Y-98942380D01*
X107201904Y-98942380D02*
X107297142Y-98990000D01*
X107297142Y-98990000D02*
X107344761Y-99037619D01*
X107344761Y-99037619D02*
X107392380Y-99132857D01*
X107392380Y-99132857D02*
X107392380Y-99228095D01*
X107392380Y-99228095D02*
X107344761Y-99323333D01*
X107344761Y-99323333D02*
X107297142Y-99370952D01*
X107297142Y-99370952D02*
X107201904Y-99418571D01*
X107201904Y-99418571D02*
X107011428Y-99466190D01*
X107011428Y-99466190D02*
X106916190Y-99513809D01*
X106916190Y-99513809D02*
X106868571Y-99561428D01*
X106868571Y-99561428D02*
X106820952Y-99656666D01*
X106820952Y-99656666D02*
X106820952Y-99751904D01*
X106820952Y-99751904D02*
X106868571Y-99847142D01*
X106868571Y-99847142D02*
X106916190Y-99894761D01*
X106916190Y-99894761D02*
X107011428Y-99942380D01*
X107011428Y-99942380D02*
X107249523Y-99942380D01*
X107249523Y-99942380D02*
X107392380Y-99894761D01*
X108392380Y-99037619D02*
X108344761Y-98990000D01*
X108344761Y-98990000D02*
X108201904Y-98942380D01*
X108201904Y-98942380D02*
X108106666Y-98942380D01*
X108106666Y-98942380D02*
X107963809Y-98990000D01*
X107963809Y-98990000D02*
X107868571Y-99085238D01*
X107868571Y-99085238D02*
X107820952Y-99180476D01*
X107820952Y-99180476D02*
X107773333Y-99370952D01*
X107773333Y-99370952D02*
X107773333Y-99513809D01*
X107773333Y-99513809D02*
X107820952Y-99704285D01*
X107820952Y-99704285D02*
X107868571Y-99799523D01*
X107868571Y-99799523D02*
X107963809Y-99894761D01*
X107963809Y-99894761D02*
X108106666Y-99942380D01*
X108106666Y-99942380D02*
X108201904Y-99942380D01*
X108201904Y-99942380D02*
X108344761Y-99894761D01*
X108344761Y-99894761D02*
X108392380Y-99847142D01*
X99201904Y-98274761D02*
X99106666Y-98322380D01*
X99106666Y-98322380D02*
X98963809Y-98322380D01*
X98963809Y-98322380D02*
X98820952Y-98274761D01*
X98820952Y-98274761D02*
X98725714Y-98179523D01*
X98725714Y-98179523D02*
X98678095Y-98084285D01*
X98678095Y-98084285D02*
X98630476Y-97893809D01*
X98630476Y-97893809D02*
X98630476Y-97750952D01*
X98630476Y-97750952D02*
X98678095Y-97560476D01*
X98678095Y-97560476D02*
X98725714Y-97465238D01*
X98725714Y-97465238D02*
X98820952Y-97370000D01*
X98820952Y-97370000D02*
X98963809Y-97322380D01*
X98963809Y-97322380D02*
X99059047Y-97322380D01*
X99059047Y-97322380D02*
X99201904Y-97370000D01*
X99201904Y-97370000D02*
X99249523Y-97417619D01*
X99249523Y-97417619D02*
X99249523Y-97750952D01*
X99249523Y-97750952D02*
X99059047Y-97750952D01*
X99678095Y-97322380D02*
X99678095Y-98322380D01*
X99678095Y-98322380D02*
X100059047Y-98322380D01*
X100059047Y-98322380D02*
X100154285Y-98274761D01*
X100154285Y-98274761D02*
X100201904Y-98227142D01*
X100201904Y-98227142D02*
X100249523Y-98131904D01*
X100249523Y-98131904D02*
X100249523Y-97989047D01*
X100249523Y-97989047D02*
X100201904Y-97893809D01*
X100201904Y-97893809D02*
X100154285Y-97846190D01*
X100154285Y-97846190D02*
X100059047Y-97798571D01*
X100059047Y-97798571D02*
X99678095Y-97798571D01*
X101201904Y-97322380D02*
X100630476Y-97322380D01*
X100916190Y-97322380D02*
X100916190Y-98322380D01*
X100916190Y-98322380D02*
X100820952Y-98179523D01*
X100820952Y-98179523D02*
X100725714Y-98084285D01*
X100725714Y-98084285D02*
X100630476Y-98036666D01*
X103154286Y-97989047D02*
X102392381Y-97703333D01*
X102392381Y-97703333D02*
X103154286Y-97417619D01*
X103630476Y-97703333D02*
X104392381Y-97703333D01*
X104868571Y-97989047D02*
X105630476Y-97703333D01*
X105630476Y-97703333D02*
X104868571Y-97417619D01*
X106820952Y-97370000D02*
X106963809Y-97322380D01*
X106963809Y-97322380D02*
X107201904Y-97322380D01*
X107201904Y-97322380D02*
X107297142Y-97370000D01*
X107297142Y-97370000D02*
X107344761Y-97417619D01*
X107344761Y-97417619D02*
X107392380Y-97512857D01*
X107392380Y-97512857D02*
X107392380Y-97608095D01*
X107392380Y-97608095D02*
X107344761Y-97703333D01*
X107344761Y-97703333D02*
X107297142Y-97750952D01*
X107297142Y-97750952D02*
X107201904Y-97798571D01*
X107201904Y-97798571D02*
X107011428Y-97846190D01*
X107011428Y-97846190D02*
X106916190Y-97893809D01*
X106916190Y-97893809D02*
X106868571Y-97941428D01*
X106868571Y-97941428D02*
X106820952Y-98036666D01*
X106820952Y-98036666D02*
X106820952Y-98131904D01*
X106820952Y-98131904D02*
X106868571Y-98227142D01*
X106868571Y-98227142D02*
X106916190Y-98274761D01*
X106916190Y-98274761D02*
X107011428Y-98322380D01*
X107011428Y-98322380D02*
X107249523Y-98322380D01*
X107249523Y-98322380D02*
X107392380Y-98274761D01*
X107820952Y-97322380D02*
X107820952Y-98322380D01*
X99201904Y-96654761D02*
X99106666Y-96702380D01*
X99106666Y-96702380D02*
X98963809Y-96702380D01*
X98963809Y-96702380D02*
X98820952Y-96654761D01*
X98820952Y-96654761D02*
X98725714Y-96559523D01*
X98725714Y-96559523D02*
X98678095Y-96464285D01*
X98678095Y-96464285D02*
X98630476Y-96273809D01*
X98630476Y-96273809D02*
X98630476Y-96130952D01*
X98630476Y-96130952D02*
X98678095Y-95940476D01*
X98678095Y-95940476D02*
X98725714Y-95845238D01*
X98725714Y-95845238D02*
X98820952Y-95750000D01*
X98820952Y-95750000D02*
X98963809Y-95702380D01*
X98963809Y-95702380D02*
X99059047Y-95702380D01*
X99059047Y-95702380D02*
X99201904Y-95750000D01*
X99201904Y-95750000D02*
X99249523Y-95797619D01*
X99249523Y-95797619D02*
X99249523Y-96130952D01*
X99249523Y-96130952D02*
X99059047Y-96130952D01*
X99678095Y-95702380D02*
X99678095Y-96702380D01*
X99678095Y-96702380D02*
X100059047Y-96702380D01*
X100059047Y-96702380D02*
X100154285Y-96654761D01*
X100154285Y-96654761D02*
X100201904Y-96607142D01*
X100201904Y-96607142D02*
X100249523Y-96511904D01*
X100249523Y-96511904D02*
X100249523Y-96369047D01*
X100249523Y-96369047D02*
X100201904Y-96273809D01*
X100201904Y-96273809D02*
X100154285Y-96226190D01*
X100154285Y-96226190D02*
X100059047Y-96178571D01*
X100059047Y-96178571D02*
X99678095Y-96178571D01*
X100630476Y-96607142D02*
X100678095Y-96654761D01*
X100678095Y-96654761D02*
X100773333Y-96702380D01*
X100773333Y-96702380D02*
X101011428Y-96702380D01*
X101011428Y-96702380D02*
X101106666Y-96654761D01*
X101106666Y-96654761D02*
X101154285Y-96607142D01*
X101154285Y-96607142D02*
X101201904Y-96511904D01*
X101201904Y-96511904D02*
X101201904Y-96416666D01*
X101201904Y-96416666D02*
X101154285Y-96273809D01*
X101154285Y-96273809D02*
X100582857Y-95702380D01*
X100582857Y-95702380D02*
X101201904Y-95702380D01*
X103154286Y-96369047D02*
X102392381Y-96083333D01*
X102392381Y-96083333D02*
X103154286Y-95797619D01*
X103630476Y-96083333D02*
X104392381Y-96083333D01*
X104868571Y-96369047D02*
X105630476Y-96083333D01*
X105630476Y-96083333D02*
X104868571Y-95797619D01*
X106820952Y-95750000D02*
X106963809Y-95702380D01*
X106963809Y-95702380D02*
X107201904Y-95702380D01*
X107201904Y-95702380D02*
X107297142Y-95750000D01*
X107297142Y-95750000D02*
X107344761Y-95797619D01*
X107344761Y-95797619D02*
X107392380Y-95892857D01*
X107392380Y-95892857D02*
X107392380Y-95988095D01*
X107392380Y-95988095D02*
X107344761Y-96083333D01*
X107344761Y-96083333D02*
X107297142Y-96130952D01*
X107297142Y-96130952D02*
X107201904Y-96178571D01*
X107201904Y-96178571D02*
X107011428Y-96226190D01*
X107011428Y-96226190D02*
X106916190Y-96273809D01*
X106916190Y-96273809D02*
X106868571Y-96321428D01*
X106868571Y-96321428D02*
X106820952Y-96416666D01*
X106820952Y-96416666D02*
X106820952Y-96511904D01*
X106820952Y-96511904D02*
X106868571Y-96607142D01*
X106868571Y-96607142D02*
X106916190Y-96654761D01*
X106916190Y-96654761D02*
X107011428Y-96702380D01*
X107011428Y-96702380D02*
X107249523Y-96702380D01*
X107249523Y-96702380D02*
X107392380Y-96654761D01*
X108011428Y-96702380D02*
X108201904Y-96702380D01*
X108201904Y-96702380D02*
X108297142Y-96654761D01*
X108297142Y-96654761D02*
X108392380Y-96559523D01*
X108392380Y-96559523D02*
X108439999Y-96369047D01*
X108439999Y-96369047D02*
X108439999Y-96035714D01*
X108439999Y-96035714D02*
X108392380Y-95845238D01*
X108392380Y-95845238D02*
X108297142Y-95750000D01*
X108297142Y-95750000D02*
X108201904Y-95702380D01*
X108201904Y-95702380D02*
X108011428Y-95702380D01*
X108011428Y-95702380D02*
X107916190Y-95750000D01*
X107916190Y-95750000D02*
X107820952Y-95845238D01*
X107820952Y-95845238D02*
X107773333Y-96035714D01*
X107773333Y-96035714D02*
X107773333Y-96369047D01*
X107773333Y-96369047D02*
X107820952Y-96559523D01*
X107820952Y-96559523D02*
X107916190Y-96654761D01*
X107916190Y-96654761D02*
X108011428Y-96702380D01*
X99201904Y-95034761D02*
X99106666Y-95082380D01*
X99106666Y-95082380D02*
X98963809Y-95082380D01*
X98963809Y-95082380D02*
X98820952Y-95034761D01*
X98820952Y-95034761D02*
X98725714Y-94939523D01*
X98725714Y-94939523D02*
X98678095Y-94844285D01*
X98678095Y-94844285D02*
X98630476Y-94653809D01*
X98630476Y-94653809D02*
X98630476Y-94510952D01*
X98630476Y-94510952D02*
X98678095Y-94320476D01*
X98678095Y-94320476D02*
X98725714Y-94225238D01*
X98725714Y-94225238D02*
X98820952Y-94130000D01*
X98820952Y-94130000D02*
X98963809Y-94082380D01*
X98963809Y-94082380D02*
X99059047Y-94082380D01*
X99059047Y-94082380D02*
X99201904Y-94130000D01*
X99201904Y-94130000D02*
X99249523Y-94177619D01*
X99249523Y-94177619D02*
X99249523Y-94510952D01*
X99249523Y-94510952D02*
X99059047Y-94510952D01*
X99678095Y-94082380D02*
X99678095Y-95082380D01*
X99678095Y-95082380D02*
X100059047Y-95082380D01*
X100059047Y-95082380D02*
X100154285Y-95034761D01*
X100154285Y-95034761D02*
X100201904Y-94987142D01*
X100201904Y-94987142D02*
X100249523Y-94891904D01*
X100249523Y-94891904D02*
X100249523Y-94749047D01*
X100249523Y-94749047D02*
X100201904Y-94653809D01*
X100201904Y-94653809D02*
X100154285Y-94606190D01*
X100154285Y-94606190D02*
X100059047Y-94558571D01*
X100059047Y-94558571D02*
X99678095Y-94558571D01*
X100582857Y-95082380D02*
X101201904Y-95082380D01*
X101201904Y-95082380D02*
X100868571Y-94701428D01*
X100868571Y-94701428D02*
X101011428Y-94701428D01*
X101011428Y-94701428D02*
X101106666Y-94653809D01*
X101106666Y-94653809D02*
X101154285Y-94606190D01*
X101154285Y-94606190D02*
X101201904Y-94510952D01*
X101201904Y-94510952D02*
X101201904Y-94272857D01*
X101201904Y-94272857D02*
X101154285Y-94177619D01*
X101154285Y-94177619D02*
X101106666Y-94130000D01*
X101106666Y-94130000D02*
X101011428Y-94082380D01*
X101011428Y-94082380D02*
X100725714Y-94082380D01*
X100725714Y-94082380D02*
X100630476Y-94130000D01*
X100630476Y-94130000D02*
X100582857Y-94177619D01*
X103154286Y-94749047D02*
X102392381Y-94463333D01*
X102392381Y-94463333D02*
X103154286Y-94177619D01*
X103630476Y-94463333D02*
X104392381Y-94463333D01*
X104868571Y-94749047D02*
X105630476Y-94463333D01*
X105630476Y-94463333D02*
X104868571Y-94177619D01*
X106820952Y-94130000D02*
X106963809Y-94082380D01*
X106963809Y-94082380D02*
X107201904Y-94082380D01*
X107201904Y-94082380D02*
X107297142Y-94130000D01*
X107297142Y-94130000D02*
X107344761Y-94177619D01*
X107344761Y-94177619D02*
X107392380Y-94272857D01*
X107392380Y-94272857D02*
X107392380Y-94368095D01*
X107392380Y-94368095D02*
X107344761Y-94463333D01*
X107344761Y-94463333D02*
X107297142Y-94510952D01*
X107297142Y-94510952D02*
X107201904Y-94558571D01*
X107201904Y-94558571D02*
X107011428Y-94606190D01*
X107011428Y-94606190D02*
X106916190Y-94653809D01*
X106916190Y-94653809D02*
X106868571Y-94701428D01*
X106868571Y-94701428D02*
X106820952Y-94796666D01*
X106820952Y-94796666D02*
X106820952Y-94891904D01*
X106820952Y-94891904D02*
X106868571Y-94987142D01*
X106868571Y-94987142D02*
X106916190Y-95034761D01*
X106916190Y-95034761D02*
X107011428Y-95082380D01*
X107011428Y-95082380D02*
X107249523Y-95082380D01*
X107249523Y-95082380D02*
X107392380Y-95034761D01*
X107820952Y-94082380D02*
X107820952Y-95082380D01*
X107820952Y-95082380D02*
X108059047Y-95082380D01*
X108059047Y-95082380D02*
X108201904Y-95034761D01*
X108201904Y-95034761D02*
X108297142Y-94939523D01*
X108297142Y-94939523D02*
X108344761Y-94844285D01*
X108344761Y-94844285D02*
X108392380Y-94653809D01*
X108392380Y-94653809D02*
X108392380Y-94510952D01*
X108392380Y-94510952D02*
X108344761Y-94320476D01*
X108344761Y-94320476D02*
X108297142Y-94225238D01*
X108297142Y-94225238D02*
X108201904Y-94130000D01*
X108201904Y-94130000D02*
X108059047Y-94082380D01*
X108059047Y-94082380D02*
X107820952Y-94082380D01*
%LPC*%
D12*
X129030000Y-88265000D03*
D13*
X129030000Y-90805000D03*
X129030000Y-93345000D03*
X129030000Y-95885000D03*
X129030000Y-98425000D03*
X129030000Y-100965000D03*
X139190000Y-88265000D03*
X139190000Y-90805000D03*
X139190000Y-93345000D03*
X139190000Y-95885000D03*
X139190000Y-98425000D03*
X139190000Y-100965000D03*
D12*
X144780000Y-95155000D03*
D14*
X144780000Y-97695000D03*
X144780000Y-100235000D03*
D12*
X128905000Y-107950000D03*
D14*
X131445000Y-107950000D03*
X133985000Y-107950000D03*
X136525000Y-107950000D03*
X139065000Y-107950000D03*
X141605000Y-107950000D03*
D15*
X75060000Y-100515000D03*
D16*
X78090000Y-100215000D03*
X78090000Y-95365000D03*
D15*
X75060000Y-95065000D03*
D14*
X74930000Y-106680000D03*
X77470000Y-106680000D03*
D12*
X80010000Y-106680000D03*
D14*
X82550000Y-106680000D03*
X85090000Y-106680000D03*
X87630000Y-106680000D03*
X90170000Y-106680000D03*
D12*
X92710000Y-106680000D03*
D14*
X95250000Y-106680000D03*
X97790000Y-106680000D03*
X100330000Y-106680000D03*
X102870000Y-106680000D03*
D12*
X105410000Y-106680000D03*
D14*
X107950000Y-106680000D03*
X110490000Y-106680000D03*
X113030000Y-106680000D03*
X115570000Y-106680000D03*
D12*
X118110000Y-106680000D03*
D14*
X120650000Y-106680000D03*
X123190000Y-106680000D03*
X123190000Y-88900000D03*
X120650000Y-88900000D03*
D12*
X118110000Y-88900000D03*
D14*
X115570000Y-88900000D03*
X113030000Y-88900000D03*
X110490000Y-88900000D03*
X107950000Y-88900000D03*
D12*
X105410000Y-88900000D03*
D14*
X102870000Y-88900000D03*
X100330000Y-88900000D03*
X97790000Y-88900000D03*
X95250000Y-88900000D03*
D12*
X92710000Y-88900000D03*
D14*
X90170000Y-88900000D03*
X87630000Y-88900000D03*
X85090000Y-88900000D03*
X82550000Y-88900000D03*
D12*
X80010000Y-88900000D03*
D14*
X77470000Y-88900000D03*
X74930000Y-88900000D03*
D17*
X153490000Y-102080000D03*
X153490000Y-104680000D03*
X153490000Y-107180000D03*
D18*
X151990000Y-87680000D03*
X151990000Y-89680000D03*
X151990000Y-91680000D03*
%LPD*%
M02*
