M48
; DRILL file {KiCad 7.0.2} date Sun May 28 06:01:16 2023
; FORMAT={-:-/ absolute / metric / decimal}
; #@! TF.CreationDate,2023-05-28T06:01:16+09:00
; #@! TF.GenerationSoftware,Kicad,Pcbnew,7.0.2
; #@! TF.FileFunction,Plated,1,2,PTH
FMAT,2
METRIC
; #@! TA.AperFunction,Plated,PTH,ViaDrill
T1C0.400
; #@! TA.AperFunction,Plated,PTH,ComponentDrill
T2C1.000
; #@! TA.AperFunction,Plated,PTH,ComponentDrill
T3C1.020
%
G90
G05
T1
X131.916Y-93.32
X134.561Y-98.425
X135.733Y-94.262
X141.697Y-97.916
X141.732Y-92.583
X142.747Y-98.935
X142.748Y-86.36
X143.129Y-105.294
T2
X128.905Y-107.95
X129.03Y-88.265
X129.03Y-90.805
X129.03Y-93.345
X129.03Y-95.885
X129.03Y-98.425
X129.03Y-100.965
X131.445Y-107.95
X133.985Y-107.95
X136.525Y-107.95
X139.065Y-107.95
X139.19Y-88.265
X139.19Y-90.805
X139.19Y-93.345
X139.19Y-95.885
X139.19Y-98.425
X139.19Y-100.965
X141.605Y-107.95
X144.78Y-95.155
X144.78Y-97.695
X144.78Y-100.235
T3
X74.93Y-88.9
X74.93Y-106.68
X77.47Y-88.9
X77.47Y-106.68
X80.01Y-88.9
X80.01Y-106.68
X82.55Y-88.9
X82.55Y-106.68
X85.09Y-88.9
X85.09Y-106.68
X87.63Y-88.9
X87.63Y-106.68
X90.17Y-88.9
X90.17Y-106.68
X92.71Y-88.9
X92.71Y-106.68
X95.25Y-88.9
X95.25Y-106.68
X97.79Y-88.9
X97.79Y-106.68
X100.33Y-88.9
X100.33Y-106.68
X102.87Y-88.9
X102.87Y-106.68
X105.41Y-88.9
X105.41Y-106.68
X107.95Y-88.9
X107.95Y-106.68
X110.49Y-88.9
X110.49Y-106.68
X113.03Y-88.9
X113.03Y-106.68
X115.57Y-88.9
X115.57Y-106.68
X118.11Y-88.9
X118.11Y-106.68
X120.65Y-88.9
X120.65Y-106.68
X123.19Y-88.9
X123.19Y-106.68
T0
M30
