%TF.GenerationSoftware,KiCad,Pcbnew,7.0.2*%
%TF.CreationDate,2023-05-28T06:01:17+09:00*%
%TF.ProjectId,game-boy-pico-link-board,67616d65-2d62-46f7-992d-7069636f2d6c,rev?*%
%TF.SameCoordinates,Original*%
%TF.FileFunction,Drillmap*%
%TF.FilePolarity,Positive*%
%FSLAX45Y45*%
G04 Gerber Fmt 4.5, Leading zero omitted, Abs format (unit mm)*
G04 Created by KiCad (PCBNEW 7.0.2) date 2023-05-28 06:01:17*
%MOMM*%
%LPD*%
G01*
G04 APERTURE LIST*
%ADD10C,0.100000*%
%ADD11C,0.200000*%
%ADD12C,0.150000*%
%ADD13C,0.180000*%
G04 APERTURE END LIST*
D10*
X14649000Y-11068000D02*
G75*
G03*
X14749000Y-10968000I0J100000D01*
G01*
X15779000Y-10868000D02*
G75*
G03*
X15799000Y-10848000I0J20000D01*
G01*
X15499000Y-8688000D02*
G75*
G03*
X15479000Y-8668000I-20000J0D01*
G01*
X15499000Y-9248000D02*
X15499000Y-8688000D01*
X7149711Y-10967289D02*
G75*
G03*
X7249711Y-11067289I99999J-1D01*
G01*
X14649000Y-8468000D02*
X7249000Y-8468000D01*
X7249000Y-8468000D02*
G75*
G03*
X7149000Y-8568000I0J-100000D01*
G01*
X15779000Y-10068000D02*
X14769000Y-10068000D01*
X14749000Y-8568000D02*
G75*
G03*
X14649000Y-8468000I-100000J0D01*
G01*
X14749000Y-10048000D02*
G75*
G03*
X14769000Y-10068000I20000J0D01*
G01*
X15799000Y-10848000D02*
X15799000Y-10088000D01*
X14769000Y-8668000D02*
X15479000Y-8668000D01*
X7249711Y-11067289D02*
X14649000Y-11068000D01*
X14749000Y-8568000D02*
X14749000Y-8648000D01*
X15479000Y-9268000D02*
G75*
G03*
X15499000Y-9248000I0J20000D01*
G01*
X14769000Y-10868000D02*
G75*
G03*
X14749000Y-10888000I0J-20000D01*
G01*
X14749000Y-8648000D02*
G75*
G03*
X14769000Y-8668000I20000J0D01*
G01*
X14749000Y-9288000D02*
X14749000Y-10048000D01*
X7149000Y-8568000D02*
X7149711Y-10967289D01*
X14769000Y-9268000D02*
G75*
G03*
X14749000Y-9288000I0J-20000D01*
G01*
X14749000Y-10888000D02*
X14749000Y-10968000D01*
X14769000Y-10868000D02*
X15779000Y-10868000D01*
X15799000Y-10088000D02*
G75*
G03*
X15779000Y-10068000I-20000J0D01*
G01*
X14769000Y-9268000D02*
X15479000Y-9268000D01*
D11*
D12*
X7734000Y-9461500D02*
X7884000Y-9611500D01*
X7884000Y-9461500D02*
X7734000Y-9611500D01*
X7734000Y-9946500D02*
X7884000Y-10096500D01*
X7884000Y-9946500D02*
X7734000Y-10096500D01*
D13*
X7596000Y-9506500D02*
G75*
G03*
X7596000Y-9506500I-90000J0D01*
G01*
X7596000Y-10051500D02*
G75*
G03*
X7596000Y-10051500I-90000J0D01*
G01*
D11*
X7391619Y-11385524D02*
X7391619Y-11185524D01*
X7391619Y-11185524D02*
X7439238Y-11185524D01*
X7439238Y-11185524D02*
X7467809Y-11195048D01*
X7467809Y-11195048D02*
X7486857Y-11214095D01*
X7486857Y-11214095D02*
X7496381Y-11233143D01*
X7496381Y-11233143D02*
X7505905Y-11271238D01*
X7505905Y-11271238D02*
X7505905Y-11299809D01*
X7505905Y-11299809D02*
X7496381Y-11337905D01*
X7496381Y-11337905D02*
X7486857Y-11356952D01*
X7486857Y-11356952D02*
X7467809Y-11376000D01*
X7467809Y-11376000D02*
X7439238Y-11385524D01*
X7439238Y-11385524D02*
X7391619Y-11385524D01*
X7591619Y-11385524D02*
X7591619Y-11252190D01*
X7591619Y-11290286D02*
X7601143Y-11271238D01*
X7601143Y-11271238D02*
X7610667Y-11261714D01*
X7610667Y-11261714D02*
X7629714Y-11252190D01*
X7629714Y-11252190D02*
X7648762Y-11252190D01*
X7715428Y-11385524D02*
X7715428Y-11252190D01*
X7715428Y-11185524D02*
X7705905Y-11195048D01*
X7705905Y-11195048D02*
X7715428Y-11204571D01*
X7715428Y-11204571D02*
X7724952Y-11195048D01*
X7724952Y-11195048D02*
X7715428Y-11185524D01*
X7715428Y-11185524D02*
X7715428Y-11204571D01*
X7839238Y-11385524D02*
X7820190Y-11376000D01*
X7820190Y-11376000D02*
X7810667Y-11356952D01*
X7810667Y-11356952D02*
X7810667Y-11185524D01*
X7944000Y-11385524D02*
X7924952Y-11376000D01*
X7924952Y-11376000D02*
X7915428Y-11356952D01*
X7915428Y-11356952D02*
X7915428Y-11185524D01*
X8172571Y-11385524D02*
X8172571Y-11185524D01*
X8172571Y-11185524D02*
X8239238Y-11328381D01*
X8239238Y-11328381D02*
X8305905Y-11185524D01*
X8305905Y-11185524D02*
X8305905Y-11385524D01*
X8486857Y-11385524D02*
X8486857Y-11280762D01*
X8486857Y-11280762D02*
X8477333Y-11261714D01*
X8477333Y-11261714D02*
X8458286Y-11252190D01*
X8458286Y-11252190D02*
X8420190Y-11252190D01*
X8420190Y-11252190D02*
X8401143Y-11261714D01*
X8486857Y-11376000D02*
X8467810Y-11385524D01*
X8467810Y-11385524D02*
X8420190Y-11385524D01*
X8420190Y-11385524D02*
X8401143Y-11376000D01*
X8401143Y-11376000D02*
X8391619Y-11356952D01*
X8391619Y-11356952D02*
X8391619Y-11337905D01*
X8391619Y-11337905D02*
X8401143Y-11318857D01*
X8401143Y-11318857D02*
X8420190Y-11309333D01*
X8420190Y-11309333D02*
X8467810Y-11309333D01*
X8467810Y-11309333D02*
X8486857Y-11299809D01*
X8582095Y-11252190D02*
X8582095Y-11452190D01*
X8582095Y-11261714D02*
X8601143Y-11252190D01*
X8601143Y-11252190D02*
X8639238Y-11252190D01*
X8639238Y-11252190D02*
X8658286Y-11261714D01*
X8658286Y-11261714D02*
X8667810Y-11271238D01*
X8667810Y-11271238D02*
X8677333Y-11290286D01*
X8677333Y-11290286D02*
X8677333Y-11347428D01*
X8677333Y-11347428D02*
X8667810Y-11366476D01*
X8667810Y-11366476D02*
X8658286Y-11376000D01*
X8658286Y-11376000D02*
X8639238Y-11385524D01*
X8639238Y-11385524D02*
X8601143Y-11385524D01*
X8601143Y-11385524D02*
X8582095Y-11376000D01*
X8763048Y-11366476D02*
X8772571Y-11376000D01*
X8772571Y-11376000D02*
X8763048Y-11385524D01*
X8763048Y-11385524D02*
X8753524Y-11376000D01*
X8753524Y-11376000D02*
X8763048Y-11366476D01*
X8763048Y-11366476D02*
X8763048Y-11385524D01*
X8763048Y-11261714D02*
X8772571Y-11271238D01*
X8772571Y-11271238D02*
X8763048Y-11280762D01*
X8763048Y-11280762D02*
X8753524Y-11271238D01*
X8753524Y-11271238D02*
X8763048Y-11261714D01*
X8763048Y-11261714D02*
X8763048Y-11280762D01*
D12*
X6994000Y-11638000D02*
X7144000Y-11788000D01*
X7144000Y-11638000D02*
X6994000Y-11788000D01*
D11*
X7496381Y-11805524D02*
X7382095Y-11805524D01*
X7439238Y-11805524D02*
X7439238Y-11605524D01*
X7439238Y-11605524D02*
X7420190Y-11634095D01*
X7420190Y-11634095D02*
X7401143Y-11653143D01*
X7401143Y-11653143D02*
X7382095Y-11662667D01*
X7582095Y-11786476D02*
X7591619Y-11796000D01*
X7591619Y-11796000D02*
X7582095Y-11805524D01*
X7582095Y-11805524D02*
X7572571Y-11796000D01*
X7572571Y-11796000D02*
X7582095Y-11786476D01*
X7582095Y-11786476D02*
X7582095Y-11805524D01*
X7772571Y-11605524D02*
X7677333Y-11605524D01*
X7677333Y-11605524D02*
X7667809Y-11700762D01*
X7667809Y-11700762D02*
X7677333Y-11691238D01*
X7677333Y-11691238D02*
X7696381Y-11681714D01*
X7696381Y-11681714D02*
X7744000Y-11681714D01*
X7744000Y-11681714D02*
X7763048Y-11691238D01*
X7763048Y-11691238D02*
X7772571Y-11700762D01*
X7772571Y-11700762D02*
X7782095Y-11719809D01*
X7782095Y-11719809D02*
X7782095Y-11767428D01*
X7782095Y-11767428D02*
X7772571Y-11786476D01*
X7772571Y-11786476D02*
X7763048Y-11796000D01*
X7763048Y-11796000D02*
X7744000Y-11805524D01*
X7744000Y-11805524D02*
X7696381Y-11805524D01*
X7696381Y-11805524D02*
X7677333Y-11796000D01*
X7677333Y-11796000D02*
X7667809Y-11786476D01*
X7905905Y-11605524D02*
X7924952Y-11605524D01*
X7924952Y-11605524D02*
X7944000Y-11615048D01*
X7944000Y-11615048D02*
X7953524Y-11624571D01*
X7953524Y-11624571D02*
X7963048Y-11643619D01*
X7963048Y-11643619D02*
X7972571Y-11681714D01*
X7972571Y-11681714D02*
X7972571Y-11729333D01*
X7972571Y-11729333D02*
X7963048Y-11767428D01*
X7963048Y-11767428D02*
X7953524Y-11786476D01*
X7953524Y-11786476D02*
X7944000Y-11796000D01*
X7944000Y-11796000D02*
X7924952Y-11805524D01*
X7924952Y-11805524D02*
X7905905Y-11805524D01*
X7905905Y-11805524D02*
X7886857Y-11796000D01*
X7886857Y-11796000D02*
X7877333Y-11786476D01*
X7877333Y-11786476D02*
X7867809Y-11767428D01*
X7867809Y-11767428D02*
X7858286Y-11729333D01*
X7858286Y-11729333D02*
X7858286Y-11681714D01*
X7858286Y-11681714D02*
X7867809Y-11643619D01*
X7867809Y-11643619D02*
X7877333Y-11624571D01*
X7877333Y-11624571D02*
X7886857Y-11615048D01*
X7886857Y-11615048D02*
X7905905Y-11605524D01*
X8096381Y-11605524D02*
X8115429Y-11605524D01*
X8115429Y-11605524D02*
X8134476Y-11615048D01*
X8134476Y-11615048D02*
X8144000Y-11624571D01*
X8144000Y-11624571D02*
X8153524Y-11643619D01*
X8153524Y-11643619D02*
X8163048Y-11681714D01*
X8163048Y-11681714D02*
X8163048Y-11729333D01*
X8163048Y-11729333D02*
X8153524Y-11767428D01*
X8153524Y-11767428D02*
X8144000Y-11786476D01*
X8144000Y-11786476D02*
X8134476Y-11796000D01*
X8134476Y-11796000D02*
X8115429Y-11805524D01*
X8115429Y-11805524D02*
X8096381Y-11805524D01*
X8096381Y-11805524D02*
X8077333Y-11796000D01*
X8077333Y-11796000D02*
X8067809Y-11786476D01*
X8067809Y-11786476D02*
X8058286Y-11767428D01*
X8058286Y-11767428D02*
X8048762Y-11729333D01*
X8048762Y-11729333D02*
X8048762Y-11681714D01*
X8048762Y-11681714D02*
X8058286Y-11643619D01*
X8058286Y-11643619D02*
X8067809Y-11624571D01*
X8067809Y-11624571D02*
X8077333Y-11615048D01*
X8077333Y-11615048D02*
X8096381Y-11605524D01*
X8248762Y-11805524D02*
X8248762Y-11672190D01*
X8248762Y-11691238D02*
X8258286Y-11681714D01*
X8258286Y-11681714D02*
X8277333Y-11672190D01*
X8277333Y-11672190D02*
X8305905Y-11672190D01*
X8305905Y-11672190D02*
X8324952Y-11681714D01*
X8324952Y-11681714D02*
X8334476Y-11700762D01*
X8334476Y-11700762D02*
X8334476Y-11805524D01*
X8334476Y-11700762D02*
X8344000Y-11681714D01*
X8344000Y-11681714D02*
X8363048Y-11672190D01*
X8363048Y-11672190D02*
X8391619Y-11672190D01*
X8391619Y-11672190D02*
X8410667Y-11681714D01*
X8410667Y-11681714D02*
X8420191Y-11700762D01*
X8420191Y-11700762D02*
X8420191Y-11805524D01*
X8515429Y-11805524D02*
X8515429Y-11672190D01*
X8515429Y-11691238D02*
X8524952Y-11681714D01*
X8524952Y-11681714D02*
X8544000Y-11672190D01*
X8544000Y-11672190D02*
X8572572Y-11672190D01*
X8572572Y-11672190D02*
X8591619Y-11681714D01*
X8591619Y-11681714D02*
X8601143Y-11700762D01*
X8601143Y-11700762D02*
X8601143Y-11805524D01*
X8601143Y-11700762D02*
X8610667Y-11681714D01*
X8610667Y-11681714D02*
X8629714Y-11672190D01*
X8629714Y-11672190D02*
X8658286Y-11672190D01*
X8658286Y-11672190D02*
X8677333Y-11681714D01*
X8677333Y-11681714D02*
X8686857Y-11700762D01*
X8686857Y-11700762D02*
X8686857Y-11805524D01*
X9077333Y-11596000D02*
X8905905Y-11853143D01*
X9334476Y-11605524D02*
X9353524Y-11605524D01*
X9353524Y-11605524D02*
X9372572Y-11615048D01*
X9372572Y-11615048D02*
X9382095Y-11624571D01*
X9382095Y-11624571D02*
X9391619Y-11643619D01*
X9391619Y-11643619D02*
X9401143Y-11681714D01*
X9401143Y-11681714D02*
X9401143Y-11729333D01*
X9401143Y-11729333D02*
X9391619Y-11767428D01*
X9391619Y-11767428D02*
X9382095Y-11786476D01*
X9382095Y-11786476D02*
X9372572Y-11796000D01*
X9372572Y-11796000D02*
X9353524Y-11805524D01*
X9353524Y-11805524D02*
X9334476Y-11805524D01*
X9334476Y-11805524D02*
X9315429Y-11796000D01*
X9315429Y-11796000D02*
X9305905Y-11786476D01*
X9305905Y-11786476D02*
X9296381Y-11767428D01*
X9296381Y-11767428D02*
X9286857Y-11729333D01*
X9286857Y-11729333D02*
X9286857Y-11681714D01*
X9286857Y-11681714D02*
X9296381Y-11643619D01*
X9296381Y-11643619D02*
X9305905Y-11624571D01*
X9305905Y-11624571D02*
X9315429Y-11615048D01*
X9315429Y-11615048D02*
X9334476Y-11605524D01*
X9486857Y-11786476D02*
X9496381Y-11796000D01*
X9496381Y-11796000D02*
X9486857Y-11805524D01*
X9486857Y-11805524D02*
X9477334Y-11796000D01*
X9477334Y-11796000D02*
X9486857Y-11786476D01*
X9486857Y-11786476D02*
X9486857Y-11805524D01*
X9620191Y-11605524D02*
X9639238Y-11605524D01*
X9639238Y-11605524D02*
X9658286Y-11615048D01*
X9658286Y-11615048D02*
X9667810Y-11624571D01*
X9667810Y-11624571D02*
X9677334Y-11643619D01*
X9677334Y-11643619D02*
X9686857Y-11681714D01*
X9686857Y-11681714D02*
X9686857Y-11729333D01*
X9686857Y-11729333D02*
X9677334Y-11767428D01*
X9677334Y-11767428D02*
X9667810Y-11786476D01*
X9667810Y-11786476D02*
X9658286Y-11796000D01*
X9658286Y-11796000D02*
X9639238Y-11805524D01*
X9639238Y-11805524D02*
X9620191Y-11805524D01*
X9620191Y-11805524D02*
X9601143Y-11796000D01*
X9601143Y-11796000D02*
X9591619Y-11786476D01*
X9591619Y-11786476D02*
X9582095Y-11767428D01*
X9582095Y-11767428D02*
X9572572Y-11729333D01*
X9572572Y-11729333D02*
X9572572Y-11681714D01*
X9572572Y-11681714D02*
X9582095Y-11643619D01*
X9582095Y-11643619D02*
X9591619Y-11624571D01*
X9591619Y-11624571D02*
X9601143Y-11615048D01*
X9601143Y-11615048D02*
X9620191Y-11605524D01*
X9867810Y-11605524D02*
X9772572Y-11605524D01*
X9772572Y-11605524D02*
X9763048Y-11700762D01*
X9763048Y-11700762D02*
X9772572Y-11691238D01*
X9772572Y-11691238D02*
X9791619Y-11681714D01*
X9791619Y-11681714D02*
X9839238Y-11681714D01*
X9839238Y-11681714D02*
X9858286Y-11691238D01*
X9858286Y-11691238D02*
X9867810Y-11700762D01*
X9867810Y-11700762D02*
X9877334Y-11719809D01*
X9877334Y-11719809D02*
X9877334Y-11767428D01*
X9877334Y-11767428D02*
X9867810Y-11786476D01*
X9867810Y-11786476D02*
X9858286Y-11796000D01*
X9858286Y-11796000D02*
X9839238Y-11805524D01*
X9839238Y-11805524D02*
X9791619Y-11805524D01*
X9791619Y-11805524D02*
X9772572Y-11796000D01*
X9772572Y-11796000D02*
X9763048Y-11786476D01*
X9972572Y-11805524D02*
X10010667Y-11805524D01*
X10010667Y-11805524D02*
X10029715Y-11796000D01*
X10029715Y-11796000D02*
X10039238Y-11786476D01*
X10039238Y-11786476D02*
X10058286Y-11757905D01*
X10058286Y-11757905D02*
X10067810Y-11719809D01*
X10067810Y-11719809D02*
X10067810Y-11643619D01*
X10067810Y-11643619D02*
X10058286Y-11624571D01*
X10058286Y-11624571D02*
X10048762Y-11615048D01*
X10048762Y-11615048D02*
X10029715Y-11605524D01*
X10029715Y-11605524D02*
X9991619Y-11605524D01*
X9991619Y-11605524D02*
X9972572Y-11615048D01*
X9972572Y-11615048D02*
X9963048Y-11624571D01*
X9963048Y-11624571D02*
X9953524Y-11643619D01*
X9953524Y-11643619D02*
X9953524Y-11691238D01*
X9953524Y-11691238D02*
X9963048Y-11710286D01*
X9963048Y-11710286D02*
X9972572Y-11719809D01*
X9972572Y-11719809D02*
X9991619Y-11729333D01*
X9991619Y-11729333D02*
X10029715Y-11729333D01*
X10029715Y-11729333D02*
X10048762Y-11719809D01*
X10048762Y-11719809D02*
X10058286Y-11710286D01*
X10058286Y-11710286D02*
X10067810Y-11691238D01*
X10258286Y-11805524D02*
X10144000Y-11805524D01*
X10201143Y-11805524D02*
X10201143Y-11605524D01*
X10201143Y-11605524D02*
X10182095Y-11634095D01*
X10182095Y-11634095D02*
X10163048Y-11653143D01*
X10163048Y-11653143D02*
X10144000Y-11662667D01*
X10334476Y-11605524D02*
X10334476Y-11643619D01*
X10410667Y-11605524D02*
X10410667Y-11643619D01*
X10705905Y-11881714D02*
X10696381Y-11872190D01*
X10696381Y-11872190D02*
X10677334Y-11843619D01*
X10677334Y-11843619D02*
X10667810Y-11824571D01*
X10667810Y-11824571D02*
X10658286Y-11796000D01*
X10658286Y-11796000D02*
X10648762Y-11748381D01*
X10648762Y-11748381D02*
X10648762Y-11710286D01*
X10648762Y-11710286D02*
X10658286Y-11662667D01*
X10658286Y-11662667D02*
X10667810Y-11634095D01*
X10667810Y-11634095D02*
X10677334Y-11615048D01*
X10677334Y-11615048D02*
X10696381Y-11586476D01*
X10696381Y-11586476D02*
X10705905Y-11576952D01*
X10772572Y-11624571D02*
X10782096Y-11615048D01*
X10782096Y-11615048D02*
X10801143Y-11605524D01*
X10801143Y-11605524D02*
X10848762Y-11605524D01*
X10848762Y-11605524D02*
X10867810Y-11615048D01*
X10867810Y-11615048D02*
X10877334Y-11624571D01*
X10877334Y-11624571D02*
X10886857Y-11643619D01*
X10886857Y-11643619D02*
X10886857Y-11662667D01*
X10886857Y-11662667D02*
X10877334Y-11691238D01*
X10877334Y-11691238D02*
X10763048Y-11805524D01*
X10763048Y-11805524D02*
X10886857Y-11805524D01*
X11124953Y-11805524D02*
X11124953Y-11605524D01*
X11210667Y-11805524D02*
X11210667Y-11700762D01*
X11210667Y-11700762D02*
X11201143Y-11681714D01*
X11201143Y-11681714D02*
X11182096Y-11672190D01*
X11182096Y-11672190D02*
X11153524Y-11672190D01*
X11153524Y-11672190D02*
X11134477Y-11681714D01*
X11134477Y-11681714D02*
X11124953Y-11691238D01*
X11334476Y-11805524D02*
X11315429Y-11796000D01*
X11315429Y-11796000D02*
X11305905Y-11786476D01*
X11305905Y-11786476D02*
X11296381Y-11767428D01*
X11296381Y-11767428D02*
X11296381Y-11710286D01*
X11296381Y-11710286D02*
X11305905Y-11691238D01*
X11305905Y-11691238D02*
X11315429Y-11681714D01*
X11315429Y-11681714D02*
X11334476Y-11672190D01*
X11334476Y-11672190D02*
X11363048Y-11672190D01*
X11363048Y-11672190D02*
X11382096Y-11681714D01*
X11382096Y-11681714D02*
X11391619Y-11691238D01*
X11391619Y-11691238D02*
X11401143Y-11710286D01*
X11401143Y-11710286D02*
X11401143Y-11767428D01*
X11401143Y-11767428D02*
X11391619Y-11786476D01*
X11391619Y-11786476D02*
X11382096Y-11796000D01*
X11382096Y-11796000D02*
X11363048Y-11805524D01*
X11363048Y-11805524D02*
X11334476Y-11805524D01*
X11515429Y-11805524D02*
X11496381Y-11796000D01*
X11496381Y-11796000D02*
X11486857Y-11776952D01*
X11486857Y-11776952D02*
X11486857Y-11605524D01*
X11667810Y-11796000D02*
X11648762Y-11805524D01*
X11648762Y-11805524D02*
X11610667Y-11805524D01*
X11610667Y-11805524D02*
X11591619Y-11796000D01*
X11591619Y-11796000D02*
X11582096Y-11776952D01*
X11582096Y-11776952D02*
X11582096Y-11700762D01*
X11582096Y-11700762D02*
X11591619Y-11681714D01*
X11591619Y-11681714D02*
X11610667Y-11672190D01*
X11610667Y-11672190D02*
X11648762Y-11672190D01*
X11648762Y-11672190D02*
X11667810Y-11681714D01*
X11667810Y-11681714D02*
X11677334Y-11700762D01*
X11677334Y-11700762D02*
X11677334Y-11719809D01*
X11677334Y-11719809D02*
X11582096Y-11738857D01*
X11753524Y-11796000D02*
X11772572Y-11805524D01*
X11772572Y-11805524D02*
X11810667Y-11805524D01*
X11810667Y-11805524D02*
X11829715Y-11796000D01*
X11829715Y-11796000D02*
X11839238Y-11776952D01*
X11839238Y-11776952D02*
X11839238Y-11767428D01*
X11839238Y-11767428D02*
X11829715Y-11748381D01*
X11829715Y-11748381D02*
X11810667Y-11738857D01*
X11810667Y-11738857D02*
X11782096Y-11738857D01*
X11782096Y-11738857D02*
X11763048Y-11729333D01*
X11763048Y-11729333D02*
X11753524Y-11710286D01*
X11753524Y-11710286D02*
X11753524Y-11700762D01*
X11753524Y-11700762D02*
X11763048Y-11681714D01*
X11763048Y-11681714D02*
X11782096Y-11672190D01*
X11782096Y-11672190D02*
X11810667Y-11672190D01*
X11810667Y-11672190D02*
X11829715Y-11681714D01*
X11905905Y-11881714D02*
X11915429Y-11872190D01*
X11915429Y-11872190D02*
X11934477Y-11843619D01*
X11934477Y-11843619D02*
X11944000Y-11824571D01*
X11944000Y-11824571D02*
X11953524Y-11796000D01*
X11953524Y-11796000D02*
X11963048Y-11748381D01*
X11963048Y-11748381D02*
X11963048Y-11710286D01*
X11963048Y-11710286D02*
X11953524Y-11662667D01*
X11953524Y-11662667D02*
X11944000Y-11634095D01*
X11944000Y-11634095D02*
X11934477Y-11615048D01*
X11934477Y-11615048D02*
X11915429Y-11586476D01*
X11915429Y-11586476D02*
X11905905Y-11576952D01*
X12267810Y-11881714D02*
X12258286Y-11872190D01*
X12258286Y-11872190D02*
X12239238Y-11843619D01*
X12239238Y-11843619D02*
X12229715Y-11824571D01*
X12229715Y-11824571D02*
X12220191Y-11796000D01*
X12220191Y-11796000D02*
X12210667Y-11748381D01*
X12210667Y-11748381D02*
X12210667Y-11710286D01*
X12210667Y-11710286D02*
X12220191Y-11662667D01*
X12220191Y-11662667D02*
X12229715Y-11634095D01*
X12229715Y-11634095D02*
X12239238Y-11615048D01*
X12239238Y-11615048D02*
X12258286Y-11586476D01*
X12258286Y-11586476D02*
X12267810Y-11576952D01*
X12344000Y-11672190D02*
X12344000Y-11805524D01*
X12344000Y-11691238D02*
X12353524Y-11681714D01*
X12353524Y-11681714D02*
X12372572Y-11672190D01*
X12372572Y-11672190D02*
X12401143Y-11672190D01*
X12401143Y-11672190D02*
X12420191Y-11681714D01*
X12420191Y-11681714D02*
X12429715Y-11700762D01*
X12429715Y-11700762D02*
X12429715Y-11805524D01*
X12553524Y-11805524D02*
X12534477Y-11796000D01*
X12534477Y-11796000D02*
X12524953Y-11786476D01*
X12524953Y-11786476D02*
X12515429Y-11767428D01*
X12515429Y-11767428D02*
X12515429Y-11710286D01*
X12515429Y-11710286D02*
X12524953Y-11691238D01*
X12524953Y-11691238D02*
X12534477Y-11681714D01*
X12534477Y-11681714D02*
X12553524Y-11672190D01*
X12553524Y-11672190D02*
X12582096Y-11672190D01*
X12582096Y-11672190D02*
X12601143Y-11681714D01*
X12601143Y-11681714D02*
X12610667Y-11691238D01*
X12610667Y-11691238D02*
X12620191Y-11710286D01*
X12620191Y-11710286D02*
X12620191Y-11767428D01*
X12620191Y-11767428D02*
X12610667Y-11786476D01*
X12610667Y-11786476D02*
X12601143Y-11796000D01*
X12601143Y-11796000D02*
X12582096Y-11805524D01*
X12582096Y-11805524D02*
X12553524Y-11805524D01*
X12677334Y-11672190D02*
X12753524Y-11672190D01*
X12705905Y-11605524D02*
X12705905Y-11776952D01*
X12705905Y-11776952D02*
X12715429Y-11796000D01*
X12715429Y-11796000D02*
X12734477Y-11805524D01*
X12734477Y-11805524D02*
X12753524Y-11805524D01*
X12972572Y-11672190D02*
X12972572Y-11872190D01*
X12972572Y-11681714D02*
X12991619Y-11672190D01*
X12991619Y-11672190D02*
X13029715Y-11672190D01*
X13029715Y-11672190D02*
X13048762Y-11681714D01*
X13048762Y-11681714D02*
X13058286Y-11691238D01*
X13058286Y-11691238D02*
X13067810Y-11710286D01*
X13067810Y-11710286D02*
X13067810Y-11767428D01*
X13067810Y-11767428D02*
X13058286Y-11786476D01*
X13058286Y-11786476D02*
X13048762Y-11796000D01*
X13048762Y-11796000D02*
X13029715Y-11805524D01*
X13029715Y-11805524D02*
X12991619Y-11805524D01*
X12991619Y-11805524D02*
X12972572Y-11796000D01*
X13182096Y-11805524D02*
X13163048Y-11796000D01*
X13163048Y-11796000D02*
X13153524Y-11776952D01*
X13153524Y-11776952D02*
X13153524Y-11605524D01*
X13344000Y-11805524D02*
X13344000Y-11700762D01*
X13344000Y-11700762D02*
X13334477Y-11681714D01*
X13334477Y-11681714D02*
X13315429Y-11672190D01*
X13315429Y-11672190D02*
X13277334Y-11672190D01*
X13277334Y-11672190D02*
X13258286Y-11681714D01*
X13344000Y-11796000D02*
X13324953Y-11805524D01*
X13324953Y-11805524D02*
X13277334Y-11805524D01*
X13277334Y-11805524D02*
X13258286Y-11796000D01*
X13258286Y-11796000D02*
X13248762Y-11776952D01*
X13248762Y-11776952D02*
X13248762Y-11757905D01*
X13248762Y-11757905D02*
X13258286Y-11738857D01*
X13258286Y-11738857D02*
X13277334Y-11729333D01*
X13277334Y-11729333D02*
X13324953Y-11729333D01*
X13324953Y-11729333D02*
X13344000Y-11719809D01*
X13410667Y-11672190D02*
X13486858Y-11672190D01*
X13439239Y-11605524D02*
X13439239Y-11776952D01*
X13439239Y-11776952D02*
X13448762Y-11796000D01*
X13448762Y-11796000D02*
X13467810Y-11805524D01*
X13467810Y-11805524D02*
X13486858Y-11805524D01*
X13629715Y-11796000D02*
X13610667Y-11805524D01*
X13610667Y-11805524D02*
X13572572Y-11805524D01*
X13572572Y-11805524D02*
X13553524Y-11796000D01*
X13553524Y-11796000D02*
X13544000Y-11776952D01*
X13544000Y-11776952D02*
X13544000Y-11700762D01*
X13544000Y-11700762D02*
X13553524Y-11681714D01*
X13553524Y-11681714D02*
X13572572Y-11672190D01*
X13572572Y-11672190D02*
X13610667Y-11672190D01*
X13610667Y-11672190D02*
X13629715Y-11681714D01*
X13629715Y-11681714D02*
X13639239Y-11700762D01*
X13639239Y-11700762D02*
X13639239Y-11719809D01*
X13639239Y-11719809D02*
X13544000Y-11738857D01*
X13810667Y-11805524D02*
X13810667Y-11605524D01*
X13810667Y-11796000D02*
X13791620Y-11805524D01*
X13791620Y-11805524D02*
X13753524Y-11805524D01*
X13753524Y-11805524D02*
X13734477Y-11796000D01*
X13734477Y-11796000D02*
X13724953Y-11786476D01*
X13724953Y-11786476D02*
X13715429Y-11767428D01*
X13715429Y-11767428D02*
X13715429Y-11710286D01*
X13715429Y-11710286D02*
X13724953Y-11691238D01*
X13724953Y-11691238D02*
X13734477Y-11681714D01*
X13734477Y-11681714D02*
X13753524Y-11672190D01*
X13753524Y-11672190D02*
X13791620Y-11672190D01*
X13791620Y-11672190D02*
X13810667Y-11681714D01*
X13886858Y-11881714D02*
X13896381Y-11872190D01*
X13896381Y-11872190D02*
X13915429Y-11843619D01*
X13915429Y-11843619D02*
X13924953Y-11824571D01*
X13924953Y-11824571D02*
X13934477Y-11796000D01*
X13934477Y-11796000D02*
X13944000Y-11748381D01*
X13944000Y-11748381D02*
X13944000Y-11710286D01*
X13944000Y-11710286D02*
X13934477Y-11662667D01*
X13934477Y-11662667D02*
X13924953Y-11634095D01*
X13924953Y-11634095D02*
X13915429Y-11615048D01*
X13915429Y-11615048D02*
X13896381Y-11586476D01*
X13896381Y-11586476D02*
X13886858Y-11576952D01*
D13*
X7144000Y-11983000D02*
G75*
G03*
X7144000Y-11983000I-90000J0D01*
G01*
D11*
X7496381Y-12075524D02*
X7382095Y-12075524D01*
X7439238Y-12075524D02*
X7439238Y-11875524D01*
X7439238Y-11875524D02*
X7420190Y-11904095D01*
X7420190Y-11904095D02*
X7401143Y-11923143D01*
X7401143Y-11923143D02*
X7382095Y-11932667D01*
X7582095Y-12056476D02*
X7591619Y-12066000D01*
X7591619Y-12066000D02*
X7582095Y-12075524D01*
X7582095Y-12075524D02*
X7572571Y-12066000D01*
X7572571Y-12066000D02*
X7582095Y-12056476D01*
X7582095Y-12056476D02*
X7582095Y-12075524D01*
X7705905Y-11961238D02*
X7686857Y-11951714D01*
X7686857Y-11951714D02*
X7677333Y-11942190D01*
X7677333Y-11942190D02*
X7667809Y-11923143D01*
X7667809Y-11923143D02*
X7667809Y-11913619D01*
X7667809Y-11913619D02*
X7677333Y-11894571D01*
X7677333Y-11894571D02*
X7686857Y-11885048D01*
X7686857Y-11885048D02*
X7705905Y-11875524D01*
X7705905Y-11875524D02*
X7744000Y-11875524D01*
X7744000Y-11875524D02*
X7763048Y-11885048D01*
X7763048Y-11885048D02*
X7772571Y-11894571D01*
X7772571Y-11894571D02*
X7782095Y-11913619D01*
X7782095Y-11913619D02*
X7782095Y-11923143D01*
X7782095Y-11923143D02*
X7772571Y-11942190D01*
X7772571Y-11942190D02*
X7763048Y-11951714D01*
X7763048Y-11951714D02*
X7744000Y-11961238D01*
X7744000Y-11961238D02*
X7705905Y-11961238D01*
X7705905Y-11961238D02*
X7686857Y-11970762D01*
X7686857Y-11970762D02*
X7677333Y-11980286D01*
X7677333Y-11980286D02*
X7667809Y-11999333D01*
X7667809Y-11999333D02*
X7667809Y-12037428D01*
X7667809Y-12037428D02*
X7677333Y-12056476D01*
X7677333Y-12056476D02*
X7686857Y-12066000D01*
X7686857Y-12066000D02*
X7705905Y-12075524D01*
X7705905Y-12075524D02*
X7744000Y-12075524D01*
X7744000Y-12075524D02*
X7763048Y-12066000D01*
X7763048Y-12066000D02*
X7772571Y-12056476D01*
X7772571Y-12056476D02*
X7782095Y-12037428D01*
X7782095Y-12037428D02*
X7782095Y-11999333D01*
X7782095Y-11999333D02*
X7772571Y-11980286D01*
X7772571Y-11980286D02*
X7763048Y-11970762D01*
X7763048Y-11970762D02*
X7744000Y-11961238D01*
X7905905Y-11875524D02*
X7924952Y-11875524D01*
X7924952Y-11875524D02*
X7944000Y-11885048D01*
X7944000Y-11885048D02*
X7953524Y-11894571D01*
X7953524Y-11894571D02*
X7963048Y-11913619D01*
X7963048Y-11913619D02*
X7972571Y-11951714D01*
X7972571Y-11951714D02*
X7972571Y-11999333D01*
X7972571Y-11999333D02*
X7963048Y-12037428D01*
X7963048Y-12037428D02*
X7953524Y-12056476D01*
X7953524Y-12056476D02*
X7944000Y-12066000D01*
X7944000Y-12066000D02*
X7924952Y-12075524D01*
X7924952Y-12075524D02*
X7905905Y-12075524D01*
X7905905Y-12075524D02*
X7886857Y-12066000D01*
X7886857Y-12066000D02*
X7877333Y-12056476D01*
X7877333Y-12056476D02*
X7867809Y-12037428D01*
X7867809Y-12037428D02*
X7858286Y-11999333D01*
X7858286Y-11999333D02*
X7858286Y-11951714D01*
X7858286Y-11951714D02*
X7867809Y-11913619D01*
X7867809Y-11913619D02*
X7877333Y-11894571D01*
X7877333Y-11894571D02*
X7886857Y-11885048D01*
X7886857Y-11885048D02*
X7905905Y-11875524D01*
X8096381Y-11875524D02*
X8115429Y-11875524D01*
X8115429Y-11875524D02*
X8134476Y-11885048D01*
X8134476Y-11885048D02*
X8144000Y-11894571D01*
X8144000Y-11894571D02*
X8153524Y-11913619D01*
X8153524Y-11913619D02*
X8163048Y-11951714D01*
X8163048Y-11951714D02*
X8163048Y-11999333D01*
X8163048Y-11999333D02*
X8153524Y-12037428D01*
X8153524Y-12037428D02*
X8144000Y-12056476D01*
X8144000Y-12056476D02*
X8134476Y-12066000D01*
X8134476Y-12066000D02*
X8115429Y-12075524D01*
X8115429Y-12075524D02*
X8096381Y-12075524D01*
X8096381Y-12075524D02*
X8077333Y-12066000D01*
X8077333Y-12066000D02*
X8067809Y-12056476D01*
X8067809Y-12056476D02*
X8058286Y-12037428D01*
X8058286Y-12037428D02*
X8048762Y-11999333D01*
X8048762Y-11999333D02*
X8048762Y-11951714D01*
X8048762Y-11951714D02*
X8058286Y-11913619D01*
X8058286Y-11913619D02*
X8067809Y-11894571D01*
X8067809Y-11894571D02*
X8077333Y-11885048D01*
X8077333Y-11885048D02*
X8096381Y-11875524D01*
X8248762Y-12075524D02*
X8248762Y-11942190D01*
X8248762Y-11961238D02*
X8258286Y-11951714D01*
X8258286Y-11951714D02*
X8277333Y-11942190D01*
X8277333Y-11942190D02*
X8305905Y-11942190D01*
X8305905Y-11942190D02*
X8324952Y-11951714D01*
X8324952Y-11951714D02*
X8334476Y-11970762D01*
X8334476Y-11970762D02*
X8334476Y-12075524D01*
X8334476Y-11970762D02*
X8344000Y-11951714D01*
X8344000Y-11951714D02*
X8363048Y-11942190D01*
X8363048Y-11942190D02*
X8391619Y-11942190D01*
X8391619Y-11942190D02*
X8410667Y-11951714D01*
X8410667Y-11951714D02*
X8420191Y-11970762D01*
X8420191Y-11970762D02*
X8420191Y-12075524D01*
X8515429Y-12075524D02*
X8515429Y-11942190D01*
X8515429Y-11961238D02*
X8524952Y-11951714D01*
X8524952Y-11951714D02*
X8544000Y-11942190D01*
X8544000Y-11942190D02*
X8572572Y-11942190D01*
X8572572Y-11942190D02*
X8591619Y-11951714D01*
X8591619Y-11951714D02*
X8601143Y-11970762D01*
X8601143Y-11970762D02*
X8601143Y-12075524D01*
X8601143Y-11970762D02*
X8610667Y-11951714D01*
X8610667Y-11951714D02*
X8629714Y-11942190D01*
X8629714Y-11942190D02*
X8658286Y-11942190D01*
X8658286Y-11942190D02*
X8677333Y-11951714D01*
X8677333Y-11951714D02*
X8686857Y-11970762D01*
X8686857Y-11970762D02*
X8686857Y-12075524D01*
X9077333Y-11866000D02*
X8905905Y-12123143D01*
X9334476Y-11875524D02*
X9353524Y-11875524D01*
X9353524Y-11875524D02*
X9372572Y-11885048D01*
X9372572Y-11885048D02*
X9382095Y-11894571D01*
X9382095Y-11894571D02*
X9391619Y-11913619D01*
X9391619Y-11913619D02*
X9401143Y-11951714D01*
X9401143Y-11951714D02*
X9401143Y-11999333D01*
X9401143Y-11999333D02*
X9391619Y-12037428D01*
X9391619Y-12037428D02*
X9382095Y-12056476D01*
X9382095Y-12056476D02*
X9372572Y-12066000D01*
X9372572Y-12066000D02*
X9353524Y-12075524D01*
X9353524Y-12075524D02*
X9334476Y-12075524D01*
X9334476Y-12075524D02*
X9315429Y-12066000D01*
X9315429Y-12066000D02*
X9305905Y-12056476D01*
X9305905Y-12056476D02*
X9296381Y-12037428D01*
X9296381Y-12037428D02*
X9286857Y-11999333D01*
X9286857Y-11999333D02*
X9286857Y-11951714D01*
X9286857Y-11951714D02*
X9296381Y-11913619D01*
X9296381Y-11913619D02*
X9305905Y-11894571D01*
X9305905Y-11894571D02*
X9315429Y-11885048D01*
X9315429Y-11885048D02*
X9334476Y-11875524D01*
X9486857Y-12056476D02*
X9496381Y-12066000D01*
X9496381Y-12066000D02*
X9486857Y-12075524D01*
X9486857Y-12075524D02*
X9477334Y-12066000D01*
X9477334Y-12066000D02*
X9486857Y-12056476D01*
X9486857Y-12056476D02*
X9486857Y-12075524D01*
X9620191Y-11875524D02*
X9639238Y-11875524D01*
X9639238Y-11875524D02*
X9658286Y-11885048D01*
X9658286Y-11885048D02*
X9667810Y-11894571D01*
X9667810Y-11894571D02*
X9677334Y-11913619D01*
X9677334Y-11913619D02*
X9686857Y-11951714D01*
X9686857Y-11951714D02*
X9686857Y-11999333D01*
X9686857Y-11999333D02*
X9677334Y-12037428D01*
X9677334Y-12037428D02*
X9667810Y-12056476D01*
X9667810Y-12056476D02*
X9658286Y-12066000D01*
X9658286Y-12066000D02*
X9639238Y-12075524D01*
X9639238Y-12075524D02*
X9620191Y-12075524D01*
X9620191Y-12075524D02*
X9601143Y-12066000D01*
X9601143Y-12066000D02*
X9591619Y-12056476D01*
X9591619Y-12056476D02*
X9582095Y-12037428D01*
X9582095Y-12037428D02*
X9572572Y-11999333D01*
X9572572Y-11999333D02*
X9572572Y-11951714D01*
X9572572Y-11951714D02*
X9582095Y-11913619D01*
X9582095Y-11913619D02*
X9591619Y-11894571D01*
X9591619Y-11894571D02*
X9601143Y-11885048D01*
X9601143Y-11885048D02*
X9620191Y-11875524D01*
X9753524Y-11875524D02*
X9886857Y-11875524D01*
X9886857Y-11875524D02*
X9801143Y-12075524D01*
X10001143Y-11875524D02*
X10020191Y-11875524D01*
X10020191Y-11875524D02*
X10039238Y-11885048D01*
X10039238Y-11885048D02*
X10048762Y-11894571D01*
X10048762Y-11894571D02*
X10058286Y-11913619D01*
X10058286Y-11913619D02*
X10067810Y-11951714D01*
X10067810Y-11951714D02*
X10067810Y-11999333D01*
X10067810Y-11999333D02*
X10058286Y-12037428D01*
X10058286Y-12037428D02*
X10048762Y-12056476D01*
X10048762Y-12056476D02*
X10039238Y-12066000D01*
X10039238Y-12066000D02*
X10020191Y-12075524D01*
X10020191Y-12075524D02*
X10001143Y-12075524D01*
X10001143Y-12075524D02*
X9982095Y-12066000D01*
X9982095Y-12066000D02*
X9972572Y-12056476D01*
X9972572Y-12056476D02*
X9963048Y-12037428D01*
X9963048Y-12037428D02*
X9953524Y-11999333D01*
X9953524Y-11999333D02*
X9953524Y-11951714D01*
X9953524Y-11951714D02*
X9963048Y-11913619D01*
X9963048Y-11913619D02*
X9972572Y-11894571D01*
X9972572Y-11894571D02*
X9982095Y-11885048D01*
X9982095Y-11885048D02*
X10001143Y-11875524D01*
X10163048Y-12075524D02*
X10201143Y-12075524D01*
X10201143Y-12075524D02*
X10220191Y-12066000D01*
X10220191Y-12066000D02*
X10229715Y-12056476D01*
X10229715Y-12056476D02*
X10248762Y-12027905D01*
X10248762Y-12027905D02*
X10258286Y-11989809D01*
X10258286Y-11989809D02*
X10258286Y-11913619D01*
X10258286Y-11913619D02*
X10248762Y-11894571D01*
X10248762Y-11894571D02*
X10239238Y-11885048D01*
X10239238Y-11885048D02*
X10220191Y-11875524D01*
X10220191Y-11875524D02*
X10182095Y-11875524D01*
X10182095Y-11875524D02*
X10163048Y-11885048D01*
X10163048Y-11885048D02*
X10153524Y-11894571D01*
X10153524Y-11894571D02*
X10144000Y-11913619D01*
X10144000Y-11913619D02*
X10144000Y-11961238D01*
X10144000Y-11961238D02*
X10153524Y-11980286D01*
X10153524Y-11980286D02*
X10163048Y-11989809D01*
X10163048Y-11989809D02*
X10182095Y-11999333D01*
X10182095Y-11999333D02*
X10220191Y-11999333D01*
X10220191Y-11999333D02*
X10239238Y-11989809D01*
X10239238Y-11989809D02*
X10248762Y-11980286D01*
X10248762Y-11980286D02*
X10258286Y-11961238D01*
X10334476Y-11875524D02*
X10334476Y-11913619D01*
X10410667Y-11875524D02*
X10410667Y-11913619D01*
X10705905Y-12151714D02*
X10696381Y-12142190D01*
X10696381Y-12142190D02*
X10677334Y-12113619D01*
X10677334Y-12113619D02*
X10667810Y-12094571D01*
X10667810Y-12094571D02*
X10658286Y-12066000D01*
X10658286Y-12066000D02*
X10648762Y-12018381D01*
X10648762Y-12018381D02*
X10648762Y-11980286D01*
X10648762Y-11980286D02*
X10658286Y-11932667D01*
X10658286Y-11932667D02*
X10667810Y-11904095D01*
X10667810Y-11904095D02*
X10677334Y-11885048D01*
X10677334Y-11885048D02*
X10696381Y-11856476D01*
X10696381Y-11856476D02*
X10705905Y-11846952D01*
X10772572Y-11894571D02*
X10782096Y-11885048D01*
X10782096Y-11885048D02*
X10801143Y-11875524D01*
X10801143Y-11875524D02*
X10848762Y-11875524D01*
X10848762Y-11875524D02*
X10867810Y-11885048D01*
X10867810Y-11885048D02*
X10877334Y-11894571D01*
X10877334Y-11894571D02*
X10886857Y-11913619D01*
X10886857Y-11913619D02*
X10886857Y-11932667D01*
X10886857Y-11932667D02*
X10877334Y-11961238D01*
X10877334Y-11961238D02*
X10763048Y-12075524D01*
X10763048Y-12075524D02*
X10886857Y-12075524D01*
X11124953Y-12075524D02*
X11124953Y-11875524D01*
X11210667Y-12075524D02*
X11210667Y-11970762D01*
X11210667Y-11970762D02*
X11201143Y-11951714D01*
X11201143Y-11951714D02*
X11182096Y-11942190D01*
X11182096Y-11942190D02*
X11153524Y-11942190D01*
X11153524Y-11942190D02*
X11134477Y-11951714D01*
X11134477Y-11951714D02*
X11124953Y-11961238D01*
X11334476Y-12075524D02*
X11315429Y-12066000D01*
X11315429Y-12066000D02*
X11305905Y-12056476D01*
X11305905Y-12056476D02*
X11296381Y-12037428D01*
X11296381Y-12037428D02*
X11296381Y-11980286D01*
X11296381Y-11980286D02*
X11305905Y-11961238D01*
X11305905Y-11961238D02*
X11315429Y-11951714D01*
X11315429Y-11951714D02*
X11334476Y-11942190D01*
X11334476Y-11942190D02*
X11363048Y-11942190D01*
X11363048Y-11942190D02*
X11382096Y-11951714D01*
X11382096Y-11951714D02*
X11391619Y-11961238D01*
X11391619Y-11961238D02*
X11401143Y-11980286D01*
X11401143Y-11980286D02*
X11401143Y-12037428D01*
X11401143Y-12037428D02*
X11391619Y-12056476D01*
X11391619Y-12056476D02*
X11382096Y-12066000D01*
X11382096Y-12066000D02*
X11363048Y-12075524D01*
X11363048Y-12075524D02*
X11334476Y-12075524D01*
X11515429Y-12075524D02*
X11496381Y-12066000D01*
X11496381Y-12066000D02*
X11486857Y-12046952D01*
X11486857Y-12046952D02*
X11486857Y-11875524D01*
X11667810Y-12066000D02*
X11648762Y-12075524D01*
X11648762Y-12075524D02*
X11610667Y-12075524D01*
X11610667Y-12075524D02*
X11591619Y-12066000D01*
X11591619Y-12066000D02*
X11582096Y-12046952D01*
X11582096Y-12046952D02*
X11582096Y-11970762D01*
X11582096Y-11970762D02*
X11591619Y-11951714D01*
X11591619Y-11951714D02*
X11610667Y-11942190D01*
X11610667Y-11942190D02*
X11648762Y-11942190D01*
X11648762Y-11942190D02*
X11667810Y-11951714D01*
X11667810Y-11951714D02*
X11677334Y-11970762D01*
X11677334Y-11970762D02*
X11677334Y-11989809D01*
X11677334Y-11989809D02*
X11582096Y-12008857D01*
X11753524Y-12066000D02*
X11772572Y-12075524D01*
X11772572Y-12075524D02*
X11810667Y-12075524D01*
X11810667Y-12075524D02*
X11829715Y-12066000D01*
X11829715Y-12066000D02*
X11839238Y-12046952D01*
X11839238Y-12046952D02*
X11839238Y-12037428D01*
X11839238Y-12037428D02*
X11829715Y-12018381D01*
X11829715Y-12018381D02*
X11810667Y-12008857D01*
X11810667Y-12008857D02*
X11782096Y-12008857D01*
X11782096Y-12008857D02*
X11763048Y-11999333D01*
X11763048Y-11999333D02*
X11753524Y-11980286D01*
X11753524Y-11980286D02*
X11753524Y-11970762D01*
X11753524Y-11970762D02*
X11763048Y-11951714D01*
X11763048Y-11951714D02*
X11782096Y-11942190D01*
X11782096Y-11942190D02*
X11810667Y-11942190D01*
X11810667Y-11942190D02*
X11829715Y-11951714D01*
X11905905Y-12151714D02*
X11915429Y-12142190D01*
X11915429Y-12142190D02*
X11934477Y-12113619D01*
X11934477Y-12113619D02*
X11944000Y-12094571D01*
X11944000Y-12094571D02*
X11953524Y-12066000D01*
X11953524Y-12066000D02*
X11963048Y-12018381D01*
X11963048Y-12018381D02*
X11963048Y-11980286D01*
X11963048Y-11980286D02*
X11953524Y-11932667D01*
X11953524Y-11932667D02*
X11944000Y-11904095D01*
X11944000Y-11904095D02*
X11934477Y-11885048D01*
X11934477Y-11885048D02*
X11915429Y-11856476D01*
X11915429Y-11856476D02*
X11905905Y-11846952D01*
X12267810Y-12151714D02*
X12258286Y-12142190D01*
X12258286Y-12142190D02*
X12239238Y-12113619D01*
X12239238Y-12113619D02*
X12229715Y-12094571D01*
X12229715Y-12094571D02*
X12220191Y-12066000D01*
X12220191Y-12066000D02*
X12210667Y-12018381D01*
X12210667Y-12018381D02*
X12210667Y-11980286D01*
X12210667Y-11980286D02*
X12220191Y-11932667D01*
X12220191Y-11932667D02*
X12229715Y-11904095D01*
X12229715Y-11904095D02*
X12239238Y-11885048D01*
X12239238Y-11885048D02*
X12258286Y-11856476D01*
X12258286Y-11856476D02*
X12267810Y-11846952D01*
X12344000Y-11942190D02*
X12344000Y-12075524D01*
X12344000Y-11961238D02*
X12353524Y-11951714D01*
X12353524Y-11951714D02*
X12372572Y-11942190D01*
X12372572Y-11942190D02*
X12401143Y-11942190D01*
X12401143Y-11942190D02*
X12420191Y-11951714D01*
X12420191Y-11951714D02*
X12429715Y-11970762D01*
X12429715Y-11970762D02*
X12429715Y-12075524D01*
X12553524Y-12075524D02*
X12534477Y-12066000D01*
X12534477Y-12066000D02*
X12524953Y-12056476D01*
X12524953Y-12056476D02*
X12515429Y-12037428D01*
X12515429Y-12037428D02*
X12515429Y-11980286D01*
X12515429Y-11980286D02*
X12524953Y-11961238D01*
X12524953Y-11961238D02*
X12534477Y-11951714D01*
X12534477Y-11951714D02*
X12553524Y-11942190D01*
X12553524Y-11942190D02*
X12582096Y-11942190D01*
X12582096Y-11942190D02*
X12601143Y-11951714D01*
X12601143Y-11951714D02*
X12610667Y-11961238D01*
X12610667Y-11961238D02*
X12620191Y-11980286D01*
X12620191Y-11980286D02*
X12620191Y-12037428D01*
X12620191Y-12037428D02*
X12610667Y-12056476D01*
X12610667Y-12056476D02*
X12601143Y-12066000D01*
X12601143Y-12066000D02*
X12582096Y-12075524D01*
X12582096Y-12075524D02*
X12553524Y-12075524D01*
X12677334Y-11942190D02*
X12753524Y-11942190D01*
X12705905Y-11875524D02*
X12705905Y-12046952D01*
X12705905Y-12046952D02*
X12715429Y-12066000D01*
X12715429Y-12066000D02*
X12734477Y-12075524D01*
X12734477Y-12075524D02*
X12753524Y-12075524D01*
X12972572Y-11942190D02*
X12972572Y-12142190D01*
X12972572Y-11951714D02*
X12991619Y-11942190D01*
X12991619Y-11942190D02*
X13029715Y-11942190D01*
X13029715Y-11942190D02*
X13048762Y-11951714D01*
X13048762Y-11951714D02*
X13058286Y-11961238D01*
X13058286Y-11961238D02*
X13067810Y-11980286D01*
X13067810Y-11980286D02*
X13067810Y-12037428D01*
X13067810Y-12037428D02*
X13058286Y-12056476D01*
X13058286Y-12056476D02*
X13048762Y-12066000D01*
X13048762Y-12066000D02*
X13029715Y-12075524D01*
X13029715Y-12075524D02*
X12991619Y-12075524D01*
X12991619Y-12075524D02*
X12972572Y-12066000D01*
X13182096Y-12075524D02*
X13163048Y-12066000D01*
X13163048Y-12066000D02*
X13153524Y-12046952D01*
X13153524Y-12046952D02*
X13153524Y-11875524D01*
X13344000Y-12075524D02*
X13344000Y-11970762D01*
X13344000Y-11970762D02*
X13334477Y-11951714D01*
X13334477Y-11951714D02*
X13315429Y-11942190D01*
X13315429Y-11942190D02*
X13277334Y-11942190D01*
X13277334Y-11942190D02*
X13258286Y-11951714D01*
X13344000Y-12066000D02*
X13324953Y-12075524D01*
X13324953Y-12075524D02*
X13277334Y-12075524D01*
X13277334Y-12075524D02*
X13258286Y-12066000D01*
X13258286Y-12066000D02*
X13248762Y-12046952D01*
X13248762Y-12046952D02*
X13248762Y-12027905D01*
X13248762Y-12027905D02*
X13258286Y-12008857D01*
X13258286Y-12008857D02*
X13277334Y-11999333D01*
X13277334Y-11999333D02*
X13324953Y-11999333D01*
X13324953Y-11999333D02*
X13344000Y-11989809D01*
X13410667Y-11942190D02*
X13486858Y-11942190D01*
X13439239Y-11875524D02*
X13439239Y-12046952D01*
X13439239Y-12046952D02*
X13448762Y-12066000D01*
X13448762Y-12066000D02*
X13467810Y-12075524D01*
X13467810Y-12075524D02*
X13486858Y-12075524D01*
X13629715Y-12066000D02*
X13610667Y-12075524D01*
X13610667Y-12075524D02*
X13572572Y-12075524D01*
X13572572Y-12075524D02*
X13553524Y-12066000D01*
X13553524Y-12066000D02*
X13544000Y-12046952D01*
X13544000Y-12046952D02*
X13544000Y-11970762D01*
X13544000Y-11970762D02*
X13553524Y-11951714D01*
X13553524Y-11951714D02*
X13572572Y-11942190D01*
X13572572Y-11942190D02*
X13610667Y-11942190D01*
X13610667Y-11942190D02*
X13629715Y-11951714D01*
X13629715Y-11951714D02*
X13639239Y-11970762D01*
X13639239Y-11970762D02*
X13639239Y-11989809D01*
X13639239Y-11989809D02*
X13544000Y-12008857D01*
X13810667Y-12075524D02*
X13810667Y-11875524D01*
X13810667Y-12066000D02*
X13791620Y-12075524D01*
X13791620Y-12075524D02*
X13753524Y-12075524D01*
X13753524Y-12075524D02*
X13734477Y-12066000D01*
X13734477Y-12066000D02*
X13724953Y-12056476D01*
X13724953Y-12056476D02*
X13715429Y-12037428D01*
X13715429Y-12037428D02*
X13715429Y-11980286D01*
X13715429Y-11980286D02*
X13724953Y-11961238D01*
X13724953Y-11961238D02*
X13734477Y-11951714D01*
X13734477Y-11951714D02*
X13753524Y-11942190D01*
X13753524Y-11942190D02*
X13791620Y-11942190D01*
X13791620Y-11942190D02*
X13810667Y-11951714D01*
X13886858Y-12151714D02*
X13896381Y-12142190D01*
X13896381Y-12142190D02*
X13915429Y-12113619D01*
X13915429Y-12113619D02*
X13924953Y-12094571D01*
X13924953Y-12094571D02*
X13934477Y-12066000D01*
X13934477Y-12066000D02*
X13944000Y-12018381D01*
X13944000Y-12018381D02*
X13944000Y-11980286D01*
X13944000Y-11980286D02*
X13934477Y-11932667D01*
X13934477Y-11932667D02*
X13924953Y-11904095D01*
X13924953Y-11904095D02*
X13915429Y-11885048D01*
X13915429Y-11885048D02*
X13896381Y-11856476D01*
X13896381Y-11856476D02*
X13886858Y-11846952D01*
M02*
