G04 #@! TF.GenerationSoftware,KiCad,Pcbnew,7.0.2*
G04 #@! TF.CreationDate,2023-05-28T06:01:11+09:00*
G04 #@! TF.ProjectId,game-boy-pico-link-board,67616d65-2d62-46f7-992d-7069636f2d6c,rev?*
G04 #@! TF.SameCoordinates,Original*
G04 #@! TF.FileFunction,Soldermask,Bot*
G04 #@! TF.FilePolarity,Negative*
%FSLAX46Y46*%
G04 Gerber Fmt 4.6, Leading zero omitted, Abs format (unit mm)*
G04 Created by KiCad (PCBNEW 7.0.2) date 2023-05-28 06:01:11*
%MOMM*%
%LPD*%
G01*
G04 APERTURE LIST*
%ADD10R,1.700000X1.700000*%
%ADD11C,1.700000*%
%ADD12O,1.700000X1.700000*%
%ADD13O,1.800000X1.800000*%
%ADD14O,1.500000X1.500000*%
%ADD15R,8.000000X2.000000*%
%ADD16R,5.000000X1.000000*%
G04 APERTURE END LIST*
D10*
X129030000Y-88265000D03*
D11*
X129030000Y-90805000D03*
X129030000Y-93345000D03*
X129030000Y-95885000D03*
X129030000Y-98425000D03*
X129030000Y-100965000D03*
X139190000Y-88265000D03*
X139190000Y-90805000D03*
X139190000Y-93345000D03*
X139190000Y-95885000D03*
X139190000Y-98425000D03*
X139190000Y-100965000D03*
D10*
X144780000Y-95155000D03*
D12*
X144780000Y-97695000D03*
X144780000Y-100235000D03*
D10*
X128905000Y-107950000D03*
D12*
X131445000Y-107950000D03*
X133985000Y-107950000D03*
X136525000Y-107950000D03*
X139065000Y-107950000D03*
X141605000Y-107950000D03*
D13*
X75060000Y-100515000D03*
D14*
X78090000Y-100215000D03*
X78090000Y-95365000D03*
D13*
X75060000Y-95065000D03*
D12*
X74930000Y-106680000D03*
X77470000Y-106680000D03*
D10*
X80010000Y-106680000D03*
D12*
X82550000Y-106680000D03*
X85090000Y-106680000D03*
X87630000Y-106680000D03*
X90170000Y-106680000D03*
D10*
X92710000Y-106680000D03*
D12*
X95250000Y-106680000D03*
X97790000Y-106680000D03*
X100330000Y-106680000D03*
X102870000Y-106680000D03*
D10*
X105410000Y-106680000D03*
D12*
X107950000Y-106680000D03*
X110490000Y-106680000D03*
X113030000Y-106680000D03*
X115570000Y-106680000D03*
D10*
X118110000Y-106680000D03*
D12*
X120650000Y-106680000D03*
X123190000Y-106680000D03*
X123190000Y-88900000D03*
X120650000Y-88900000D03*
D10*
X118110000Y-88900000D03*
D12*
X115570000Y-88900000D03*
X113030000Y-88900000D03*
X110490000Y-88900000D03*
X107950000Y-88900000D03*
D10*
X105410000Y-88900000D03*
D12*
X102870000Y-88900000D03*
X100330000Y-88900000D03*
X97790000Y-88900000D03*
X95250000Y-88900000D03*
D10*
X92710000Y-88900000D03*
D12*
X90170000Y-88900000D03*
X87630000Y-88900000D03*
X85090000Y-88900000D03*
X82550000Y-88900000D03*
D10*
X80010000Y-88900000D03*
D12*
X77470000Y-88900000D03*
X74930000Y-88900000D03*
D15*
X153490000Y-102080000D03*
X153490000Y-104680000D03*
X153490000Y-107180000D03*
D16*
X151990000Y-87680000D03*
X151990000Y-89680000D03*
X151990000Y-91680000D03*
M02*
