G04 #@! TF.GenerationSoftware,KiCad,Pcbnew,7.0.2*
G04 #@! TF.CreationDate,2023-05-28T06:01:11+09:00*
G04 #@! TF.ProjectId,game-boy-pico-link-board,67616d65-2d62-46f7-992d-7069636f2d6c,rev?*
G04 #@! TF.SameCoordinates,Original*
G04 #@! TF.FileFunction,Profile,NP*
%FSLAX46Y46*%
G04 Gerber Fmt 4.6, Leading zero omitted, Abs format (unit mm)*
G04 Created by KiCad (PCBNEW 7.0.2) date 2023-05-28 06:01:11*
%MOMM*%
%LPD*%
G01*
G04 APERTURE LIST*
G04 #@! TA.AperFunction,Profile*
%ADD10C,0.100000*%
G04 #@! TD*
G04 APERTURE END LIST*
D10*
X146490000Y-110680000D02*
G75*
G03*
X147490000Y-109680000I0J1000000D01*
G01*
X157790000Y-108680000D02*
G75*
G03*
X157990000Y-108480000I0J200000D01*
G01*
X154990001Y-86879999D02*
G75*
G03*
X154790000Y-86679999I-200001J-1D01*
G01*
X154989999Y-92480000D02*
X154990000Y-86879999D01*
X71497107Y-109672893D02*
G75*
G03*
X72497107Y-110672893I999993J-7D01*
G01*
X146490000Y-84680000D02*
X72490000Y-84680000D01*
X72490000Y-84680000D02*
G75*
G03*
X71490000Y-85680000I0J-1000000D01*
G01*
X157790000Y-100680000D02*
X147690000Y-100680000D01*
X147490000Y-85680000D02*
G75*
G03*
X146490000Y-84680000I-1000000J0D01*
G01*
X147490000Y-100480000D02*
G75*
G03*
X147690000Y-100680000I200000J0D01*
G01*
X157990000Y-108480000D02*
X157990000Y-100880000D01*
X147690000Y-86680000D02*
X154790000Y-86679999D01*
X72497107Y-110672893D02*
X146490000Y-110680000D01*
X147490000Y-85680000D02*
X147490000Y-86480000D01*
X154789999Y-92679999D02*
G75*
G03*
X154989999Y-92480000I1J199999D01*
G01*
X147690000Y-108680000D02*
G75*
G03*
X147490000Y-108880000I0J-200000D01*
G01*
X147490000Y-86480000D02*
G75*
G03*
X147690000Y-86680000I200000J0D01*
G01*
X147490000Y-92880000D02*
X147490000Y-100480000D01*
X71490000Y-85680000D02*
X71497107Y-109672893D01*
X147690000Y-92680000D02*
G75*
G03*
X147490000Y-92880000I0J-200000D01*
G01*
X147490000Y-108880000D02*
X147490000Y-109680000D01*
X147690000Y-108680000D02*
X157790000Y-108680000D01*
X157990000Y-100880000D02*
G75*
G03*
X157790000Y-100680000I-200000J0D01*
G01*
X147690000Y-92680000D02*
X154789999Y-92680000D01*
M02*
