%TF.GenerationSoftware,KiCad,Pcbnew,7.0.5*%
%TF.CreationDate,2023-06-10T07:12:52+09:00*%
%TF.ProjectId,game-boy-pico-link-board,67616d65-2d62-46f7-992d-7069636f2d6c,rev?*%
%TF.SameCoordinates,Original*%
%TF.FileFunction,Drillmap*%
%TF.FilePolarity,Positive*%
%FSLAX45Y45*%
G04 Gerber Fmt 4.5, Leading zero omitted, Abs format (unit mm)*
G04 Created by KiCad (PCBNEW 7.0.5) date 2023-06-10 07:12:52*
%MOMM*%
%LPD*%
G01*
G04 APERTURE LIST*
%ADD10C,0.100000*%
%ADD11C,0.200000*%
%ADD12C,0.150000*%
%ADD13C,0.180000*%
G04 APERTURE END LIST*
D10*
X14446000Y-10877500D02*
G75*
G03*
X14546000Y-10777500I0J100000D01*
G01*
X15196000Y-9102500D02*
X15196000Y-8452500D01*
X6946711Y-10776789D02*
G75*
G03*
X7046711Y-10876789I99999J-1D01*
G01*
X14446000Y-8277500D02*
X7046000Y-8277500D01*
X7046000Y-8277500D02*
G75*
G03*
X6946000Y-8377500I0J-100000D01*
G01*
X15501000Y-9842500D02*
X14546000Y-9842500D01*
X14546000Y-8377500D02*
G75*
G03*
X14446000Y-8277500I-100000J0D01*
G01*
X15501000Y-10702500D02*
X15501000Y-9842500D01*
X14546000Y-8452500D02*
X15196000Y-8452500D01*
X7046711Y-10876789D02*
X14446000Y-10877500D01*
X14546000Y-8377500D02*
X14546000Y-8452500D01*
X14546000Y-9102500D02*
X14546000Y-9842500D01*
X6946000Y-8377500D02*
X6946711Y-10776789D01*
X14546000Y-10702500D02*
X14546000Y-10777500D01*
X14546000Y-10702500D02*
X15501000Y-10702500D01*
X14546000Y-9102500D02*
X15196000Y-9102500D01*
D11*
D12*
X7531000Y-9271000D02*
X7681000Y-9421000D01*
X7681000Y-9271000D02*
X7531000Y-9421000D01*
X7531000Y-9756000D02*
X7681000Y-9906000D01*
X7681000Y-9756000D02*
X7531000Y-9906000D01*
D13*
X7393000Y-9316000D02*
G75*
G03*
X7393000Y-9316000I-90000J0D01*
G01*
X7393000Y-9861000D02*
G75*
G03*
X7393000Y-9861000I-90000J0D01*
G01*
D11*
X7201777Y-11193984D02*
X7201777Y-10993984D01*
X7201777Y-10993984D02*
X7249396Y-10993984D01*
X7249396Y-10993984D02*
X7277967Y-11003508D01*
X7277967Y-11003508D02*
X7297015Y-11022555D01*
X7297015Y-11022555D02*
X7306539Y-11041603D01*
X7306539Y-11041603D02*
X7316062Y-11079698D01*
X7316062Y-11079698D02*
X7316062Y-11108270D01*
X7316062Y-11108270D02*
X7306539Y-11146365D01*
X7306539Y-11146365D02*
X7297015Y-11165412D01*
X7297015Y-11165412D02*
X7277967Y-11184460D01*
X7277967Y-11184460D02*
X7249396Y-11193984D01*
X7249396Y-11193984D02*
X7201777Y-11193984D01*
X7401777Y-11193984D02*
X7401777Y-11060650D01*
X7401777Y-11098746D02*
X7411301Y-11079698D01*
X7411301Y-11079698D02*
X7420824Y-11070174D01*
X7420824Y-11070174D02*
X7439872Y-11060650D01*
X7439872Y-11060650D02*
X7458920Y-11060650D01*
X7525586Y-11193984D02*
X7525586Y-11060650D01*
X7525586Y-10993984D02*
X7516062Y-11003508D01*
X7516062Y-11003508D02*
X7525586Y-11013031D01*
X7525586Y-11013031D02*
X7535110Y-11003508D01*
X7535110Y-11003508D02*
X7525586Y-10993984D01*
X7525586Y-10993984D02*
X7525586Y-11013031D01*
X7649396Y-11193984D02*
X7630348Y-11184460D01*
X7630348Y-11184460D02*
X7620824Y-11165412D01*
X7620824Y-11165412D02*
X7620824Y-10993984D01*
X7754158Y-11193984D02*
X7735110Y-11184460D01*
X7735110Y-11184460D02*
X7725586Y-11165412D01*
X7725586Y-11165412D02*
X7725586Y-10993984D01*
X7982729Y-11193984D02*
X7982729Y-10993984D01*
X7982729Y-10993984D02*
X8049396Y-11136841D01*
X8049396Y-11136841D02*
X8116062Y-10993984D01*
X8116062Y-10993984D02*
X8116062Y-11193984D01*
X8297015Y-11193984D02*
X8297015Y-11089222D01*
X8297015Y-11089222D02*
X8287491Y-11070174D01*
X8287491Y-11070174D02*
X8268443Y-11060650D01*
X8268443Y-11060650D02*
X8230348Y-11060650D01*
X8230348Y-11060650D02*
X8211301Y-11070174D01*
X8297015Y-11184460D02*
X8277967Y-11193984D01*
X8277967Y-11193984D02*
X8230348Y-11193984D01*
X8230348Y-11193984D02*
X8211301Y-11184460D01*
X8211301Y-11184460D02*
X8201777Y-11165412D01*
X8201777Y-11165412D02*
X8201777Y-11146365D01*
X8201777Y-11146365D02*
X8211301Y-11127317D01*
X8211301Y-11127317D02*
X8230348Y-11117793D01*
X8230348Y-11117793D02*
X8277967Y-11117793D01*
X8277967Y-11117793D02*
X8297015Y-11108270D01*
X8392253Y-11060650D02*
X8392253Y-11260650D01*
X8392253Y-11070174D02*
X8411301Y-11060650D01*
X8411301Y-11060650D02*
X8449396Y-11060650D01*
X8449396Y-11060650D02*
X8468444Y-11070174D01*
X8468444Y-11070174D02*
X8477967Y-11079698D01*
X8477967Y-11079698D02*
X8487491Y-11098746D01*
X8487491Y-11098746D02*
X8487491Y-11155889D01*
X8487491Y-11155889D02*
X8477967Y-11174936D01*
X8477967Y-11174936D02*
X8468444Y-11184460D01*
X8468444Y-11184460D02*
X8449396Y-11193984D01*
X8449396Y-11193984D02*
X8411301Y-11193984D01*
X8411301Y-11193984D02*
X8392253Y-11184460D01*
X8573205Y-11174936D02*
X8582729Y-11184460D01*
X8582729Y-11184460D02*
X8573205Y-11193984D01*
X8573205Y-11193984D02*
X8563682Y-11184460D01*
X8563682Y-11184460D02*
X8573205Y-11174936D01*
X8573205Y-11174936D02*
X8573205Y-11193984D01*
X8573205Y-11070174D02*
X8582729Y-11079698D01*
X8582729Y-11079698D02*
X8573205Y-11089222D01*
X8573205Y-11089222D02*
X8563682Y-11079698D01*
X8563682Y-11079698D02*
X8573205Y-11070174D01*
X8573205Y-11070174D02*
X8573205Y-11089222D01*
D12*
X6791000Y-11447500D02*
X6941000Y-11597500D01*
X6941000Y-11447500D02*
X6791000Y-11597500D01*
D11*
X7306539Y-11613984D02*
X7192253Y-11613984D01*
X7249396Y-11613984D02*
X7249396Y-11413984D01*
X7249396Y-11413984D02*
X7230348Y-11442555D01*
X7230348Y-11442555D02*
X7211301Y-11461603D01*
X7211301Y-11461603D02*
X7192253Y-11471127D01*
X7392253Y-11594936D02*
X7401777Y-11604460D01*
X7401777Y-11604460D02*
X7392253Y-11613984D01*
X7392253Y-11613984D02*
X7382729Y-11604460D01*
X7382729Y-11604460D02*
X7392253Y-11594936D01*
X7392253Y-11594936D02*
X7392253Y-11613984D01*
X7582729Y-11413984D02*
X7487491Y-11413984D01*
X7487491Y-11413984D02*
X7477967Y-11509222D01*
X7477967Y-11509222D02*
X7487491Y-11499698D01*
X7487491Y-11499698D02*
X7506539Y-11490174D01*
X7506539Y-11490174D02*
X7554158Y-11490174D01*
X7554158Y-11490174D02*
X7573205Y-11499698D01*
X7573205Y-11499698D02*
X7582729Y-11509222D01*
X7582729Y-11509222D02*
X7592253Y-11528269D01*
X7592253Y-11528269D02*
X7592253Y-11575888D01*
X7592253Y-11575888D02*
X7582729Y-11594936D01*
X7582729Y-11594936D02*
X7573205Y-11604460D01*
X7573205Y-11604460D02*
X7554158Y-11613984D01*
X7554158Y-11613984D02*
X7506539Y-11613984D01*
X7506539Y-11613984D02*
X7487491Y-11604460D01*
X7487491Y-11604460D02*
X7477967Y-11594936D01*
X7716062Y-11413984D02*
X7735110Y-11413984D01*
X7735110Y-11413984D02*
X7754158Y-11423508D01*
X7754158Y-11423508D02*
X7763682Y-11433031D01*
X7763682Y-11433031D02*
X7773205Y-11452079D01*
X7773205Y-11452079D02*
X7782729Y-11490174D01*
X7782729Y-11490174D02*
X7782729Y-11537793D01*
X7782729Y-11537793D02*
X7773205Y-11575888D01*
X7773205Y-11575888D02*
X7763682Y-11594936D01*
X7763682Y-11594936D02*
X7754158Y-11604460D01*
X7754158Y-11604460D02*
X7735110Y-11613984D01*
X7735110Y-11613984D02*
X7716062Y-11613984D01*
X7716062Y-11613984D02*
X7697015Y-11604460D01*
X7697015Y-11604460D02*
X7687491Y-11594936D01*
X7687491Y-11594936D02*
X7677967Y-11575888D01*
X7677967Y-11575888D02*
X7668443Y-11537793D01*
X7668443Y-11537793D02*
X7668443Y-11490174D01*
X7668443Y-11490174D02*
X7677967Y-11452079D01*
X7677967Y-11452079D02*
X7687491Y-11433031D01*
X7687491Y-11433031D02*
X7697015Y-11423508D01*
X7697015Y-11423508D02*
X7716062Y-11413984D01*
X7906539Y-11413984D02*
X7925586Y-11413984D01*
X7925586Y-11413984D02*
X7944634Y-11423508D01*
X7944634Y-11423508D02*
X7954158Y-11433031D01*
X7954158Y-11433031D02*
X7963682Y-11452079D01*
X7963682Y-11452079D02*
X7973205Y-11490174D01*
X7973205Y-11490174D02*
X7973205Y-11537793D01*
X7973205Y-11537793D02*
X7963682Y-11575888D01*
X7963682Y-11575888D02*
X7954158Y-11594936D01*
X7954158Y-11594936D02*
X7944634Y-11604460D01*
X7944634Y-11604460D02*
X7925586Y-11613984D01*
X7925586Y-11613984D02*
X7906539Y-11613984D01*
X7906539Y-11613984D02*
X7887491Y-11604460D01*
X7887491Y-11604460D02*
X7877967Y-11594936D01*
X7877967Y-11594936D02*
X7868443Y-11575888D01*
X7868443Y-11575888D02*
X7858920Y-11537793D01*
X7858920Y-11537793D02*
X7858920Y-11490174D01*
X7858920Y-11490174D02*
X7868443Y-11452079D01*
X7868443Y-11452079D02*
X7877967Y-11433031D01*
X7877967Y-11433031D02*
X7887491Y-11423508D01*
X7887491Y-11423508D02*
X7906539Y-11413984D01*
X8058920Y-11613984D02*
X8058920Y-11480650D01*
X8058920Y-11499698D02*
X8068443Y-11490174D01*
X8068443Y-11490174D02*
X8087491Y-11480650D01*
X8087491Y-11480650D02*
X8116063Y-11480650D01*
X8116063Y-11480650D02*
X8135110Y-11490174D01*
X8135110Y-11490174D02*
X8144634Y-11509222D01*
X8144634Y-11509222D02*
X8144634Y-11613984D01*
X8144634Y-11509222D02*
X8154158Y-11490174D01*
X8154158Y-11490174D02*
X8173205Y-11480650D01*
X8173205Y-11480650D02*
X8201777Y-11480650D01*
X8201777Y-11480650D02*
X8220824Y-11490174D01*
X8220824Y-11490174D02*
X8230348Y-11509222D01*
X8230348Y-11509222D02*
X8230348Y-11613984D01*
X8325586Y-11613984D02*
X8325586Y-11480650D01*
X8325586Y-11499698D02*
X8335110Y-11490174D01*
X8335110Y-11490174D02*
X8354158Y-11480650D01*
X8354158Y-11480650D02*
X8382729Y-11480650D01*
X8382729Y-11480650D02*
X8401777Y-11490174D01*
X8401777Y-11490174D02*
X8411301Y-11509222D01*
X8411301Y-11509222D02*
X8411301Y-11613984D01*
X8411301Y-11509222D02*
X8420825Y-11490174D01*
X8420825Y-11490174D02*
X8439872Y-11480650D01*
X8439872Y-11480650D02*
X8468444Y-11480650D01*
X8468444Y-11480650D02*
X8487491Y-11490174D01*
X8487491Y-11490174D02*
X8497015Y-11509222D01*
X8497015Y-11509222D02*
X8497015Y-11613984D01*
X8887491Y-11404460D02*
X8716063Y-11661603D01*
X9144634Y-11413984D02*
X9163682Y-11413984D01*
X9163682Y-11413984D02*
X9182729Y-11423508D01*
X9182729Y-11423508D02*
X9192253Y-11433031D01*
X9192253Y-11433031D02*
X9201777Y-11452079D01*
X9201777Y-11452079D02*
X9211301Y-11490174D01*
X9211301Y-11490174D02*
X9211301Y-11537793D01*
X9211301Y-11537793D02*
X9201777Y-11575888D01*
X9201777Y-11575888D02*
X9192253Y-11594936D01*
X9192253Y-11594936D02*
X9182729Y-11604460D01*
X9182729Y-11604460D02*
X9163682Y-11613984D01*
X9163682Y-11613984D02*
X9144634Y-11613984D01*
X9144634Y-11613984D02*
X9125587Y-11604460D01*
X9125587Y-11604460D02*
X9116063Y-11594936D01*
X9116063Y-11594936D02*
X9106539Y-11575888D01*
X9106539Y-11575888D02*
X9097015Y-11537793D01*
X9097015Y-11537793D02*
X9097015Y-11490174D01*
X9097015Y-11490174D02*
X9106539Y-11452079D01*
X9106539Y-11452079D02*
X9116063Y-11433031D01*
X9116063Y-11433031D02*
X9125587Y-11423508D01*
X9125587Y-11423508D02*
X9144634Y-11413984D01*
X9297015Y-11594936D02*
X9306539Y-11604460D01*
X9306539Y-11604460D02*
X9297015Y-11613984D01*
X9297015Y-11613984D02*
X9287491Y-11604460D01*
X9287491Y-11604460D02*
X9297015Y-11594936D01*
X9297015Y-11594936D02*
X9297015Y-11613984D01*
X9430348Y-11413984D02*
X9449396Y-11413984D01*
X9449396Y-11413984D02*
X9468444Y-11423508D01*
X9468444Y-11423508D02*
X9477968Y-11433031D01*
X9477968Y-11433031D02*
X9487491Y-11452079D01*
X9487491Y-11452079D02*
X9497015Y-11490174D01*
X9497015Y-11490174D02*
X9497015Y-11537793D01*
X9497015Y-11537793D02*
X9487491Y-11575888D01*
X9487491Y-11575888D02*
X9477968Y-11594936D01*
X9477968Y-11594936D02*
X9468444Y-11604460D01*
X9468444Y-11604460D02*
X9449396Y-11613984D01*
X9449396Y-11613984D02*
X9430348Y-11613984D01*
X9430348Y-11613984D02*
X9411301Y-11604460D01*
X9411301Y-11604460D02*
X9401777Y-11594936D01*
X9401777Y-11594936D02*
X9392253Y-11575888D01*
X9392253Y-11575888D02*
X9382729Y-11537793D01*
X9382729Y-11537793D02*
X9382729Y-11490174D01*
X9382729Y-11490174D02*
X9392253Y-11452079D01*
X9392253Y-11452079D02*
X9401777Y-11433031D01*
X9401777Y-11433031D02*
X9411301Y-11423508D01*
X9411301Y-11423508D02*
X9430348Y-11413984D01*
X9677968Y-11413984D02*
X9582729Y-11413984D01*
X9582729Y-11413984D02*
X9573206Y-11509222D01*
X9573206Y-11509222D02*
X9582729Y-11499698D01*
X9582729Y-11499698D02*
X9601777Y-11490174D01*
X9601777Y-11490174D02*
X9649396Y-11490174D01*
X9649396Y-11490174D02*
X9668444Y-11499698D01*
X9668444Y-11499698D02*
X9677968Y-11509222D01*
X9677968Y-11509222D02*
X9687491Y-11528269D01*
X9687491Y-11528269D02*
X9687491Y-11575888D01*
X9687491Y-11575888D02*
X9677968Y-11594936D01*
X9677968Y-11594936D02*
X9668444Y-11604460D01*
X9668444Y-11604460D02*
X9649396Y-11613984D01*
X9649396Y-11613984D02*
X9601777Y-11613984D01*
X9601777Y-11613984D02*
X9582729Y-11604460D01*
X9582729Y-11604460D02*
X9573206Y-11594936D01*
X9782729Y-11613984D02*
X9820825Y-11613984D01*
X9820825Y-11613984D02*
X9839872Y-11604460D01*
X9839872Y-11604460D02*
X9849396Y-11594936D01*
X9849396Y-11594936D02*
X9868444Y-11566365D01*
X9868444Y-11566365D02*
X9877968Y-11528269D01*
X9877968Y-11528269D02*
X9877968Y-11452079D01*
X9877968Y-11452079D02*
X9868444Y-11433031D01*
X9868444Y-11433031D02*
X9858920Y-11423508D01*
X9858920Y-11423508D02*
X9839872Y-11413984D01*
X9839872Y-11413984D02*
X9801777Y-11413984D01*
X9801777Y-11413984D02*
X9782729Y-11423508D01*
X9782729Y-11423508D02*
X9773206Y-11433031D01*
X9773206Y-11433031D02*
X9763682Y-11452079D01*
X9763682Y-11452079D02*
X9763682Y-11499698D01*
X9763682Y-11499698D02*
X9773206Y-11518746D01*
X9773206Y-11518746D02*
X9782729Y-11528269D01*
X9782729Y-11528269D02*
X9801777Y-11537793D01*
X9801777Y-11537793D02*
X9839872Y-11537793D01*
X9839872Y-11537793D02*
X9858920Y-11528269D01*
X9858920Y-11528269D02*
X9868444Y-11518746D01*
X9868444Y-11518746D02*
X9877968Y-11499698D01*
X10068444Y-11613984D02*
X9954158Y-11613984D01*
X10011301Y-11613984D02*
X10011301Y-11413984D01*
X10011301Y-11413984D02*
X9992253Y-11442555D01*
X9992253Y-11442555D02*
X9973206Y-11461603D01*
X9973206Y-11461603D02*
X9954158Y-11471127D01*
X10144634Y-11413984D02*
X10144634Y-11452079D01*
X10220825Y-11413984D02*
X10220825Y-11452079D01*
X10516063Y-11690174D02*
X10506539Y-11680650D01*
X10506539Y-11680650D02*
X10487491Y-11652079D01*
X10487491Y-11652079D02*
X10477968Y-11633031D01*
X10477968Y-11633031D02*
X10468444Y-11604460D01*
X10468444Y-11604460D02*
X10458920Y-11556841D01*
X10458920Y-11556841D02*
X10458920Y-11518746D01*
X10458920Y-11518746D02*
X10468444Y-11471127D01*
X10468444Y-11471127D02*
X10477968Y-11442555D01*
X10477968Y-11442555D02*
X10487491Y-11423508D01*
X10487491Y-11423508D02*
X10506539Y-11394936D01*
X10506539Y-11394936D02*
X10516063Y-11385412D01*
X10582730Y-11433031D02*
X10592253Y-11423508D01*
X10592253Y-11423508D02*
X10611301Y-11413984D01*
X10611301Y-11413984D02*
X10658920Y-11413984D01*
X10658920Y-11413984D02*
X10677968Y-11423508D01*
X10677968Y-11423508D02*
X10687491Y-11433031D01*
X10687491Y-11433031D02*
X10697015Y-11452079D01*
X10697015Y-11452079D02*
X10697015Y-11471127D01*
X10697015Y-11471127D02*
X10687491Y-11499698D01*
X10687491Y-11499698D02*
X10573206Y-11613984D01*
X10573206Y-11613984D02*
X10697015Y-11613984D01*
X10935111Y-11613984D02*
X10935111Y-11413984D01*
X11020825Y-11613984D02*
X11020825Y-11509222D01*
X11020825Y-11509222D02*
X11011301Y-11490174D01*
X11011301Y-11490174D02*
X10992253Y-11480650D01*
X10992253Y-11480650D02*
X10963682Y-11480650D01*
X10963682Y-11480650D02*
X10944634Y-11490174D01*
X10944634Y-11490174D02*
X10935111Y-11499698D01*
X11144634Y-11613984D02*
X11125587Y-11604460D01*
X11125587Y-11604460D02*
X11116063Y-11594936D01*
X11116063Y-11594936D02*
X11106539Y-11575888D01*
X11106539Y-11575888D02*
X11106539Y-11518746D01*
X11106539Y-11518746D02*
X11116063Y-11499698D01*
X11116063Y-11499698D02*
X11125587Y-11490174D01*
X11125587Y-11490174D02*
X11144634Y-11480650D01*
X11144634Y-11480650D02*
X11173206Y-11480650D01*
X11173206Y-11480650D02*
X11192253Y-11490174D01*
X11192253Y-11490174D02*
X11201777Y-11499698D01*
X11201777Y-11499698D02*
X11211301Y-11518746D01*
X11211301Y-11518746D02*
X11211301Y-11575888D01*
X11211301Y-11575888D02*
X11201777Y-11594936D01*
X11201777Y-11594936D02*
X11192253Y-11604460D01*
X11192253Y-11604460D02*
X11173206Y-11613984D01*
X11173206Y-11613984D02*
X11144634Y-11613984D01*
X11325587Y-11613984D02*
X11306539Y-11604460D01*
X11306539Y-11604460D02*
X11297015Y-11585412D01*
X11297015Y-11585412D02*
X11297015Y-11413984D01*
X11477968Y-11604460D02*
X11458920Y-11613984D01*
X11458920Y-11613984D02*
X11420825Y-11613984D01*
X11420825Y-11613984D02*
X11401777Y-11604460D01*
X11401777Y-11604460D02*
X11392253Y-11585412D01*
X11392253Y-11585412D02*
X11392253Y-11509222D01*
X11392253Y-11509222D02*
X11401777Y-11490174D01*
X11401777Y-11490174D02*
X11420825Y-11480650D01*
X11420825Y-11480650D02*
X11458920Y-11480650D01*
X11458920Y-11480650D02*
X11477968Y-11490174D01*
X11477968Y-11490174D02*
X11487491Y-11509222D01*
X11487491Y-11509222D02*
X11487491Y-11528269D01*
X11487491Y-11528269D02*
X11392253Y-11547317D01*
X11563682Y-11604460D02*
X11582730Y-11613984D01*
X11582730Y-11613984D02*
X11620825Y-11613984D01*
X11620825Y-11613984D02*
X11639872Y-11604460D01*
X11639872Y-11604460D02*
X11649396Y-11585412D01*
X11649396Y-11585412D02*
X11649396Y-11575888D01*
X11649396Y-11575888D02*
X11639872Y-11556841D01*
X11639872Y-11556841D02*
X11620825Y-11547317D01*
X11620825Y-11547317D02*
X11592253Y-11547317D01*
X11592253Y-11547317D02*
X11573206Y-11537793D01*
X11573206Y-11537793D02*
X11563682Y-11518746D01*
X11563682Y-11518746D02*
X11563682Y-11509222D01*
X11563682Y-11509222D02*
X11573206Y-11490174D01*
X11573206Y-11490174D02*
X11592253Y-11480650D01*
X11592253Y-11480650D02*
X11620825Y-11480650D01*
X11620825Y-11480650D02*
X11639872Y-11490174D01*
X11716063Y-11690174D02*
X11725587Y-11680650D01*
X11725587Y-11680650D02*
X11744634Y-11652079D01*
X11744634Y-11652079D02*
X11754158Y-11633031D01*
X11754158Y-11633031D02*
X11763682Y-11604460D01*
X11763682Y-11604460D02*
X11773206Y-11556841D01*
X11773206Y-11556841D02*
X11773206Y-11518746D01*
X11773206Y-11518746D02*
X11763682Y-11471127D01*
X11763682Y-11471127D02*
X11754158Y-11442555D01*
X11754158Y-11442555D02*
X11744634Y-11423508D01*
X11744634Y-11423508D02*
X11725587Y-11394936D01*
X11725587Y-11394936D02*
X11716063Y-11385412D01*
X12077968Y-11690174D02*
X12068444Y-11680650D01*
X12068444Y-11680650D02*
X12049396Y-11652079D01*
X12049396Y-11652079D02*
X12039872Y-11633031D01*
X12039872Y-11633031D02*
X12030349Y-11604460D01*
X12030349Y-11604460D02*
X12020825Y-11556841D01*
X12020825Y-11556841D02*
X12020825Y-11518746D01*
X12020825Y-11518746D02*
X12030349Y-11471127D01*
X12030349Y-11471127D02*
X12039872Y-11442555D01*
X12039872Y-11442555D02*
X12049396Y-11423508D01*
X12049396Y-11423508D02*
X12068444Y-11394936D01*
X12068444Y-11394936D02*
X12077968Y-11385412D01*
X12154158Y-11480650D02*
X12154158Y-11613984D01*
X12154158Y-11499698D02*
X12163682Y-11490174D01*
X12163682Y-11490174D02*
X12182730Y-11480650D01*
X12182730Y-11480650D02*
X12211301Y-11480650D01*
X12211301Y-11480650D02*
X12230349Y-11490174D01*
X12230349Y-11490174D02*
X12239872Y-11509222D01*
X12239872Y-11509222D02*
X12239872Y-11613984D01*
X12363682Y-11613984D02*
X12344634Y-11604460D01*
X12344634Y-11604460D02*
X12335111Y-11594936D01*
X12335111Y-11594936D02*
X12325587Y-11575888D01*
X12325587Y-11575888D02*
X12325587Y-11518746D01*
X12325587Y-11518746D02*
X12335111Y-11499698D01*
X12335111Y-11499698D02*
X12344634Y-11490174D01*
X12344634Y-11490174D02*
X12363682Y-11480650D01*
X12363682Y-11480650D02*
X12392253Y-11480650D01*
X12392253Y-11480650D02*
X12411301Y-11490174D01*
X12411301Y-11490174D02*
X12420825Y-11499698D01*
X12420825Y-11499698D02*
X12430349Y-11518746D01*
X12430349Y-11518746D02*
X12430349Y-11575888D01*
X12430349Y-11575888D02*
X12420825Y-11594936D01*
X12420825Y-11594936D02*
X12411301Y-11604460D01*
X12411301Y-11604460D02*
X12392253Y-11613984D01*
X12392253Y-11613984D02*
X12363682Y-11613984D01*
X12487492Y-11480650D02*
X12563682Y-11480650D01*
X12516063Y-11413984D02*
X12516063Y-11585412D01*
X12516063Y-11585412D02*
X12525587Y-11604460D01*
X12525587Y-11604460D02*
X12544634Y-11613984D01*
X12544634Y-11613984D02*
X12563682Y-11613984D01*
X12782730Y-11480650D02*
X12782730Y-11680650D01*
X12782730Y-11490174D02*
X12801777Y-11480650D01*
X12801777Y-11480650D02*
X12839873Y-11480650D01*
X12839873Y-11480650D02*
X12858920Y-11490174D01*
X12858920Y-11490174D02*
X12868444Y-11499698D01*
X12868444Y-11499698D02*
X12877968Y-11518746D01*
X12877968Y-11518746D02*
X12877968Y-11575888D01*
X12877968Y-11575888D02*
X12868444Y-11594936D01*
X12868444Y-11594936D02*
X12858920Y-11604460D01*
X12858920Y-11604460D02*
X12839873Y-11613984D01*
X12839873Y-11613984D02*
X12801777Y-11613984D01*
X12801777Y-11613984D02*
X12782730Y-11604460D01*
X12992253Y-11613984D02*
X12973206Y-11604460D01*
X12973206Y-11604460D02*
X12963682Y-11585412D01*
X12963682Y-11585412D02*
X12963682Y-11413984D01*
X13154158Y-11613984D02*
X13154158Y-11509222D01*
X13154158Y-11509222D02*
X13144634Y-11490174D01*
X13144634Y-11490174D02*
X13125587Y-11480650D01*
X13125587Y-11480650D02*
X13087492Y-11480650D01*
X13087492Y-11480650D02*
X13068444Y-11490174D01*
X13154158Y-11604460D02*
X13135111Y-11613984D01*
X13135111Y-11613984D02*
X13087492Y-11613984D01*
X13087492Y-11613984D02*
X13068444Y-11604460D01*
X13068444Y-11604460D02*
X13058920Y-11585412D01*
X13058920Y-11585412D02*
X13058920Y-11566365D01*
X13058920Y-11566365D02*
X13068444Y-11547317D01*
X13068444Y-11547317D02*
X13087492Y-11537793D01*
X13087492Y-11537793D02*
X13135111Y-11537793D01*
X13135111Y-11537793D02*
X13154158Y-11528269D01*
X13220825Y-11480650D02*
X13297015Y-11480650D01*
X13249396Y-11413984D02*
X13249396Y-11585412D01*
X13249396Y-11585412D02*
X13258920Y-11604460D01*
X13258920Y-11604460D02*
X13277968Y-11613984D01*
X13277968Y-11613984D02*
X13297015Y-11613984D01*
X13439873Y-11604460D02*
X13420825Y-11613984D01*
X13420825Y-11613984D02*
X13382730Y-11613984D01*
X13382730Y-11613984D02*
X13363682Y-11604460D01*
X13363682Y-11604460D02*
X13354158Y-11585412D01*
X13354158Y-11585412D02*
X13354158Y-11509222D01*
X13354158Y-11509222D02*
X13363682Y-11490174D01*
X13363682Y-11490174D02*
X13382730Y-11480650D01*
X13382730Y-11480650D02*
X13420825Y-11480650D01*
X13420825Y-11480650D02*
X13439873Y-11490174D01*
X13439873Y-11490174D02*
X13449396Y-11509222D01*
X13449396Y-11509222D02*
X13449396Y-11528269D01*
X13449396Y-11528269D02*
X13354158Y-11547317D01*
X13620825Y-11613984D02*
X13620825Y-11413984D01*
X13620825Y-11604460D02*
X13601777Y-11613984D01*
X13601777Y-11613984D02*
X13563682Y-11613984D01*
X13563682Y-11613984D02*
X13544634Y-11604460D01*
X13544634Y-11604460D02*
X13535111Y-11594936D01*
X13535111Y-11594936D02*
X13525587Y-11575888D01*
X13525587Y-11575888D02*
X13525587Y-11518746D01*
X13525587Y-11518746D02*
X13535111Y-11499698D01*
X13535111Y-11499698D02*
X13544634Y-11490174D01*
X13544634Y-11490174D02*
X13563682Y-11480650D01*
X13563682Y-11480650D02*
X13601777Y-11480650D01*
X13601777Y-11480650D02*
X13620825Y-11490174D01*
X13697015Y-11690174D02*
X13706539Y-11680650D01*
X13706539Y-11680650D02*
X13725587Y-11652079D01*
X13725587Y-11652079D02*
X13735111Y-11633031D01*
X13735111Y-11633031D02*
X13744634Y-11604460D01*
X13744634Y-11604460D02*
X13754158Y-11556841D01*
X13754158Y-11556841D02*
X13754158Y-11518746D01*
X13754158Y-11518746D02*
X13744634Y-11471127D01*
X13744634Y-11471127D02*
X13735111Y-11442555D01*
X13735111Y-11442555D02*
X13725587Y-11423508D01*
X13725587Y-11423508D02*
X13706539Y-11394936D01*
X13706539Y-11394936D02*
X13697015Y-11385412D01*
D13*
X6941000Y-11792500D02*
G75*
G03*
X6941000Y-11792500I-90000J0D01*
G01*
D11*
X7306539Y-11883984D02*
X7192253Y-11883984D01*
X7249396Y-11883984D02*
X7249396Y-11683984D01*
X7249396Y-11683984D02*
X7230348Y-11712555D01*
X7230348Y-11712555D02*
X7211301Y-11731603D01*
X7211301Y-11731603D02*
X7192253Y-11741127D01*
X7392253Y-11864936D02*
X7401777Y-11874460D01*
X7401777Y-11874460D02*
X7392253Y-11883984D01*
X7392253Y-11883984D02*
X7382729Y-11874460D01*
X7382729Y-11874460D02*
X7392253Y-11864936D01*
X7392253Y-11864936D02*
X7392253Y-11883984D01*
X7516062Y-11769698D02*
X7497015Y-11760174D01*
X7497015Y-11760174D02*
X7487491Y-11750650D01*
X7487491Y-11750650D02*
X7477967Y-11731603D01*
X7477967Y-11731603D02*
X7477967Y-11722079D01*
X7477967Y-11722079D02*
X7487491Y-11703031D01*
X7487491Y-11703031D02*
X7497015Y-11693508D01*
X7497015Y-11693508D02*
X7516062Y-11683984D01*
X7516062Y-11683984D02*
X7554158Y-11683984D01*
X7554158Y-11683984D02*
X7573205Y-11693508D01*
X7573205Y-11693508D02*
X7582729Y-11703031D01*
X7582729Y-11703031D02*
X7592253Y-11722079D01*
X7592253Y-11722079D02*
X7592253Y-11731603D01*
X7592253Y-11731603D02*
X7582729Y-11750650D01*
X7582729Y-11750650D02*
X7573205Y-11760174D01*
X7573205Y-11760174D02*
X7554158Y-11769698D01*
X7554158Y-11769698D02*
X7516062Y-11769698D01*
X7516062Y-11769698D02*
X7497015Y-11779222D01*
X7497015Y-11779222D02*
X7487491Y-11788746D01*
X7487491Y-11788746D02*
X7477967Y-11807793D01*
X7477967Y-11807793D02*
X7477967Y-11845888D01*
X7477967Y-11845888D02*
X7487491Y-11864936D01*
X7487491Y-11864936D02*
X7497015Y-11874460D01*
X7497015Y-11874460D02*
X7516062Y-11883984D01*
X7516062Y-11883984D02*
X7554158Y-11883984D01*
X7554158Y-11883984D02*
X7573205Y-11874460D01*
X7573205Y-11874460D02*
X7582729Y-11864936D01*
X7582729Y-11864936D02*
X7592253Y-11845888D01*
X7592253Y-11845888D02*
X7592253Y-11807793D01*
X7592253Y-11807793D02*
X7582729Y-11788746D01*
X7582729Y-11788746D02*
X7573205Y-11779222D01*
X7573205Y-11779222D02*
X7554158Y-11769698D01*
X7716062Y-11683984D02*
X7735110Y-11683984D01*
X7735110Y-11683984D02*
X7754158Y-11693508D01*
X7754158Y-11693508D02*
X7763682Y-11703031D01*
X7763682Y-11703031D02*
X7773205Y-11722079D01*
X7773205Y-11722079D02*
X7782729Y-11760174D01*
X7782729Y-11760174D02*
X7782729Y-11807793D01*
X7782729Y-11807793D02*
X7773205Y-11845888D01*
X7773205Y-11845888D02*
X7763682Y-11864936D01*
X7763682Y-11864936D02*
X7754158Y-11874460D01*
X7754158Y-11874460D02*
X7735110Y-11883984D01*
X7735110Y-11883984D02*
X7716062Y-11883984D01*
X7716062Y-11883984D02*
X7697015Y-11874460D01*
X7697015Y-11874460D02*
X7687491Y-11864936D01*
X7687491Y-11864936D02*
X7677967Y-11845888D01*
X7677967Y-11845888D02*
X7668443Y-11807793D01*
X7668443Y-11807793D02*
X7668443Y-11760174D01*
X7668443Y-11760174D02*
X7677967Y-11722079D01*
X7677967Y-11722079D02*
X7687491Y-11703031D01*
X7687491Y-11703031D02*
X7697015Y-11693508D01*
X7697015Y-11693508D02*
X7716062Y-11683984D01*
X7906539Y-11683984D02*
X7925586Y-11683984D01*
X7925586Y-11683984D02*
X7944634Y-11693508D01*
X7944634Y-11693508D02*
X7954158Y-11703031D01*
X7954158Y-11703031D02*
X7963682Y-11722079D01*
X7963682Y-11722079D02*
X7973205Y-11760174D01*
X7973205Y-11760174D02*
X7973205Y-11807793D01*
X7973205Y-11807793D02*
X7963682Y-11845888D01*
X7963682Y-11845888D02*
X7954158Y-11864936D01*
X7954158Y-11864936D02*
X7944634Y-11874460D01*
X7944634Y-11874460D02*
X7925586Y-11883984D01*
X7925586Y-11883984D02*
X7906539Y-11883984D01*
X7906539Y-11883984D02*
X7887491Y-11874460D01*
X7887491Y-11874460D02*
X7877967Y-11864936D01*
X7877967Y-11864936D02*
X7868443Y-11845888D01*
X7868443Y-11845888D02*
X7858920Y-11807793D01*
X7858920Y-11807793D02*
X7858920Y-11760174D01*
X7858920Y-11760174D02*
X7868443Y-11722079D01*
X7868443Y-11722079D02*
X7877967Y-11703031D01*
X7877967Y-11703031D02*
X7887491Y-11693508D01*
X7887491Y-11693508D02*
X7906539Y-11683984D01*
X8058920Y-11883984D02*
X8058920Y-11750650D01*
X8058920Y-11769698D02*
X8068443Y-11760174D01*
X8068443Y-11760174D02*
X8087491Y-11750650D01*
X8087491Y-11750650D02*
X8116063Y-11750650D01*
X8116063Y-11750650D02*
X8135110Y-11760174D01*
X8135110Y-11760174D02*
X8144634Y-11779222D01*
X8144634Y-11779222D02*
X8144634Y-11883984D01*
X8144634Y-11779222D02*
X8154158Y-11760174D01*
X8154158Y-11760174D02*
X8173205Y-11750650D01*
X8173205Y-11750650D02*
X8201777Y-11750650D01*
X8201777Y-11750650D02*
X8220824Y-11760174D01*
X8220824Y-11760174D02*
X8230348Y-11779222D01*
X8230348Y-11779222D02*
X8230348Y-11883984D01*
X8325586Y-11883984D02*
X8325586Y-11750650D01*
X8325586Y-11769698D02*
X8335110Y-11760174D01*
X8335110Y-11760174D02*
X8354158Y-11750650D01*
X8354158Y-11750650D02*
X8382729Y-11750650D01*
X8382729Y-11750650D02*
X8401777Y-11760174D01*
X8401777Y-11760174D02*
X8411301Y-11779222D01*
X8411301Y-11779222D02*
X8411301Y-11883984D01*
X8411301Y-11779222D02*
X8420825Y-11760174D01*
X8420825Y-11760174D02*
X8439872Y-11750650D01*
X8439872Y-11750650D02*
X8468444Y-11750650D01*
X8468444Y-11750650D02*
X8487491Y-11760174D01*
X8487491Y-11760174D02*
X8497015Y-11779222D01*
X8497015Y-11779222D02*
X8497015Y-11883984D01*
X8887491Y-11674460D02*
X8716063Y-11931603D01*
X9144634Y-11683984D02*
X9163682Y-11683984D01*
X9163682Y-11683984D02*
X9182729Y-11693508D01*
X9182729Y-11693508D02*
X9192253Y-11703031D01*
X9192253Y-11703031D02*
X9201777Y-11722079D01*
X9201777Y-11722079D02*
X9211301Y-11760174D01*
X9211301Y-11760174D02*
X9211301Y-11807793D01*
X9211301Y-11807793D02*
X9201777Y-11845888D01*
X9201777Y-11845888D02*
X9192253Y-11864936D01*
X9192253Y-11864936D02*
X9182729Y-11874460D01*
X9182729Y-11874460D02*
X9163682Y-11883984D01*
X9163682Y-11883984D02*
X9144634Y-11883984D01*
X9144634Y-11883984D02*
X9125587Y-11874460D01*
X9125587Y-11874460D02*
X9116063Y-11864936D01*
X9116063Y-11864936D02*
X9106539Y-11845888D01*
X9106539Y-11845888D02*
X9097015Y-11807793D01*
X9097015Y-11807793D02*
X9097015Y-11760174D01*
X9097015Y-11760174D02*
X9106539Y-11722079D01*
X9106539Y-11722079D02*
X9116063Y-11703031D01*
X9116063Y-11703031D02*
X9125587Y-11693508D01*
X9125587Y-11693508D02*
X9144634Y-11683984D01*
X9297015Y-11864936D02*
X9306539Y-11874460D01*
X9306539Y-11874460D02*
X9297015Y-11883984D01*
X9297015Y-11883984D02*
X9287491Y-11874460D01*
X9287491Y-11874460D02*
X9297015Y-11864936D01*
X9297015Y-11864936D02*
X9297015Y-11883984D01*
X9430348Y-11683984D02*
X9449396Y-11683984D01*
X9449396Y-11683984D02*
X9468444Y-11693508D01*
X9468444Y-11693508D02*
X9477968Y-11703031D01*
X9477968Y-11703031D02*
X9487491Y-11722079D01*
X9487491Y-11722079D02*
X9497015Y-11760174D01*
X9497015Y-11760174D02*
X9497015Y-11807793D01*
X9497015Y-11807793D02*
X9487491Y-11845888D01*
X9487491Y-11845888D02*
X9477968Y-11864936D01*
X9477968Y-11864936D02*
X9468444Y-11874460D01*
X9468444Y-11874460D02*
X9449396Y-11883984D01*
X9449396Y-11883984D02*
X9430348Y-11883984D01*
X9430348Y-11883984D02*
X9411301Y-11874460D01*
X9411301Y-11874460D02*
X9401777Y-11864936D01*
X9401777Y-11864936D02*
X9392253Y-11845888D01*
X9392253Y-11845888D02*
X9382729Y-11807793D01*
X9382729Y-11807793D02*
X9382729Y-11760174D01*
X9382729Y-11760174D02*
X9392253Y-11722079D01*
X9392253Y-11722079D02*
X9401777Y-11703031D01*
X9401777Y-11703031D02*
X9411301Y-11693508D01*
X9411301Y-11693508D02*
X9430348Y-11683984D01*
X9563682Y-11683984D02*
X9697015Y-11683984D01*
X9697015Y-11683984D02*
X9611301Y-11883984D01*
X9811301Y-11683984D02*
X9830349Y-11683984D01*
X9830349Y-11683984D02*
X9849396Y-11693508D01*
X9849396Y-11693508D02*
X9858920Y-11703031D01*
X9858920Y-11703031D02*
X9868444Y-11722079D01*
X9868444Y-11722079D02*
X9877968Y-11760174D01*
X9877968Y-11760174D02*
X9877968Y-11807793D01*
X9877968Y-11807793D02*
X9868444Y-11845888D01*
X9868444Y-11845888D02*
X9858920Y-11864936D01*
X9858920Y-11864936D02*
X9849396Y-11874460D01*
X9849396Y-11874460D02*
X9830349Y-11883984D01*
X9830349Y-11883984D02*
X9811301Y-11883984D01*
X9811301Y-11883984D02*
X9792253Y-11874460D01*
X9792253Y-11874460D02*
X9782729Y-11864936D01*
X9782729Y-11864936D02*
X9773206Y-11845888D01*
X9773206Y-11845888D02*
X9763682Y-11807793D01*
X9763682Y-11807793D02*
X9763682Y-11760174D01*
X9763682Y-11760174D02*
X9773206Y-11722079D01*
X9773206Y-11722079D02*
X9782729Y-11703031D01*
X9782729Y-11703031D02*
X9792253Y-11693508D01*
X9792253Y-11693508D02*
X9811301Y-11683984D01*
X9973206Y-11883984D02*
X10011301Y-11883984D01*
X10011301Y-11883984D02*
X10030349Y-11874460D01*
X10030349Y-11874460D02*
X10039872Y-11864936D01*
X10039872Y-11864936D02*
X10058920Y-11836365D01*
X10058920Y-11836365D02*
X10068444Y-11798269D01*
X10068444Y-11798269D02*
X10068444Y-11722079D01*
X10068444Y-11722079D02*
X10058920Y-11703031D01*
X10058920Y-11703031D02*
X10049396Y-11693508D01*
X10049396Y-11693508D02*
X10030349Y-11683984D01*
X10030349Y-11683984D02*
X9992253Y-11683984D01*
X9992253Y-11683984D02*
X9973206Y-11693508D01*
X9973206Y-11693508D02*
X9963682Y-11703031D01*
X9963682Y-11703031D02*
X9954158Y-11722079D01*
X9954158Y-11722079D02*
X9954158Y-11769698D01*
X9954158Y-11769698D02*
X9963682Y-11788746D01*
X9963682Y-11788746D02*
X9973206Y-11798269D01*
X9973206Y-11798269D02*
X9992253Y-11807793D01*
X9992253Y-11807793D02*
X10030349Y-11807793D01*
X10030349Y-11807793D02*
X10049396Y-11798269D01*
X10049396Y-11798269D02*
X10058920Y-11788746D01*
X10058920Y-11788746D02*
X10068444Y-11769698D01*
X10144634Y-11683984D02*
X10144634Y-11722079D01*
X10220825Y-11683984D02*
X10220825Y-11722079D01*
X10516063Y-11960174D02*
X10506539Y-11950650D01*
X10506539Y-11950650D02*
X10487491Y-11922079D01*
X10487491Y-11922079D02*
X10477968Y-11903031D01*
X10477968Y-11903031D02*
X10468444Y-11874460D01*
X10468444Y-11874460D02*
X10458920Y-11826841D01*
X10458920Y-11826841D02*
X10458920Y-11788746D01*
X10458920Y-11788746D02*
X10468444Y-11741127D01*
X10468444Y-11741127D02*
X10477968Y-11712555D01*
X10477968Y-11712555D02*
X10487491Y-11693508D01*
X10487491Y-11693508D02*
X10506539Y-11664936D01*
X10506539Y-11664936D02*
X10516063Y-11655412D01*
X10582730Y-11703031D02*
X10592253Y-11693508D01*
X10592253Y-11693508D02*
X10611301Y-11683984D01*
X10611301Y-11683984D02*
X10658920Y-11683984D01*
X10658920Y-11683984D02*
X10677968Y-11693508D01*
X10677968Y-11693508D02*
X10687491Y-11703031D01*
X10687491Y-11703031D02*
X10697015Y-11722079D01*
X10697015Y-11722079D02*
X10697015Y-11741127D01*
X10697015Y-11741127D02*
X10687491Y-11769698D01*
X10687491Y-11769698D02*
X10573206Y-11883984D01*
X10573206Y-11883984D02*
X10697015Y-11883984D01*
X10935111Y-11883984D02*
X10935111Y-11683984D01*
X11020825Y-11883984D02*
X11020825Y-11779222D01*
X11020825Y-11779222D02*
X11011301Y-11760174D01*
X11011301Y-11760174D02*
X10992253Y-11750650D01*
X10992253Y-11750650D02*
X10963682Y-11750650D01*
X10963682Y-11750650D02*
X10944634Y-11760174D01*
X10944634Y-11760174D02*
X10935111Y-11769698D01*
X11144634Y-11883984D02*
X11125587Y-11874460D01*
X11125587Y-11874460D02*
X11116063Y-11864936D01*
X11116063Y-11864936D02*
X11106539Y-11845888D01*
X11106539Y-11845888D02*
X11106539Y-11788746D01*
X11106539Y-11788746D02*
X11116063Y-11769698D01*
X11116063Y-11769698D02*
X11125587Y-11760174D01*
X11125587Y-11760174D02*
X11144634Y-11750650D01*
X11144634Y-11750650D02*
X11173206Y-11750650D01*
X11173206Y-11750650D02*
X11192253Y-11760174D01*
X11192253Y-11760174D02*
X11201777Y-11769698D01*
X11201777Y-11769698D02*
X11211301Y-11788746D01*
X11211301Y-11788746D02*
X11211301Y-11845888D01*
X11211301Y-11845888D02*
X11201777Y-11864936D01*
X11201777Y-11864936D02*
X11192253Y-11874460D01*
X11192253Y-11874460D02*
X11173206Y-11883984D01*
X11173206Y-11883984D02*
X11144634Y-11883984D01*
X11325587Y-11883984D02*
X11306539Y-11874460D01*
X11306539Y-11874460D02*
X11297015Y-11855412D01*
X11297015Y-11855412D02*
X11297015Y-11683984D01*
X11477968Y-11874460D02*
X11458920Y-11883984D01*
X11458920Y-11883984D02*
X11420825Y-11883984D01*
X11420825Y-11883984D02*
X11401777Y-11874460D01*
X11401777Y-11874460D02*
X11392253Y-11855412D01*
X11392253Y-11855412D02*
X11392253Y-11779222D01*
X11392253Y-11779222D02*
X11401777Y-11760174D01*
X11401777Y-11760174D02*
X11420825Y-11750650D01*
X11420825Y-11750650D02*
X11458920Y-11750650D01*
X11458920Y-11750650D02*
X11477968Y-11760174D01*
X11477968Y-11760174D02*
X11487491Y-11779222D01*
X11487491Y-11779222D02*
X11487491Y-11798269D01*
X11487491Y-11798269D02*
X11392253Y-11817317D01*
X11563682Y-11874460D02*
X11582730Y-11883984D01*
X11582730Y-11883984D02*
X11620825Y-11883984D01*
X11620825Y-11883984D02*
X11639872Y-11874460D01*
X11639872Y-11874460D02*
X11649396Y-11855412D01*
X11649396Y-11855412D02*
X11649396Y-11845888D01*
X11649396Y-11845888D02*
X11639872Y-11826841D01*
X11639872Y-11826841D02*
X11620825Y-11817317D01*
X11620825Y-11817317D02*
X11592253Y-11817317D01*
X11592253Y-11817317D02*
X11573206Y-11807793D01*
X11573206Y-11807793D02*
X11563682Y-11788746D01*
X11563682Y-11788746D02*
X11563682Y-11779222D01*
X11563682Y-11779222D02*
X11573206Y-11760174D01*
X11573206Y-11760174D02*
X11592253Y-11750650D01*
X11592253Y-11750650D02*
X11620825Y-11750650D01*
X11620825Y-11750650D02*
X11639872Y-11760174D01*
X11716063Y-11960174D02*
X11725587Y-11950650D01*
X11725587Y-11950650D02*
X11744634Y-11922079D01*
X11744634Y-11922079D02*
X11754158Y-11903031D01*
X11754158Y-11903031D02*
X11763682Y-11874460D01*
X11763682Y-11874460D02*
X11773206Y-11826841D01*
X11773206Y-11826841D02*
X11773206Y-11788746D01*
X11773206Y-11788746D02*
X11763682Y-11741127D01*
X11763682Y-11741127D02*
X11754158Y-11712555D01*
X11754158Y-11712555D02*
X11744634Y-11693508D01*
X11744634Y-11693508D02*
X11725587Y-11664936D01*
X11725587Y-11664936D02*
X11716063Y-11655412D01*
X12077968Y-11960174D02*
X12068444Y-11950650D01*
X12068444Y-11950650D02*
X12049396Y-11922079D01*
X12049396Y-11922079D02*
X12039872Y-11903031D01*
X12039872Y-11903031D02*
X12030349Y-11874460D01*
X12030349Y-11874460D02*
X12020825Y-11826841D01*
X12020825Y-11826841D02*
X12020825Y-11788746D01*
X12020825Y-11788746D02*
X12030349Y-11741127D01*
X12030349Y-11741127D02*
X12039872Y-11712555D01*
X12039872Y-11712555D02*
X12049396Y-11693508D01*
X12049396Y-11693508D02*
X12068444Y-11664936D01*
X12068444Y-11664936D02*
X12077968Y-11655412D01*
X12154158Y-11750650D02*
X12154158Y-11883984D01*
X12154158Y-11769698D02*
X12163682Y-11760174D01*
X12163682Y-11760174D02*
X12182730Y-11750650D01*
X12182730Y-11750650D02*
X12211301Y-11750650D01*
X12211301Y-11750650D02*
X12230349Y-11760174D01*
X12230349Y-11760174D02*
X12239872Y-11779222D01*
X12239872Y-11779222D02*
X12239872Y-11883984D01*
X12363682Y-11883984D02*
X12344634Y-11874460D01*
X12344634Y-11874460D02*
X12335111Y-11864936D01*
X12335111Y-11864936D02*
X12325587Y-11845888D01*
X12325587Y-11845888D02*
X12325587Y-11788746D01*
X12325587Y-11788746D02*
X12335111Y-11769698D01*
X12335111Y-11769698D02*
X12344634Y-11760174D01*
X12344634Y-11760174D02*
X12363682Y-11750650D01*
X12363682Y-11750650D02*
X12392253Y-11750650D01*
X12392253Y-11750650D02*
X12411301Y-11760174D01*
X12411301Y-11760174D02*
X12420825Y-11769698D01*
X12420825Y-11769698D02*
X12430349Y-11788746D01*
X12430349Y-11788746D02*
X12430349Y-11845888D01*
X12430349Y-11845888D02*
X12420825Y-11864936D01*
X12420825Y-11864936D02*
X12411301Y-11874460D01*
X12411301Y-11874460D02*
X12392253Y-11883984D01*
X12392253Y-11883984D02*
X12363682Y-11883984D01*
X12487492Y-11750650D02*
X12563682Y-11750650D01*
X12516063Y-11683984D02*
X12516063Y-11855412D01*
X12516063Y-11855412D02*
X12525587Y-11874460D01*
X12525587Y-11874460D02*
X12544634Y-11883984D01*
X12544634Y-11883984D02*
X12563682Y-11883984D01*
X12782730Y-11750650D02*
X12782730Y-11950650D01*
X12782730Y-11760174D02*
X12801777Y-11750650D01*
X12801777Y-11750650D02*
X12839873Y-11750650D01*
X12839873Y-11750650D02*
X12858920Y-11760174D01*
X12858920Y-11760174D02*
X12868444Y-11769698D01*
X12868444Y-11769698D02*
X12877968Y-11788746D01*
X12877968Y-11788746D02*
X12877968Y-11845888D01*
X12877968Y-11845888D02*
X12868444Y-11864936D01*
X12868444Y-11864936D02*
X12858920Y-11874460D01*
X12858920Y-11874460D02*
X12839873Y-11883984D01*
X12839873Y-11883984D02*
X12801777Y-11883984D01*
X12801777Y-11883984D02*
X12782730Y-11874460D01*
X12992253Y-11883984D02*
X12973206Y-11874460D01*
X12973206Y-11874460D02*
X12963682Y-11855412D01*
X12963682Y-11855412D02*
X12963682Y-11683984D01*
X13154158Y-11883984D02*
X13154158Y-11779222D01*
X13154158Y-11779222D02*
X13144634Y-11760174D01*
X13144634Y-11760174D02*
X13125587Y-11750650D01*
X13125587Y-11750650D02*
X13087492Y-11750650D01*
X13087492Y-11750650D02*
X13068444Y-11760174D01*
X13154158Y-11874460D02*
X13135111Y-11883984D01*
X13135111Y-11883984D02*
X13087492Y-11883984D01*
X13087492Y-11883984D02*
X13068444Y-11874460D01*
X13068444Y-11874460D02*
X13058920Y-11855412D01*
X13058920Y-11855412D02*
X13058920Y-11836365D01*
X13058920Y-11836365D02*
X13068444Y-11817317D01*
X13068444Y-11817317D02*
X13087492Y-11807793D01*
X13087492Y-11807793D02*
X13135111Y-11807793D01*
X13135111Y-11807793D02*
X13154158Y-11798269D01*
X13220825Y-11750650D02*
X13297015Y-11750650D01*
X13249396Y-11683984D02*
X13249396Y-11855412D01*
X13249396Y-11855412D02*
X13258920Y-11874460D01*
X13258920Y-11874460D02*
X13277968Y-11883984D01*
X13277968Y-11883984D02*
X13297015Y-11883984D01*
X13439873Y-11874460D02*
X13420825Y-11883984D01*
X13420825Y-11883984D02*
X13382730Y-11883984D01*
X13382730Y-11883984D02*
X13363682Y-11874460D01*
X13363682Y-11874460D02*
X13354158Y-11855412D01*
X13354158Y-11855412D02*
X13354158Y-11779222D01*
X13354158Y-11779222D02*
X13363682Y-11760174D01*
X13363682Y-11760174D02*
X13382730Y-11750650D01*
X13382730Y-11750650D02*
X13420825Y-11750650D01*
X13420825Y-11750650D02*
X13439873Y-11760174D01*
X13439873Y-11760174D02*
X13449396Y-11779222D01*
X13449396Y-11779222D02*
X13449396Y-11798269D01*
X13449396Y-11798269D02*
X13354158Y-11817317D01*
X13620825Y-11883984D02*
X13620825Y-11683984D01*
X13620825Y-11874460D02*
X13601777Y-11883984D01*
X13601777Y-11883984D02*
X13563682Y-11883984D01*
X13563682Y-11883984D02*
X13544634Y-11874460D01*
X13544634Y-11874460D02*
X13535111Y-11864936D01*
X13535111Y-11864936D02*
X13525587Y-11845888D01*
X13525587Y-11845888D02*
X13525587Y-11788746D01*
X13525587Y-11788746D02*
X13535111Y-11769698D01*
X13535111Y-11769698D02*
X13544634Y-11760174D01*
X13544634Y-11760174D02*
X13563682Y-11750650D01*
X13563682Y-11750650D02*
X13601777Y-11750650D01*
X13601777Y-11750650D02*
X13620825Y-11760174D01*
X13697015Y-11960174D02*
X13706539Y-11950650D01*
X13706539Y-11950650D02*
X13725587Y-11922079D01*
X13725587Y-11922079D02*
X13735111Y-11903031D01*
X13735111Y-11903031D02*
X13744634Y-11874460D01*
X13744634Y-11874460D02*
X13754158Y-11826841D01*
X13754158Y-11826841D02*
X13754158Y-11788746D01*
X13754158Y-11788746D02*
X13744634Y-11741127D01*
X13744634Y-11741127D02*
X13735111Y-11712555D01*
X13735111Y-11712555D02*
X13725587Y-11693508D01*
X13725587Y-11693508D02*
X13706539Y-11664936D01*
X13706539Y-11664936D02*
X13697015Y-11655412D01*
M02*
