M48
; DRILL file {KiCad 7.0.5} date Sat Jun 10 07:12:51 2023
; FORMAT={-:-/ absolute / metric / decimal}
; #@! TF.CreationDate,2023-06-10T07:12:51+09:00
; #@! TF.GenerationSoftware,Kicad,Pcbnew,7.0.5
; #@! TF.FileFunction,Plated,1,2,PTH
FMAT,2
METRIC
; #@! TA.AperFunction,Plated,PTH,ViaDrill
T1C0.400
; #@! TA.AperFunction,Plated,PTH,ComponentDrill
T2C1.000
; #@! TA.AperFunction,Plated,PTH,ComponentDrill
T3C1.020
%
G90
G05
T1
X129.5Y-97.9
X134.59Y-97.681
X136.9Y-97.0
X138.669Y-93.291
X141.644Y-95.944
X142.864Y-97.264
T2
X126.97Y-90.298
X126.97Y-100.458
X127.0Y-105.664
X129.51Y-90.298
X129.51Y-100.458
X129.54Y-105.664
X130.81Y-85.852
X132.05Y-90.298
X132.05Y-100.458
X132.08Y-105.664
X133.35Y-85.852
X134.59Y-90.298
X134.59Y-100.458
X134.62Y-105.664
X135.89Y-85.852
X137.13Y-90.298
X137.13Y-100.458
X137.16Y-105.664
X139.67Y-90.298
X139.67Y-100.458
X139.7Y-105.664
T3
X72.9Y-86.995
X72.9Y-104.775
X75.44Y-86.995
X75.44Y-104.775
X77.98Y-86.995
X77.98Y-104.775
X80.52Y-86.995
X80.52Y-104.775
X83.06Y-86.995
X83.06Y-104.775
X85.6Y-86.995
X85.6Y-104.775
X88.14Y-86.995
X88.14Y-104.775
X90.68Y-86.995
X90.68Y-104.775
X93.22Y-86.995
X93.22Y-104.775
X95.76Y-86.995
X95.76Y-104.775
X98.3Y-86.995
X98.3Y-104.775
X100.84Y-86.995
X100.84Y-104.775
X103.38Y-86.995
X103.38Y-104.775
X105.92Y-86.995
X105.92Y-104.775
X108.46Y-86.995
X108.46Y-104.775
X111.0Y-86.995
X111.0Y-104.775
X113.54Y-86.995
X113.54Y-104.775
X116.08Y-86.995
X116.08Y-104.775
X118.62Y-86.995
X118.62Y-104.775
X121.16Y-86.995
X121.16Y-104.775
T0
M30
