%TF.GenerationSoftware,KiCad,Pcbnew,7.0.5*%
%TF.CreationDate,2023-06-10T07:12:52+09:00*%
%TF.ProjectId,game-boy-pico-link-board,67616d65-2d62-46f7-992d-7069636f2d6c,rev?*%
%TF.SameCoordinates,Original*%
%TF.FileFunction,Drillmap*%
%TF.FilePolarity,Positive*%
%FSLAX45Y45*%
G04 Gerber Fmt 4.5, Leading zero omitted, Abs format (unit mm)*
G04 Created by KiCad (PCBNEW 7.0.5) date 2023-06-10 07:12:52*
%MOMM*%
%LPD*%
G01*
G04 APERTURE LIST*
%ADD10C,0.100000*%
%ADD11C,0.200000*%
%ADD12C,0.040000*%
%ADD13C,0.102000*%
G04 APERTURE END LIST*
D10*
X14446000Y-10877500D02*
G75*
G03*
X14546000Y-10777500I0J100000D01*
G01*
X15196000Y-9102500D02*
X15196000Y-8452500D01*
X6946711Y-10776789D02*
G75*
G03*
X7046711Y-10876789I99999J-1D01*
G01*
X14446000Y-8277500D02*
X7046000Y-8277500D01*
X7046000Y-8277500D02*
G75*
G03*
X6946000Y-8377500I0J-100000D01*
G01*
X15501000Y-9842500D02*
X14546000Y-9842500D01*
X14546000Y-8377500D02*
G75*
G03*
X14446000Y-8277500I-100000J0D01*
G01*
X15501000Y-10702500D02*
X15501000Y-9842500D01*
X14546000Y-8452500D02*
X15196000Y-8452500D01*
X7046711Y-10876789D02*
X14446000Y-10877500D01*
X14546000Y-8377500D02*
X14546000Y-8452500D01*
X14546000Y-9102500D02*
X14546000Y-9842500D01*
X6946000Y-8377500D02*
X6946711Y-10776789D01*
X14546000Y-10702500D02*
X14546000Y-10777500D01*
X14546000Y-10702500D02*
X15501000Y-10702500D01*
X14546000Y-9102500D02*
X15196000Y-9102500D01*
D11*
D12*
X12930000Y-9770000D02*
X12970000Y-9810000D01*
X12970000Y-9770000D02*
X12930000Y-9810000D01*
X13439000Y-9748130D02*
X13479000Y-9788130D01*
X13479000Y-9748130D02*
X13439000Y-9788130D01*
X13670000Y-9680000D02*
X13710000Y-9720000D01*
X13710000Y-9680000D02*
X13670000Y-9720000D01*
X13846940Y-9309150D02*
X13886940Y-9349150D01*
X13886940Y-9309150D02*
X13846940Y-9349150D01*
X14144400Y-9574400D02*
X14184400Y-9614400D01*
X14184400Y-9574400D02*
X14144400Y-9614400D01*
X14266400Y-9706400D02*
X14306400Y-9746400D01*
X14306400Y-9706400D02*
X14266400Y-9746400D01*
D10*
X12747000Y-9029800D02*
G75*
G03*
X12747000Y-9029800I-50000J0D01*
G01*
X12747000Y-10045800D02*
G75*
G03*
X12747000Y-10045800I-50000J0D01*
G01*
X12750000Y-10566400D02*
G75*
G03*
X12750000Y-10566400I-50000J0D01*
G01*
X13001000Y-9029800D02*
G75*
G03*
X13001000Y-9029800I-50000J0D01*
G01*
X13001000Y-10045800D02*
G75*
G03*
X13001000Y-10045800I-50000J0D01*
G01*
X13004000Y-10566400D02*
G75*
G03*
X13004000Y-10566400I-50000J0D01*
G01*
X13131000Y-8585200D02*
G75*
G03*
X13131000Y-8585200I-50000J0D01*
G01*
X13255000Y-9029800D02*
G75*
G03*
X13255000Y-9029800I-50000J0D01*
G01*
X13255000Y-10045800D02*
G75*
G03*
X13255000Y-10045800I-50000J0D01*
G01*
X13258000Y-10566400D02*
G75*
G03*
X13258000Y-10566400I-50000J0D01*
G01*
X13385000Y-8585200D02*
G75*
G03*
X13385000Y-8585200I-50000J0D01*
G01*
X13509000Y-9029800D02*
G75*
G03*
X13509000Y-9029800I-50000J0D01*
G01*
X13509000Y-10045800D02*
G75*
G03*
X13509000Y-10045800I-50000J0D01*
G01*
X13512000Y-10566400D02*
G75*
G03*
X13512000Y-10566400I-50000J0D01*
G01*
X13639000Y-8585200D02*
G75*
G03*
X13639000Y-8585200I-50000J0D01*
G01*
X13763000Y-9029800D02*
G75*
G03*
X13763000Y-9029800I-50000J0D01*
G01*
X13763000Y-10045800D02*
G75*
G03*
X13763000Y-10045800I-50000J0D01*
G01*
X13766000Y-10566400D02*
G75*
G03*
X13766000Y-10566400I-50000J0D01*
G01*
X14017000Y-9029800D02*
G75*
G03*
X14017000Y-9029800I-50000J0D01*
G01*
X14017000Y-10045800D02*
G75*
G03*
X14017000Y-10045800I-50000J0D01*
G01*
X14020000Y-10566400D02*
G75*
G03*
X14020000Y-10566400I-50000J0D01*
G01*
D13*
X7290000Y-8648500D02*
X7290000Y-8750500D01*
X7239000Y-8699500D02*
X7341000Y-8699500D01*
X7290000Y-10426500D02*
X7290000Y-10528500D01*
X7239000Y-10477500D02*
X7341000Y-10477500D01*
X7544000Y-8648500D02*
X7544000Y-8750500D01*
X7493000Y-8699500D02*
X7595000Y-8699500D01*
X7544000Y-10426500D02*
X7544000Y-10528500D01*
X7493000Y-10477500D02*
X7595000Y-10477500D01*
X7798000Y-8648500D02*
X7798000Y-8750500D01*
X7747000Y-8699500D02*
X7849000Y-8699500D01*
X7798000Y-10426500D02*
X7798000Y-10528500D01*
X7747000Y-10477500D02*
X7849000Y-10477500D01*
X8052000Y-8648500D02*
X8052000Y-8750500D01*
X8001000Y-8699500D02*
X8103000Y-8699500D01*
X8052000Y-10426500D02*
X8052000Y-10528500D01*
X8001000Y-10477500D02*
X8103000Y-10477500D01*
X8306000Y-8648500D02*
X8306000Y-8750500D01*
X8255000Y-8699500D02*
X8357000Y-8699500D01*
X8306000Y-10426500D02*
X8306000Y-10528500D01*
X8255000Y-10477500D02*
X8357000Y-10477500D01*
X8560000Y-8648500D02*
X8560000Y-8750500D01*
X8509000Y-8699500D02*
X8611000Y-8699500D01*
X8560000Y-10426500D02*
X8560000Y-10528500D01*
X8509000Y-10477500D02*
X8611000Y-10477500D01*
X8814000Y-8648500D02*
X8814000Y-8750500D01*
X8763000Y-8699500D02*
X8865000Y-8699500D01*
X8814000Y-10426500D02*
X8814000Y-10528500D01*
X8763000Y-10477500D02*
X8865000Y-10477500D01*
X9068000Y-8648500D02*
X9068000Y-8750500D01*
X9017000Y-8699500D02*
X9119000Y-8699500D01*
X9068000Y-10426500D02*
X9068000Y-10528500D01*
X9017000Y-10477500D02*
X9119000Y-10477500D01*
X9322000Y-8648500D02*
X9322000Y-8750500D01*
X9271000Y-8699500D02*
X9373000Y-8699500D01*
X9322000Y-10426500D02*
X9322000Y-10528500D01*
X9271000Y-10477500D02*
X9373000Y-10477500D01*
X9576000Y-8648500D02*
X9576000Y-8750500D01*
X9525000Y-8699500D02*
X9627000Y-8699500D01*
X9576000Y-10426500D02*
X9576000Y-10528500D01*
X9525000Y-10477500D02*
X9627000Y-10477500D01*
X9830000Y-8648500D02*
X9830000Y-8750500D01*
X9779000Y-8699500D02*
X9881000Y-8699500D01*
X9830000Y-10426500D02*
X9830000Y-10528500D01*
X9779000Y-10477500D02*
X9881000Y-10477500D01*
X10084000Y-8648500D02*
X10084000Y-8750500D01*
X10033000Y-8699500D02*
X10135000Y-8699500D01*
X10084000Y-10426500D02*
X10084000Y-10528500D01*
X10033000Y-10477500D02*
X10135000Y-10477500D01*
X10338000Y-8648500D02*
X10338000Y-8750500D01*
X10287000Y-8699500D02*
X10389000Y-8699500D01*
X10338000Y-10426500D02*
X10338000Y-10528500D01*
X10287000Y-10477500D02*
X10389000Y-10477500D01*
X10592000Y-8648500D02*
X10592000Y-8750500D01*
X10541000Y-8699500D02*
X10643000Y-8699500D01*
X10592000Y-10426500D02*
X10592000Y-10528500D01*
X10541000Y-10477500D02*
X10643000Y-10477500D01*
X10846000Y-8648500D02*
X10846000Y-8750500D01*
X10795000Y-8699500D02*
X10897000Y-8699500D01*
X10846000Y-10426500D02*
X10846000Y-10528500D01*
X10795000Y-10477500D02*
X10897000Y-10477500D01*
X11100000Y-8648500D02*
X11100000Y-8750500D01*
X11049000Y-8699500D02*
X11151000Y-8699500D01*
X11100000Y-10426500D02*
X11100000Y-10528500D01*
X11049000Y-10477500D02*
X11151000Y-10477500D01*
X11354000Y-8648500D02*
X11354000Y-8750500D01*
X11303000Y-8699500D02*
X11405000Y-8699500D01*
X11354000Y-10426500D02*
X11354000Y-10528500D01*
X11303000Y-10477500D02*
X11405000Y-10477500D01*
X11608000Y-8648500D02*
X11608000Y-8750500D01*
X11557000Y-8699500D02*
X11659000Y-8699500D01*
X11608000Y-10426500D02*
X11608000Y-10528500D01*
X11557000Y-10477500D02*
X11659000Y-10477500D01*
X11862000Y-8648500D02*
X11862000Y-8750500D01*
X11811000Y-8699500D02*
X11913000Y-8699500D01*
X11862000Y-10426500D02*
X11862000Y-10528500D01*
X11811000Y-10477500D02*
X11913000Y-10477500D01*
X12116000Y-8648500D02*
X12116000Y-8750500D01*
X12065000Y-8699500D02*
X12167000Y-8699500D01*
X12116000Y-10426500D02*
X12116000Y-10528500D01*
X12065000Y-10477500D02*
X12167000Y-10477500D01*
D11*
X7201777Y-11193984D02*
X7201777Y-10993984D01*
X7201777Y-10993984D02*
X7249396Y-10993984D01*
X7249396Y-10993984D02*
X7277967Y-11003508D01*
X7277967Y-11003508D02*
X7297015Y-11022555D01*
X7297015Y-11022555D02*
X7306539Y-11041603D01*
X7306539Y-11041603D02*
X7316062Y-11079698D01*
X7316062Y-11079698D02*
X7316062Y-11108270D01*
X7316062Y-11108270D02*
X7306539Y-11146365D01*
X7306539Y-11146365D02*
X7297015Y-11165412D01*
X7297015Y-11165412D02*
X7277967Y-11184460D01*
X7277967Y-11184460D02*
X7249396Y-11193984D01*
X7249396Y-11193984D02*
X7201777Y-11193984D01*
X7401777Y-11193984D02*
X7401777Y-11060650D01*
X7401777Y-11098746D02*
X7411301Y-11079698D01*
X7411301Y-11079698D02*
X7420824Y-11070174D01*
X7420824Y-11070174D02*
X7439872Y-11060650D01*
X7439872Y-11060650D02*
X7458920Y-11060650D01*
X7525586Y-11193984D02*
X7525586Y-11060650D01*
X7525586Y-10993984D02*
X7516062Y-11003508D01*
X7516062Y-11003508D02*
X7525586Y-11013031D01*
X7525586Y-11013031D02*
X7535110Y-11003508D01*
X7535110Y-11003508D02*
X7525586Y-10993984D01*
X7525586Y-10993984D02*
X7525586Y-11013031D01*
X7649396Y-11193984D02*
X7630348Y-11184460D01*
X7630348Y-11184460D02*
X7620824Y-11165412D01*
X7620824Y-11165412D02*
X7620824Y-10993984D01*
X7754158Y-11193984D02*
X7735110Y-11184460D01*
X7735110Y-11184460D02*
X7725586Y-11165412D01*
X7725586Y-11165412D02*
X7725586Y-10993984D01*
X7982729Y-11193984D02*
X7982729Y-10993984D01*
X7982729Y-10993984D02*
X8049396Y-11136841D01*
X8049396Y-11136841D02*
X8116062Y-10993984D01*
X8116062Y-10993984D02*
X8116062Y-11193984D01*
X8297015Y-11193984D02*
X8297015Y-11089222D01*
X8297015Y-11089222D02*
X8287491Y-11070174D01*
X8287491Y-11070174D02*
X8268443Y-11060650D01*
X8268443Y-11060650D02*
X8230348Y-11060650D01*
X8230348Y-11060650D02*
X8211301Y-11070174D01*
X8297015Y-11184460D02*
X8277967Y-11193984D01*
X8277967Y-11193984D02*
X8230348Y-11193984D01*
X8230348Y-11193984D02*
X8211301Y-11184460D01*
X8211301Y-11184460D02*
X8201777Y-11165412D01*
X8201777Y-11165412D02*
X8201777Y-11146365D01*
X8201777Y-11146365D02*
X8211301Y-11127317D01*
X8211301Y-11127317D02*
X8230348Y-11117793D01*
X8230348Y-11117793D02*
X8277967Y-11117793D01*
X8277967Y-11117793D02*
X8297015Y-11108270D01*
X8392253Y-11060650D02*
X8392253Y-11260650D01*
X8392253Y-11070174D02*
X8411301Y-11060650D01*
X8411301Y-11060650D02*
X8449396Y-11060650D01*
X8449396Y-11060650D02*
X8468444Y-11070174D01*
X8468444Y-11070174D02*
X8477967Y-11079698D01*
X8477967Y-11079698D02*
X8487491Y-11098746D01*
X8487491Y-11098746D02*
X8487491Y-11155889D01*
X8487491Y-11155889D02*
X8477967Y-11174936D01*
X8477967Y-11174936D02*
X8468444Y-11184460D01*
X8468444Y-11184460D02*
X8449396Y-11193984D01*
X8449396Y-11193984D02*
X8411301Y-11193984D01*
X8411301Y-11193984D02*
X8392253Y-11184460D01*
X8573205Y-11174936D02*
X8582729Y-11184460D01*
X8582729Y-11184460D02*
X8573205Y-11193984D01*
X8573205Y-11193984D02*
X8563682Y-11184460D01*
X8563682Y-11184460D02*
X8573205Y-11174936D01*
X8573205Y-11174936D02*
X8573205Y-11193984D01*
X8573205Y-11070174D02*
X8582729Y-11079698D01*
X8582729Y-11079698D02*
X8573205Y-11089222D01*
X8573205Y-11089222D02*
X8563682Y-11079698D01*
X8563682Y-11079698D02*
X8573205Y-11070174D01*
X8573205Y-11070174D02*
X8573205Y-11089222D01*
D12*
X6901000Y-11502500D02*
X6941000Y-11542500D01*
X6941000Y-11502500D02*
X6901000Y-11542500D01*
D11*
X7239872Y-11413984D02*
X7258920Y-11413984D01*
X7258920Y-11413984D02*
X7277967Y-11423508D01*
X7277967Y-11423508D02*
X7287491Y-11433031D01*
X7287491Y-11433031D02*
X7297015Y-11452079D01*
X7297015Y-11452079D02*
X7306539Y-11490174D01*
X7306539Y-11490174D02*
X7306539Y-11537793D01*
X7306539Y-11537793D02*
X7297015Y-11575888D01*
X7297015Y-11575888D02*
X7287491Y-11594936D01*
X7287491Y-11594936D02*
X7277967Y-11604460D01*
X7277967Y-11604460D02*
X7258920Y-11613984D01*
X7258920Y-11613984D02*
X7239872Y-11613984D01*
X7239872Y-11613984D02*
X7220824Y-11604460D01*
X7220824Y-11604460D02*
X7211301Y-11594936D01*
X7211301Y-11594936D02*
X7201777Y-11575888D01*
X7201777Y-11575888D02*
X7192253Y-11537793D01*
X7192253Y-11537793D02*
X7192253Y-11490174D01*
X7192253Y-11490174D02*
X7201777Y-11452079D01*
X7201777Y-11452079D02*
X7211301Y-11433031D01*
X7211301Y-11433031D02*
X7220824Y-11423508D01*
X7220824Y-11423508D02*
X7239872Y-11413984D01*
X7392253Y-11594936D02*
X7401777Y-11604460D01*
X7401777Y-11604460D02*
X7392253Y-11613984D01*
X7392253Y-11613984D02*
X7382729Y-11604460D01*
X7382729Y-11604460D02*
X7392253Y-11594936D01*
X7392253Y-11594936D02*
X7392253Y-11613984D01*
X7573205Y-11480650D02*
X7573205Y-11613984D01*
X7525586Y-11404460D02*
X7477967Y-11547317D01*
X7477967Y-11547317D02*
X7601777Y-11547317D01*
X7716062Y-11413984D02*
X7735110Y-11413984D01*
X7735110Y-11413984D02*
X7754158Y-11423508D01*
X7754158Y-11423508D02*
X7763682Y-11433031D01*
X7763682Y-11433031D02*
X7773205Y-11452079D01*
X7773205Y-11452079D02*
X7782729Y-11490174D01*
X7782729Y-11490174D02*
X7782729Y-11537793D01*
X7782729Y-11537793D02*
X7773205Y-11575888D01*
X7773205Y-11575888D02*
X7763682Y-11594936D01*
X7763682Y-11594936D02*
X7754158Y-11604460D01*
X7754158Y-11604460D02*
X7735110Y-11613984D01*
X7735110Y-11613984D02*
X7716062Y-11613984D01*
X7716062Y-11613984D02*
X7697015Y-11604460D01*
X7697015Y-11604460D02*
X7687491Y-11594936D01*
X7687491Y-11594936D02*
X7677967Y-11575888D01*
X7677967Y-11575888D02*
X7668443Y-11537793D01*
X7668443Y-11537793D02*
X7668443Y-11490174D01*
X7668443Y-11490174D02*
X7677967Y-11452079D01*
X7677967Y-11452079D02*
X7687491Y-11433031D01*
X7687491Y-11433031D02*
X7697015Y-11423508D01*
X7697015Y-11423508D02*
X7716062Y-11413984D01*
X7906539Y-11413984D02*
X7925586Y-11413984D01*
X7925586Y-11413984D02*
X7944634Y-11423508D01*
X7944634Y-11423508D02*
X7954158Y-11433031D01*
X7954158Y-11433031D02*
X7963682Y-11452079D01*
X7963682Y-11452079D02*
X7973205Y-11490174D01*
X7973205Y-11490174D02*
X7973205Y-11537793D01*
X7973205Y-11537793D02*
X7963682Y-11575888D01*
X7963682Y-11575888D02*
X7954158Y-11594936D01*
X7954158Y-11594936D02*
X7944634Y-11604460D01*
X7944634Y-11604460D02*
X7925586Y-11613984D01*
X7925586Y-11613984D02*
X7906539Y-11613984D01*
X7906539Y-11613984D02*
X7887491Y-11604460D01*
X7887491Y-11604460D02*
X7877967Y-11594936D01*
X7877967Y-11594936D02*
X7868443Y-11575888D01*
X7868443Y-11575888D02*
X7858920Y-11537793D01*
X7858920Y-11537793D02*
X7858920Y-11490174D01*
X7858920Y-11490174D02*
X7868443Y-11452079D01*
X7868443Y-11452079D02*
X7877967Y-11433031D01*
X7877967Y-11433031D02*
X7887491Y-11423508D01*
X7887491Y-11423508D02*
X7906539Y-11413984D01*
X8058920Y-11613984D02*
X8058920Y-11480650D01*
X8058920Y-11499698D02*
X8068443Y-11490174D01*
X8068443Y-11490174D02*
X8087491Y-11480650D01*
X8087491Y-11480650D02*
X8116063Y-11480650D01*
X8116063Y-11480650D02*
X8135110Y-11490174D01*
X8135110Y-11490174D02*
X8144634Y-11509222D01*
X8144634Y-11509222D02*
X8144634Y-11613984D01*
X8144634Y-11509222D02*
X8154158Y-11490174D01*
X8154158Y-11490174D02*
X8173205Y-11480650D01*
X8173205Y-11480650D02*
X8201777Y-11480650D01*
X8201777Y-11480650D02*
X8220824Y-11490174D01*
X8220824Y-11490174D02*
X8230348Y-11509222D01*
X8230348Y-11509222D02*
X8230348Y-11613984D01*
X8325586Y-11613984D02*
X8325586Y-11480650D01*
X8325586Y-11499698D02*
X8335110Y-11490174D01*
X8335110Y-11490174D02*
X8354158Y-11480650D01*
X8354158Y-11480650D02*
X8382729Y-11480650D01*
X8382729Y-11480650D02*
X8401777Y-11490174D01*
X8401777Y-11490174D02*
X8411301Y-11509222D01*
X8411301Y-11509222D02*
X8411301Y-11613984D01*
X8411301Y-11509222D02*
X8420825Y-11490174D01*
X8420825Y-11490174D02*
X8439872Y-11480650D01*
X8439872Y-11480650D02*
X8468444Y-11480650D01*
X8468444Y-11480650D02*
X8487491Y-11490174D01*
X8487491Y-11490174D02*
X8497015Y-11509222D01*
X8497015Y-11509222D02*
X8497015Y-11613984D01*
X8887491Y-11404460D02*
X8716063Y-11661603D01*
X9144634Y-11413984D02*
X9163682Y-11413984D01*
X9163682Y-11413984D02*
X9182729Y-11423508D01*
X9182729Y-11423508D02*
X9192253Y-11433031D01*
X9192253Y-11433031D02*
X9201777Y-11452079D01*
X9201777Y-11452079D02*
X9211301Y-11490174D01*
X9211301Y-11490174D02*
X9211301Y-11537793D01*
X9211301Y-11537793D02*
X9201777Y-11575888D01*
X9201777Y-11575888D02*
X9192253Y-11594936D01*
X9192253Y-11594936D02*
X9182729Y-11604460D01*
X9182729Y-11604460D02*
X9163682Y-11613984D01*
X9163682Y-11613984D02*
X9144634Y-11613984D01*
X9144634Y-11613984D02*
X9125587Y-11604460D01*
X9125587Y-11604460D02*
X9116063Y-11594936D01*
X9116063Y-11594936D02*
X9106539Y-11575888D01*
X9106539Y-11575888D02*
X9097015Y-11537793D01*
X9097015Y-11537793D02*
X9097015Y-11490174D01*
X9097015Y-11490174D02*
X9106539Y-11452079D01*
X9106539Y-11452079D02*
X9116063Y-11433031D01*
X9116063Y-11433031D02*
X9125587Y-11423508D01*
X9125587Y-11423508D02*
X9144634Y-11413984D01*
X9297015Y-11594936D02*
X9306539Y-11604460D01*
X9306539Y-11604460D02*
X9297015Y-11613984D01*
X9297015Y-11613984D02*
X9287491Y-11604460D01*
X9287491Y-11604460D02*
X9297015Y-11594936D01*
X9297015Y-11594936D02*
X9297015Y-11613984D01*
X9430348Y-11413984D02*
X9449396Y-11413984D01*
X9449396Y-11413984D02*
X9468444Y-11423508D01*
X9468444Y-11423508D02*
X9477968Y-11433031D01*
X9477968Y-11433031D02*
X9487491Y-11452079D01*
X9487491Y-11452079D02*
X9497015Y-11490174D01*
X9497015Y-11490174D02*
X9497015Y-11537793D01*
X9497015Y-11537793D02*
X9487491Y-11575888D01*
X9487491Y-11575888D02*
X9477968Y-11594936D01*
X9477968Y-11594936D02*
X9468444Y-11604460D01*
X9468444Y-11604460D02*
X9449396Y-11613984D01*
X9449396Y-11613984D02*
X9430348Y-11613984D01*
X9430348Y-11613984D02*
X9411301Y-11604460D01*
X9411301Y-11604460D02*
X9401777Y-11594936D01*
X9401777Y-11594936D02*
X9392253Y-11575888D01*
X9392253Y-11575888D02*
X9382729Y-11537793D01*
X9382729Y-11537793D02*
X9382729Y-11490174D01*
X9382729Y-11490174D02*
X9392253Y-11452079D01*
X9392253Y-11452079D02*
X9401777Y-11433031D01*
X9401777Y-11433031D02*
X9411301Y-11423508D01*
X9411301Y-11423508D02*
X9430348Y-11413984D01*
X9687491Y-11613984D02*
X9573206Y-11613984D01*
X9630348Y-11613984D02*
X9630348Y-11413984D01*
X9630348Y-11413984D02*
X9611301Y-11442555D01*
X9611301Y-11442555D02*
X9592253Y-11461603D01*
X9592253Y-11461603D02*
X9573206Y-11471127D01*
X9868444Y-11413984D02*
X9773206Y-11413984D01*
X9773206Y-11413984D02*
X9763682Y-11509222D01*
X9763682Y-11509222D02*
X9773206Y-11499698D01*
X9773206Y-11499698D02*
X9792253Y-11490174D01*
X9792253Y-11490174D02*
X9839872Y-11490174D01*
X9839872Y-11490174D02*
X9858920Y-11499698D01*
X9858920Y-11499698D02*
X9868444Y-11509222D01*
X9868444Y-11509222D02*
X9877968Y-11528269D01*
X9877968Y-11528269D02*
X9877968Y-11575888D01*
X9877968Y-11575888D02*
X9868444Y-11594936D01*
X9868444Y-11594936D02*
X9858920Y-11604460D01*
X9858920Y-11604460D02*
X9839872Y-11613984D01*
X9839872Y-11613984D02*
X9792253Y-11613984D01*
X9792253Y-11613984D02*
X9773206Y-11604460D01*
X9773206Y-11604460D02*
X9763682Y-11594936D01*
X9944634Y-11413984D02*
X10077968Y-11413984D01*
X10077968Y-11413984D02*
X9992253Y-11613984D01*
X10144634Y-11413984D02*
X10144634Y-11452079D01*
X10220825Y-11413984D02*
X10220825Y-11452079D01*
X10516063Y-11690174D02*
X10506539Y-11680650D01*
X10506539Y-11680650D02*
X10487491Y-11652079D01*
X10487491Y-11652079D02*
X10477968Y-11633031D01*
X10477968Y-11633031D02*
X10468444Y-11604460D01*
X10468444Y-11604460D02*
X10458920Y-11556841D01*
X10458920Y-11556841D02*
X10458920Y-11518746D01*
X10458920Y-11518746D02*
X10468444Y-11471127D01*
X10468444Y-11471127D02*
X10477968Y-11442555D01*
X10477968Y-11442555D02*
X10487491Y-11423508D01*
X10487491Y-11423508D02*
X10506539Y-11394936D01*
X10506539Y-11394936D02*
X10516063Y-11385412D01*
X10677968Y-11413984D02*
X10639872Y-11413984D01*
X10639872Y-11413984D02*
X10620825Y-11423508D01*
X10620825Y-11423508D02*
X10611301Y-11433031D01*
X10611301Y-11433031D02*
X10592253Y-11461603D01*
X10592253Y-11461603D02*
X10582730Y-11499698D01*
X10582730Y-11499698D02*
X10582730Y-11575888D01*
X10582730Y-11575888D02*
X10592253Y-11594936D01*
X10592253Y-11594936D02*
X10601777Y-11604460D01*
X10601777Y-11604460D02*
X10620825Y-11613984D01*
X10620825Y-11613984D02*
X10658920Y-11613984D01*
X10658920Y-11613984D02*
X10677968Y-11604460D01*
X10677968Y-11604460D02*
X10687491Y-11594936D01*
X10687491Y-11594936D02*
X10697015Y-11575888D01*
X10697015Y-11575888D02*
X10697015Y-11528269D01*
X10697015Y-11528269D02*
X10687491Y-11509222D01*
X10687491Y-11509222D02*
X10677968Y-11499698D01*
X10677968Y-11499698D02*
X10658920Y-11490174D01*
X10658920Y-11490174D02*
X10620825Y-11490174D01*
X10620825Y-11490174D02*
X10601777Y-11499698D01*
X10601777Y-11499698D02*
X10592253Y-11509222D01*
X10592253Y-11509222D02*
X10582730Y-11528269D01*
X10935111Y-11613984D02*
X10935111Y-11413984D01*
X11020825Y-11613984D02*
X11020825Y-11509222D01*
X11020825Y-11509222D02*
X11011301Y-11490174D01*
X11011301Y-11490174D02*
X10992253Y-11480650D01*
X10992253Y-11480650D02*
X10963682Y-11480650D01*
X10963682Y-11480650D02*
X10944634Y-11490174D01*
X10944634Y-11490174D02*
X10935111Y-11499698D01*
X11144634Y-11613984D02*
X11125587Y-11604460D01*
X11125587Y-11604460D02*
X11116063Y-11594936D01*
X11116063Y-11594936D02*
X11106539Y-11575888D01*
X11106539Y-11575888D02*
X11106539Y-11518746D01*
X11106539Y-11518746D02*
X11116063Y-11499698D01*
X11116063Y-11499698D02*
X11125587Y-11490174D01*
X11125587Y-11490174D02*
X11144634Y-11480650D01*
X11144634Y-11480650D02*
X11173206Y-11480650D01*
X11173206Y-11480650D02*
X11192253Y-11490174D01*
X11192253Y-11490174D02*
X11201777Y-11499698D01*
X11201777Y-11499698D02*
X11211301Y-11518746D01*
X11211301Y-11518746D02*
X11211301Y-11575888D01*
X11211301Y-11575888D02*
X11201777Y-11594936D01*
X11201777Y-11594936D02*
X11192253Y-11604460D01*
X11192253Y-11604460D02*
X11173206Y-11613984D01*
X11173206Y-11613984D02*
X11144634Y-11613984D01*
X11325587Y-11613984D02*
X11306539Y-11604460D01*
X11306539Y-11604460D02*
X11297015Y-11585412D01*
X11297015Y-11585412D02*
X11297015Y-11413984D01*
X11477968Y-11604460D02*
X11458920Y-11613984D01*
X11458920Y-11613984D02*
X11420825Y-11613984D01*
X11420825Y-11613984D02*
X11401777Y-11604460D01*
X11401777Y-11604460D02*
X11392253Y-11585412D01*
X11392253Y-11585412D02*
X11392253Y-11509222D01*
X11392253Y-11509222D02*
X11401777Y-11490174D01*
X11401777Y-11490174D02*
X11420825Y-11480650D01*
X11420825Y-11480650D02*
X11458920Y-11480650D01*
X11458920Y-11480650D02*
X11477968Y-11490174D01*
X11477968Y-11490174D02*
X11487491Y-11509222D01*
X11487491Y-11509222D02*
X11487491Y-11528269D01*
X11487491Y-11528269D02*
X11392253Y-11547317D01*
X11563682Y-11604460D02*
X11582730Y-11613984D01*
X11582730Y-11613984D02*
X11620825Y-11613984D01*
X11620825Y-11613984D02*
X11639872Y-11604460D01*
X11639872Y-11604460D02*
X11649396Y-11585412D01*
X11649396Y-11585412D02*
X11649396Y-11575888D01*
X11649396Y-11575888D02*
X11639872Y-11556841D01*
X11639872Y-11556841D02*
X11620825Y-11547317D01*
X11620825Y-11547317D02*
X11592253Y-11547317D01*
X11592253Y-11547317D02*
X11573206Y-11537793D01*
X11573206Y-11537793D02*
X11563682Y-11518746D01*
X11563682Y-11518746D02*
X11563682Y-11509222D01*
X11563682Y-11509222D02*
X11573206Y-11490174D01*
X11573206Y-11490174D02*
X11592253Y-11480650D01*
X11592253Y-11480650D02*
X11620825Y-11480650D01*
X11620825Y-11480650D02*
X11639872Y-11490174D01*
X11716063Y-11690174D02*
X11725587Y-11680650D01*
X11725587Y-11680650D02*
X11744634Y-11652079D01*
X11744634Y-11652079D02*
X11754158Y-11633031D01*
X11754158Y-11633031D02*
X11763682Y-11604460D01*
X11763682Y-11604460D02*
X11773206Y-11556841D01*
X11773206Y-11556841D02*
X11773206Y-11518746D01*
X11773206Y-11518746D02*
X11763682Y-11471127D01*
X11763682Y-11471127D02*
X11754158Y-11442555D01*
X11754158Y-11442555D02*
X11744634Y-11423508D01*
X11744634Y-11423508D02*
X11725587Y-11394936D01*
X11725587Y-11394936D02*
X11716063Y-11385412D01*
D10*
X6941000Y-11786500D02*
G75*
G03*
X6941000Y-11786500I-50000J0D01*
G01*
D11*
X7306539Y-11877984D02*
X7192253Y-11877984D01*
X7249396Y-11877984D02*
X7249396Y-11677984D01*
X7249396Y-11677984D02*
X7230348Y-11706555D01*
X7230348Y-11706555D02*
X7211301Y-11725603D01*
X7211301Y-11725603D02*
X7192253Y-11735127D01*
X7392253Y-11858936D02*
X7401777Y-11868460D01*
X7401777Y-11868460D02*
X7392253Y-11877984D01*
X7392253Y-11877984D02*
X7382729Y-11868460D01*
X7382729Y-11868460D02*
X7392253Y-11858936D01*
X7392253Y-11858936D02*
X7392253Y-11877984D01*
X7525586Y-11677984D02*
X7544634Y-11677984D01*
X7544634Y-11677984D02*
X7563682Y-11687508D01*
X7563682Y-11687508D02*
X7573205Y-11697031D01*
X7573205Y-11697031D02*
X7582729Y-11716079D01*
X7582729Y-11716079D02*
X7592253Y-11754174D01*
X7592253Y-11754174D02*
X7592253Y-11801793D01*
X7592253Y-11801793D02*
X7582729Y-11839888D01*
X7582729Y-11839888D02*
X7573205Y-11858936D01*
X7573205Y-11858936D02*
X7563682Y-11868460D01*
X7563682Y-11868460D02*
X7544634Y-11877984D01*
X7544634Y-11877984D02*
X7525586Y-11877984D01*
X7525586Y-11877984D02*
X7506539Y-11868460D01*
X7506539Y-11868460D02*
X7497015Y-11858936D01*
X7497015Y-11858936D02*
X7487491Y-11839888D01*
X7487491Y-11839888D02*
X7477967Y-11801793D01*
X7477967Y-11801793D02*
X7477967Y-11754174D01*
X7477967Y-11754174D02*
X7487491Y-11716079D01*
X7487491Y-11716079D02*
X7497015Y-11697031D01*
X7497015Y-11697031D02*
X7506539Y-11687508D01*
X7506539Y-11687508D02*
X7525586Y-11677984D01*
X7716062Y-11677984D02*
X7735110Y-11677984D01*
X7735110Y-11677984D02*
X7754158Y-11687508D01*
X7754158Y-11687508D02*
X7763682Y-11697031D01*
X7763682Y-11697031D02*
X7773205Y-11716079D01*
X7773205Y-11716079D02*
X7782729Y-11754174D01*
X7782729Y-11754174D02*
X7782729Y-11801793D01*
X7782729Y-11801793D02*
X7773205Y-11839888D01*
X7773205Y-11839888D02*
X7763682Y-11858936D01*
X7763682Y-11858936D02*
X7754158Y-11868460D01*
X7754158Y-11868460D02*
X7735110Y-11877984D01*
X7735110Y-11877984D02*
X7716062Y-11877984D01*
X7716062Y-11877984D02*
X7697015Y-11868460D01*
X7697015Y-11868460D02*
X7687491Y-11858936D01*
X7687491Y-11858936D02*
X7677967Y-11839888D01*
X7677967Y-11839888D02*
X7668443Y-11801793D01*
X7668443Y-11801793D02*
X7668443Y-11754174D01*
X7668443Y-11754174D02*
X7677967Y-11716079D01*
X7677967Y-11716079D02*
X7687491Y-11697031D01*
X7687491Y-11697031D02*
X7697015Y-11687508D01*
X7697015Y-11687508D02*
X7716062Y-11677984D01*
X7906539Y-11677984D02*
X7925586Y-11677984D01*
X7925586Y-11677984D02*
X7944634Y-11687508D01*
X7944634Y-11687508D02*
X7954158Y-11697031D01*
X7954158Y-11697031D02*
X7963682Y-11716079D01*
X7963682Y-11716079D02*
X7973205Y-11754174D01*
X7973205Y-11754174D02*
X7973205Y-11801793D01*
X7973205Y-11801793D02*
X7963682Y-11839888D01*
X7963682Y-11839888D02*
X7954158Y-11858936D01*
X7954158Y-11858936D02*
X7944634Y-11868460D01*
X7944634Y-11868460D02*
X7925586Y-11877984D01*
X7925586Y-11877984D02*
X7906539Y-11877984D01*
X7906539Y-11877984D02*
X7887491Y-11868460D01*
X7887491Y-11868460D02*
X7877967Y-11858936D01*
X7877967Y-11858936D02*
X7868443Y-11839888D01*
X7868443Y-11839888D02*
X7858920Y-11801793D01*
X7858920Y-11801793D02*
X7858920Y-11754174D01*
X7858920Y-11754174D02*
X7868443Y-11716079D01*
X7868443Y-11716079D02*
X7877967Y-11697031D01*
X7877967Y-11697031D02*
X7887491Y-11687508D01*
X7887491Y-11687508D02*
X7906539Y-11677984D01*
X8058920Y-11877984D02*
X8058920Y-11744650D01*
X8058920Y-11763698D02*
X8068443Y-11754174D01*
X8068443Y-11754174D02*
X8087491Y-11744650D01*
X8087491Y-11744650D02*
X8116063Y-11744650D01*
X8116063Y-11744650D02*
X8135110Y-11754174D01*
X8135110Y-11754174D02*
X8144634Y-11773222D01*
X8144634Y-11773222D02*
X8144634Y-11877984D01*
X8144634Y-11773222D02*
X8154158Y-11754174D01*
X8154158Y-11754174D02*
X8173205Y-11744650D01*
X8173205Y-11744650D02*
X8201777Y-11744650D01*
X8201777Y-11744650D02*
X8220824Y-11754174D01*
X8220824Y-11754174D02*
X8230348Y-11773222D01*
X8230348Y-11773222D02*
X8230348Y-11877984D01*
X8325586Y-11877984D02*
X8325586Y-11744650D01*
X8325586Y-11763698D02*
X8335110Y-11754174D01*
X8335110Y-11754174D02*
X8354158Y-11744650D01*
X8354158Y-11744650D02*
X8382729Y-11744650D01*
X8382729Y-11744650D02*
X8401777Y-11754174D01*
X8401777Y-11754174D02*
X8411301Y-11773222D01*
X8411301Y-11773222D02*
X8411301Y-11877984D01*
X8411301Y-11773222D02*
X8420825Y-11754174D01*
X8420825Y-11754174D02*
X8439872Y-11744650D01*
X8439872Y-11744650D02*
X8468444Y-11744650D01*
X8468444Y-11744650D02*
X8487491Y-11754174D01*
X8487491Y-11754174D02*
X8497015Y-11773222D01*
X8497015Y-11773222D02*
X8497015Y-11877984D01*
X8887491Y-11668460D02*
X8716063Y-11925603D01*
X9144634Y-11677984D02*
X9163682Y-11677984D01*
X9163682Y-11677984D02*
X9182729Y-11687508D01*
X9182729Y-11687508D02*
X9192253Y-11697031D01*
X9192253Y-11697031D02*
X9201777Y-11716079D01*
X9201777Y-11716079D02*
X9211301Y-11754174D01*
X9211301Y-11754174D02*
X9211301Y-11801793D01*
X9211301Y-11801793D02*
X9201777Y-11839888D01*
X9201777Y-11839888D02*
X9192253Y-11858936D01*
X9192253Y-11858936D02*
X9182729Y-11868460D01*
X9182729Y-11868460D02*
X9163682Y-11877984D01*
X9163682Y-11877984D02*
X9144634Y-11877984D01*
X9144634Y-11877984D02*
X9125587Y-11868460D01*
X9125587Y-11868460D02*
X9116063Y-11858936D01*
X9116063Y-11858936D02*
X9106539Y-11839888D01*
X9106539Y-11839888D02*
X9097015Y-11801793D01*
X9097015Y-11801793D02*
X9097015Y-11754174D01*
X9097015Y-11754174D02*
X9106539Y-11716079D01*
X9106539Y-11716079D02*
X9116063Y-11697031D01*
X9116063Y-11697031D02*
X9125587Y-11687508D01*
X9125587Y-11687508D02*
X9144634Y-11677984D01*
X9297015Y-11858936D02*
X9306539Y-11868460D01*
X9306539Y-11868460D02*
X9297015Y-11877984D01*
X9297015Y-11877984D02*
X9287491Y-11868460D01*
X9287491Y-11868460D02*
X9297015Y-11858936D01*
X9297015Y-11858936D02*
X9297015Y-11877984D01*
X9430348Y-11677984D02*
X9449396Y-11677984D01*
X9449396Y-11677984D02*
X9468444Y-11687508D01*
X9468444Y-11687508D02*
X9477968Y-11697031D01*
X9477968Y-11697031D02*
X9487491Y-11716079D01*
X9487491Y-11716079D02*
X9497015Y-11754174D01*
X9497015Y-11754174D02*
X9497015Y-11801793D01*
X9497015Y-11801793D02*
X9487491Y-11839888D01*
X9487491Y-11839888D02*
X9477968Y-11858936D01*
X9477968Y-11858936D02*
X9468444Y-11868460D01*
X9468444Y-11868460D02*
X9449396Y-11877984D01*
X9449396Y-11877984D02*
X9430348Y-11877984D01*
X9430348Y-11877984D02*
X9411301Y-11868460D01*
X9411301Y-11868460D02*
X9401777Y-11858936D01*
X9401777Y-11858936D02*
X9392253Y-11839888D01*
X9392253Y-11839888D02*
X9382729Y-11801793D01*
X9382729Y-11801793D02*
X9382729Y-11754174D01*
X9382729Y-11754174D02*
X9392253Y-11716079D01*
X9392253Y-11716079D02*
X9401777Y-11697031D01*
X9401777Y-11697031D02*
X9411301Y-11687508D01*
X9411301Y-11687508D02*
X9430348Y-11677984D01*
X9563682Y-11677984D02*
X9687491Y-11677984D01*
X9687491Y-11677984D02*
X9620825Y-11754174D01*
X9620825Y-11754174D02*
X9649396Y-11754174D01*
X9649396Y-11754174D02*
X9668444Y-11763698D01*
X9668444Y-11763698D02*
X9677968Y-11773222D01*
X9677968Y-11773222D02*
X9687491Y-11792269D01*
X9687491Y-11792269D02*
X9687491Y-11839888D01*
X9687491Y-11839888D02*
X9677968Y-11858936D01*
X9677968Y-11858936D02*
X9668444Y-11868460D01*
X9668444Y-11868460D02*
X9649396Y-11877984D01*
X9649396Y-11877984D02*
X9592253Y-11877984D01*
X9592253Y-11877984D02*
X9573206Y-11868460D01*
X9573206Y-11868460D02*
X9563682Y-11858936D01*
X9782729Y-11877984D02*
X9820825Y-11877984D01*
X9820825Y-11877984D02*
X9839872Y-11868460D01*
X9839872Y-11868460D02*
X9849396Y-11858936D01*
X9849396Y-11858936D02*
X9868444Y-11830365D01*
X9868444Y-11830365D02*
X9877968Y-11792269D01*
X9877968Y-11792269D02*
X9877968Y-11716079D01*
X9877968Y-11716079D02*
X9868444Y-11697031D01*
X9868444Y-11697031D02*
X9858920Y-11687508D01*
X9858920Y-11687508D02*
X9839872Y-11677984D01*
X9839872Y-11677984D02*
X9801777Y-11677984D01*
X9801777Y-11677984D02*
X9782729Y-11687508D01*
X9782729Y-11687508D02*
X9773206Y-11697031D01*
X9773206Y-11697031D02*
X9763682Y-11716079D01*
X9763682Y-11716079D02*
X9763682Y-11763698D01*
X9763682Y-11763698D02*
X9773206Y-11782746D01*
X9773206Y-11782746D02*
X9782729Y-11792269D01*
X9782729Y-11792269D02*
X9801777Y-11801793D01*
X9801777Y-11801793D02*
X9839872Y-11801793D01*
X9839872Y-11801793D02*
X9858920Y-11792269D01*
X9858920Y-11792269D02*
X9868444Y-11782746D01*
X9868444Y-11782746D02*
X9877968Y-11763698D01*
X10049396Y-11744650D02*
X10049396Y-11877984D01*
X10001777Y-11668460D02*
X9954158Y-11811317D01*
X9954158Y-11811317D02*
X10077968Y-11811317D01*
X10144634Y-11677984D02*
X10144634Y-11716079D01*
X10220825Y-11677984D02*
X10220825Y-11716079D01*
X10516063Y-11954174D02*
X10506539Y-11944650D01*
X10506539Y-11944650D02*
X10487491Y-11916079D01*
X10487491Y-11916079D02*
X10477968Y-11897031D01*
X10477968Y-11897031D02*
X10468444Y-11868460D01*
X10468444Y-11868460D02*
X10458920Y-11820841D01*
X10458920Y-11820841D02*
X10458920Y-11782746D01*
X10458920Y-11782746D02*
X10468444Y-11735127D01*
X10468444Y-11735127D02*
X10477968Y-11706555D01*
X10477968Y-11706555D02*
X10487491Y-11687508D01*
X10487491Y-11687508D02*
X10506539Y-11658936D01*
X10506539Y-11658936D02*
X10516063Y-11649412D01*
X10582730Y-11697031D02*
X10592253Y-11687508D01*
X10592253Y-11687508D02*
X10611301Y-11677984D01*
X10611301Y-11677984D02*
X10658920Y-11677984D01*
X10658920Y-11677984D02*
X10677968Y-11687508D01*
X10677968Y-11687508D02*
X10687491Y-11697031D01*
X10687491Y-11697031D02*
X10697015Y-11716079D01*
X10697015Y-11716079D02*
X10697015Y-11735127D01*
X10697015Y-11735127D02*
X10687491Y-11763698D01*
X10687491Y-11763698D02*
X10573206Y-11877984D01*
X10573206Y-11877984D02*
X10697015Y-11877984D01*
X10887491Y-11877984D02*
X10773206Y-11877984D01*
X10830349Y-11877984D02*
X10830349Y-11677984D01*
X10830349Y-11677984D02*
X10811301Y-11706555D01*
X10811301Y-11706555D02*
X10792253Y-11725603D01*
X10792253Y-11725603D02*
X10773206Y-11735127D01*
X11125587Y-11877984D02*
X11125587Y-11677984D01*
X11211301Y-11877984D02*
X11211301Y-11773222D01*
X11211301Y-11773222D02*
X11201777Y-11754174D01*
X11201777Y-11754174D02*
X11182730Y-11744650D01*
X11182730Y-11744650D02*
X11154158Y-11744650D01*
X11154158Y-11744650D02*
X11135111Y-11754174D01*
X11135111Y-11754174D02*
X11125587Y-11763698D01*
X11335110Y-11877984D02*
X11316063Y-11868460D01*
X11316063Y-11868460D02*
X11306539Y-11858936D01*
X11306539Y-11858936D02*
X11297015Y-11839888D01*
X11297015Y-11839888D02*
X11297015Y-11782746D01*
X11297015Y-11782746D02*
X11306539Y-11763698D01*
X11306539Y-11763698D02*
X11316063Y-11754174D01*
X11316063Y-11754174D02*
X11335110Y-11744650D01*
X11335110Y-11744650D02*
X11363682Y-11744650D01*
X11363682Y-11744650D02*
X11382730Y-11754174D01*
X11382730Y-11754174D02*
X11392253Y-11763698D01*
X11392253Y-11763698D02*
X11401777Y-11782746D01*
X11401777Y-11782746D02*
X11401777Y-11839888D01*
X11401777Y-11839888D02*
X11392253Y-11858936D01*
X11392253Y-11858936D02*
X11382730Y-11868460D01*
X11382730Y-11868460D02*
X11363682Y-11877984D01*
X11363682Y-11877984D02*
X11335110Y-11877984D01*
X11516063Y-11877984D02*
X11497015Y-11868460D01*
X11497015Y-11868460D02*
X11487491Y-11849412D01*
X11487491Y-11849412D02*
X11487491Y-11677984D01*
X11668444Y-11868460D02*
X11649396Y-11877984D01*
X11649396Y-11877984D02*
X11611301Y-11877984D01*
X11611301Y-11877984D02*
X11592253Y-11868460D01*
X11592253Y-11868460D02*
X11582730Y-11849412D01*
X11582730Y-11849412D02*
X11582730Y-11773222D01*
X11582730Y-11773222D02*
X11592253Y-11754174D01*
X11592253Y-11754174D02*
X11611301Y-11744650D01*
X11611301Y-11744650D02*
X11649396Y-11744650D01*
X11649396Y-11744650D02*
X11668444Y-11754174D01*
X11668444Y-11754174D02*
X11677968Y-11773222D01*
X11677968Y-11773222D02*
X11677968Y-11792269D01*
X11677968Y-11792269D02*
X11582730Y-11811317D01*
X11754158Y-11868460D02*
X11773206Y-11877984D01*
X11773206Y-11877984D02*
X11811301Y-11877984D01*
X11811301Y-11877984D02*
X11830349Y-11868460D01*
X11830349Y-11868460D02*
X11839872Y-11849412D01*
X11839872Y-11849412D02*
X11839872Y-11839888D01*
X11839872Y-11839888D02*
X11830349Y-11820841D01*
X11830349Y-11820841D02*
X11811301Y-11811317D01*
X11811301Y-11811317D02*
X11782730Y-11811317D01*
X11782730Y-11811317D02*
X11763682Y-11801793D01*
X11763682Y-11801793D02*
X11754158Y-11782746D01*
X11754158Y-11782746D02*
X11754158Y-11773222D01*
X11754158Y-11773222D02*
X11763682Y-11754174D01*
X11763682Y-11754174D02*
X11782730Y-11744650D01*
X11782730Y-11744650D02*
X11811301Y-11744650D01*
X11811301Y-11744650D02*
X11830349Y-11754174D01*
X11906539Y-11954174D02*
X11916063Y-11944650D01*
X11916063Y-11944650D02*
X11935111Y-11916079D01*
X11935111Y-11916079D02*
X11944634Y-11897031D01*
X11944634Y-11897031D02*
X11954158Y-11868460D01*
X11954158Y-11868460D02*
X11963682Y-11820841D01*
X11963682Y-11820841D02*
X11963682Y-11782746D01*
X11963682Y-11782746D02*
X11954158Y-11735127D01*
X11954158Y-11735127D02*
X11944634Y-11706555D01*
X11944634Y-11706555D02*
X11935111Y-11687508D01*
X11935111Y-11687508D02*
X11916063Y-11658936D01*
X11916063Y-11658936D02*
X11906539Y-11649412D01*
D13*
X6890000Y-11999500D02*
X6890000Y-12101500D01*
X6839000Y-12050500D02*
X6941000Y-12050500D01*
D11*
X7306539Y-12141984D02*
X7192253Y-12141984D01*
X7249396Y-12141984D02*
X7249396Y-11941984D01*
X7249396Y-11941984D02*
X7230348Y-11970555D01*
X7230348Y-11970555D02*
X7211301Y-11989603D01*
X7211301Y-11989603D02*
X7192253Y-11999127D01*
X7392253Y-12122936D02*
X7401777Y-12132460D01*
X7401777Y-12132460D02*
X7392253Y-12141984D01*
X7392253Y-12141984D02*
X7382729Y-12132460D01*
X7382729Y-12132460D02*
X7392253Y-12122936D01*
X7392253Y-12122936D02*
X7392253Y-12141984D01*
X7525586Y-11941984D02*
X7544634Y-11941984D01*
X7544634Y-11941984D02*
X7563682Y-11951508D01*
X7563682Y-11951508D02*
X7573205Y-11961031D01*
X7573205Y-11961031D02*
X7582729Y-11980079D01*
X7582729Y-11980079D02*
X7592253Y-12018174D01*
X7592253Y-12018174D02*
X7592253Y-12065793D01*
X7592253Y-12065793D02*
X7582729Y-12103888D01*
X7582729Y-12103888D02*
X7573205Y-12122936D01*
X7573205Y-12122936D02*
X7563682Y-12132460D01*
X7563682Y-12132460D02*
X7544634Y-12141984D01*
X7544634Y-12141984D02*
X7525586Y-12141984D01*
X7525586Y-12141984D02*
X7506539Y-12132460D01*
X7506539Y-12132460D02*
X7497015Y-12122936D01*
X7497015Y-12122936D02*
X7487491Y-12103888D01*
X7487491Y-12103888D02*
X7477967Y-12065793D01*
X7477967Y-12065793D02*
X7477967Y-12018174D01*
X7477967Y-12018174D02*
X7487491Y-11980079D01*
X7487491Y-11980079D02*
X7497015Y-11961031D01*
X7497015Y-11961031D02*
X7506539Y-11951508D01*
X7506539Y-11951508D02*
X7525586Y-11941984D01*
X7668443Y-11961031D02*
X7677967Y-11951508D01*
X7677967Y-11951508D02*
X7697015Y-11941984D01*
X7697015Y-11941984D02*
X7744634Y-11941984D01*
X7744634Y-11941984D02*
X7763682Y-11951508D01*
X7763682Y-11951508D02*
X7773205Y-11961031D01*
X7773205Y-11961031D02*
X7782729Y-11980079D01*
X7782729Y-11980079D02*
X7782729Y-11999127D01*
X7782729Y-11999127D02*
X7773205Y-12027698D01*
X7773205Y-12027698D02*
X7658920Y-12141984D01*
X7658920Y-12141984D02*
X7782729Y-12141984D01*
X7906539Y-11941984D02*
X7925586Y-11941984D01*
X7925586Y-11941984D02*
X7944634Y-11951508D01*
X7944634Y-11951508D02*
X7954158Y-11961031D01*
X7954158Y-11961031D02*
X7963682Y-11980079D01*
X7963682Y-11980079D02*
X7973205Y-12018174D01*
X7973205Y-12018174D02*
X7973205Y-12065793D01*
X7973205Y-12065793D02*
X7963682Y-12103888D01*
X7963682Y-12103888D02*
X7954158Y-12122936D01*
X7954158Y-12122936D02*
X7944634Y-12132460D01*
X7944634Y-12132460D02*
X7925586Y-12141984D01*
X7925586Y-12141984D02*
X7906539Y-12141984D01*
X7906539Y-12141984D02*
X7887491Y-12132460D01*
X7887491Y-12132460D02*
X7877967Y-12122936D01*
X7877967Y-12122936D02*
X7868443Y-12103888D01*
X7868443Y-12103888D02*
X7858920Y-12065793D01*
X7858920Y-12065793D02*
X7858920Y-12018174D01*
X7858920Y-12018174D02*
X7868443Y-11980079D01*
X7868443Y-11980079D02*
X7877967Y-11961031D01*
X7877967Y-11961031D02*
X7887491Y-11951508D01*
X7887491Y-11951508D02*
X7906539Y-11941984D01*
X8058920Y-12141984D02*
X8058920Y-12008650D01*
X8058920Y-12027698D02*
X8068443Y-12018174D01*
X8068443Y-12018174D02*
X8087491Y-12008650D01*
X8087491Y-12008650D02*
X8116063Y-12008650D01*
X8116063Y-12008650D02*
X8135110Y-12018174D01*
X8135110Y-12018174D02*
X8144634Y-12037222D01*
X8144634Y-12037222D02*
X8144634Y-12141984D01*
X8144634Y-12037222D02*
X8154158Y-12018174D01*
X8154158Y-12018174D02*
X8173205Y-12008650D01*
X8173205Y-12008650D02*
X8201777Y-12008650D01*
X8201777Y-12008650D02*
X8220824Y-12018174D01*
X8220824Y-12018174D02*
X8230348Y-12037222D01*
X8230348Y-12037222D02*
X8230348Y-12141984D01*
X8325586Y-12141984D02*
X8325586Y-12008650D01*
X8325586Y-12027698D02*
X8335110Y-12018174D01*
X8335110Y-12018174D02*
X8354158Y-12008650D01*
X8354158Y-12008650D02*
X8382729Y-12008650D01*
X8382729Y-12008650D02*
X8401777Y-12018174D01*
X8401777Y-12018174D02*
X8411301Y-12037222D01*
X8411301Y-12037222D02*
X8411301Y-12141984D01*
X8411301Y-12037222D02*
X8420825Y-12018174D01*
X8420825Y-12018174D02*
X8439872Y-12008650D01*
X8439872Y-12008650D02*
X8468444Y-12008650D01*
X8468444Y-12008650D02*
X8487491Y-12018174D01*
X8487491Y-12018174D02*
X8497015Y-12037222D01*
X8497015Y-12037222D02*
X8497015Y-12141984D01*
X8887491Y-11932460D02*
X8716063Y-12189603D01*
X9144634Y-11941984D02*
X9163682Y-11941984D01*
X9163682Y-11941984D02*
X9182729Y-11951508D01*
X9182729Y-11951508D02*
X9192253Y-11961031D01*
X9192253Y-11961031D02*
X9201777Y-11980079D01*
X9201777Y-11980079D02*
X9211301Y-12018174D01*
X9211301Y-12018174D02*
X9211301Y-12065793D01*
X9211301Y-12065793D02*
X9201777Y-12103888D01*
X9201777Y-12103888D02*
X9192253Y-12122936D01*
X9192253Y-12122936D02*
X9182729Y-12132460D01*
X9182729Y-12132460D02*
X9163682Y-12141984D01*
X9163682Y-12141984D02*
X9144634Y-12141984D01*
X9144634Y-12141984D02*
X9125587Y-12132460D01*
X9125587Y-12132460D02*
X9116063Y-12122936D01*
X9116063Y-12122936D02*
X9106539Y-12103888D01*
X9106539Y-12103888D02*
X9097015Y-12065793D01*
X9097015Y-12065793D02*
X9097015Y-12018174D01*
X9097015Y-12018174D02*
X9106539Y-11980079D01*
X9106539Y-11980079D02*
X9116063Y-11961031D01*
X9116063Y-11961031D02*
X9125587Y-11951508D01*
X9125587Y-11951508D02*
X9144634Y-11941984D01*
X9297015Y-12122936D02*
X9306539Y-12132460D01*
X9306539Y-12132460D02*
X9297015Y-12141984D01*
X9297015Y-12141984D02*
X9287491Y-12132460D01*
X9287491Y-12132460D02*
X9297015Y-12122936D01*
X9297015Y-12122936D02*
X9297015Y-12141984D01*
X9430348Y-11941984D02*
X9449396Y-11941984D01*
X9449396Y-11941984D02*
X9468444Y-11951508D01*
X9468444Y-11951508D02*
X9477968Y-11961031D01*
X9477968Y-11961031D02*
X9487491Y-11980079D01*
X9487491Y-11980079D02*
X9497015Y-12018174D01*
X9497015Y-12018174D02*
X9497015Y-12065793D01*
X9497015Y-12065793D02*
X9487491Y-12103888D01*
X9487491Y-12103888D02*
X9477968Y-12122936D01*
X9477968Y-12122936D02*
X9468444Y-12132460D01*
X9468444Y-12132460D02*
X9449396Y-12141984D01*
X9449396Y-12141984D02*
X9430348Y-12141984D01*
X9430348Y-12141984D02*
X9411301Y-12132460D01*
X9411301Y-12132460D02*
X9401777Y-12122936D01*
X9401777Y-12122936D02*
X9392253Y-12103888D01*
X9392253Y-12103888D02*
X9382729Y-12065793D01*
X9382729Y-12065793D02*
X9382729Y-12018174D01*
X9382729Y-12018174D02*
X9392253Y-11980079D01*
X9392253Y-11980079D02*
X9401777Y-11961031D01*
X9401777Y-11961031D02*
X9411301Y-11951508D01*
X9411301Y-11951508D02*
X9430348Y-11941984D01*
X9668444Y-12008650D02*
X9668444Y-12141984D01*
X9620825Y-11932460D02*
X9573206Y-12075317D01*
X9573206Y-12075317D02*
X9697015Y-12075317D01*
X9811301Y-11941984D02*
X9830349Y-11941984D01*
X9830349Y-11941984D02*
X9849396Y-11951508D01*
X9849396Y-11951508D02*
X9858920Y-11961031D01*
X9858920Y-11961031D02*
X9868444Y-11980079D01*
X9868444Y-11980079D02*
X9877968Y-12018174D01*
X9877968Y-12018174D02*
X9877968Y-12065793D01*
X9877968Y-12065793D02*
X9868444Y-12103888D01*
X9868444Y-12103888D02*
X9858920Y-12122936D01*
X9858920Y-12122936D02*
X9849396Y-12132460D01*
X9849396Y-12132460D02*
X9830349Y-12141984D01*
X9830349Y-12141984D02*
X9811301Y-12141984D01*
X9811301Y-12141984D02*
X9792253Y-12132460D01*
X9792253Y-12132460D02*
X9782729Y-12122936D01*
X9782729Y-12122936D02*
X9773206Y-12103888D01*
X9773206Y-12103888D02*
X9763682Y-12065793D01*
X9763682Y-12065793D02*
X9763682Y-12018174D01*
X9763682Y-12018174D02*
X9773206Y-11980079D01*
X9773206Y-11980079D02*
X9782729Y-11961031D01*
X9782729Y-11961031D02*
X9792253Y-11951508D01*
X9792253Y-11951508D02*
X9811301Y-11941984D01*
X9954158Y-11961031D02*
X9963682Y-11951508D01*
X9963682Y-11951508D02*
X9982729Y-11941984D01*
X9982729Y-11941984D02*
X10030349Y-11941984D01*
X10030349Y-11941984D02*
X10049396Y-11951508D01*
X10049396Y-11951508D02*
X10058920Y-11961031D01*
X10058920Y-11961031D02*
X10068444Y-11980079D01*
X10068444Y-11980079D02*
X10068444Y-11999127D01*
X10068444Y-11999127D02*
X10058920Y-12027698D01*
X10058920Y-12027698D02*
X9944634Y-12141984D01*
X9944634Y-12141984D02*
X10068444Y-12141984D01*
X10144634Y-11941984D02*
X10144634Y-11980079D01*
X10220825Y-11941984D02*
X10220825Y-11980079D01*
X10516063Y-12218174D02*
X10506539Y-12208650D01*
X10506539Y-12208650D02*
X10487491Y-12180079D01*
X10487491Y-12180079D02*
X10477968Y-12161031D01*
X10477968Y-12161031D02*
X10468444Y-12132460D01*
X10468444Y-12132460D02*
X10458920Y-12084841D01*
X10458920Y-12084841D02*
X10458920Y-12046746D01*
X10458920Y-12046746D02*
X10468444Y-11999127D01*
X10468444Y-11999127D02*
X10477968Y-11970555D01*
X10477968Y-11970555D02*
X10487491Y-11951508D01*
X10487491Y-11951508D02*
X10506539Y-11922936D01*
X10506539Y-11922936D02*
X10516063Y-11913412D01*
X10677968Y-12008650D02*
X10677968Y-12141984D01*
X10630349Y-11932460D02*
X10582730Y-12075317D01*
X10582730Y-12075317D02*
X10706539Y-12075317D01*
X10820825Y-11941984D02*
X10839872Y-11941984D01*
X10839872Y-11941984D02*
X10858920Y-11951508D01*
X10858920Y-11951508D02*
X10868444Y-11961031D01*
X10868444Y-11961031D02*
X10877968Y-11980079D01*
X10877968Y-11980079D02*
X10887491Y-12018174D01*
X10887491Y-12018174D02*
X10887491Y-12065793D01*
X10887491Y-12065793D02*
X10877968Y-12103888D01*
X10877968Y-12103888D02*
X10868444Y-12122936D01*
X10868444Y-12122936D02*
X10858920Y-12132460D01*
X10858920Y-12132460D02*
X10839872Y-12141984D01*
X10839872Y-12141984D02*
X10820825Y-12141984D01*
X10820825Y-12141984D02*
X10801777Y-12132460D01*
X10801777Y-12132460D02*
X10792253Y-12122936D01*
X10792253Y-12122936D02*
X10782730Y-12103888D01*
X10782730Y-12103888D02*
X10773206Y-12065793D01*
X10773206Y-12065793D02*
X10773206Y-12018174D01*
X10773206Y-12018174D02*
X10782730Y-11980079D01*
X10782730Y-11980079D02*
X10792253Y-11961031D01*
X10792253Y-11961031D02*
X10801777Y-11951508D01*
X10801777Y-11951508D02*
X10820825Y-11941984D01*
X11125587Y-12141984D02*
X11125587Y-11941984D01*
X11211301Y-12141984D02*
X11211301Y-12037222D01*
X11211301Y-12037222D02*
X11201777Y-12018174D01*
X11201777Y-12018174D02*
X11182730Y-12008650D01*
X11182730Y-12008650D02*
X11154158Y-12008650D01*
X11154158Y-12008650D02*
X11135111Y-12018174D01*
X11135111Y-12018174D02*
X11125587Y-12027698D01*
X11335110Y-12141984D02*
X11316063Y-12132460D01*
X11316063Y-12132460D02*
X11306539Y-12122936D01*
X11306539Y-12122936D02*
X11297015Y-12103888D01*
X11297015Y-12103888D02*
X11297015Y-12046746D01*
X11297015Y-12046746D02*
X11306539Y-12027698D01*
X11306539Y-12027698D02*
X11316063Y-12018174D01*
X11316063Y-12018174D02*
X11335110Y-12008650D01*
X11335110Y-12008650D02*
X11363682Y-12008650D01*
X11363682Y-12008650D02*
X11382730Y-12018174D01*
X11382730Y-12018174D02*
X11392253Y-12027698D01*
X11392253Y-12027698D02*
X11401777Y-12046746D01*
X11401777Y-12046746D02*
X11401777Y-12103888D01*
X11401777Y-12103888D02*
X11392253Y-12122936D01*
X11392253Y-12122936D02*
X11382730Y-12132460D01*
X11382730Y-12132460D02*
X11363682Y-12141984D01*
X11363682Y-12141984D02*
X11335110Y-12141984D01*
X11516063Y-12141984D02*
X11497015Y-12132460D01*
X11497015Y-12132460D02*
X11487491Y-12113412D01*
X11487491Y-12113412D02*
X11487491Y-11941984D01*
X11668444Y-12132460D02*
X11649396Y-12141984D01*
X11649396Y-12141984D02*
X11611301Y-12141984D01*
X11611301Y-12141984D02*
X11592253Y-12132460D01*
X11592253Y-12132460D02*
X11582730Y-12113412D01*
X11582730Y-12113412D02*
X11582730Y-12037222D01*
X11582730Y-12037222D02*
X11592253Y-12018174D01*
X11592253Y-12018174D02*
X11611301Y-12008650D01*
X11611301Y-12008650D02*
X11649396Y-12008650D01*
X11649396Y-12008650D02*
X11668444Y-12018174D01*
X11668444Y-12018174D02*
X11677968Y-12037222D01*
X11677968Y-12037222D02*
X11677968Y-12056269D01*
X11677968Y-12056269D02*
X11582730Y-12075317D01*
X11754158Y-12132460D02*
X11773206Y-12141984D01*
X11773206Y-12141984D02*
X11811301Y-12141984D01*
X11811301Y-12141984D02*
X11830349Y-12132460D01*
X11830349Y-12132460D02*
X11839872Y-12113412D01*
X11839872Y-12113412D02*
X11839872Y-12103888D01*
X11839872Y-12103888D02*
X11830349Y-12084841D01*
X11830349Y-12084841D02*
X11811301Y-12075317D01*
X11811301Y-12075317D02*
X11782730Y-12075317D01*
X11782730Y-12075317D02*
X11763682Y-12065793D01*
X11763682Y-12065793D02*
X11754158Y-12046746D01*
X11754158Y-12046746D02*
X11754158Y-12037222D01*
X11754158Y-12037222D02*
X11763682Y-12018174D01*
X11763682Y-12018174D02*
X11782730Y-12008650D01*
X11782730Y-12008650D02*
X11811301Y-12008650D01*
X11811301Y-12008650D02*
X11830349Y-12018174D01*
X11906539Y-12218174D02*
X11916063Y-12208650D01*
X11916063Y-12208650D02*
X11935111Y-12180079D01*
X11935111Y-12180079D02*
X11944634Y-12161031D01*
X11944634Y-12161031D02*
X11954158Y-12132460D01*
X11954158Y-12132460D02*
X11963682Y-12084841D01*
X11963682Y-12084841D02*
X11963682Y-12046746D01*
X11963682Y-12046746D02*
X11954158Y-11999127D01*
X11954158Y-11999127D02*
X11944634Y-11970555D01*
X11944634Y-11970555D02*
X11935111Y-11951508D01*
X11935111Y-11951508D02*
X11916063Y-11922936D01*
X11916063Y-11922936D02*
X11906539Y-11913412D01*
M02*
